{
.appVersion = "3343";
.formatVersion = 3;
DisplayStrings = (
"रऱ/da_uMatra-deva/da_uuMatra-deva/da_rVocalicMatra-deva/ra_uMatra-deva/ra_uuMatra-deva/ha_uMatra-deva/ha_uuMatra-deva/ha_rVocalicMatra-deva/k_ssa_uMatra-deva/k_ssa_uuMatra-deva/j_nya_uMatra-deva/t_k_ra-deva/t_kh_ra-deva/t_p_ra-deva/n_t_ra-deva/n_da_ra-deva/n_dh_ra-deva/n_p_ra-deva/b_bh_ra-deva/m_p_ra-deva/m_b_ra-deva/m_bh_ra-deva/ss_k_ra-deva/k_t_ra-deva.ss01/n_sa_k_ra-deva",
"रऱ/da_uMatra-deva/da_uuMatra-deva/da_rVocalicMatra-deva/ra_uMatra-deva/ra_uuMatra-deva/ha_uMatra-deva/ha_uuMatra-deva/ha_rVocalicMatra-deva/k_ssa_uMatra-deva/k_ssa_uuMatra-deva/j_nya_uMatra-deva/t_k_ra-deva/t_kh_ra-deva/t_p_ra-deva/n_t_ra-deva/n_da_ra-deva/n_dh_ra-deva/n_p_ra-deva/b_bh_ra-deva/m_p_ra-deva/m_b_ra-deva/m_bh_ra-deva/ss_k_ra-deva/k_t_ra-deva.ss01/n_sa_k_ra-deva 

",

glyphs = (
{
color = 6;
glyphname = A;
kernLeft = A;
kernRight = A;
lastChange = "2024-03-19 05:01:25 +0000";
layers = (
{
anchors = (
{
name = bottom;
pos = (321,0);
},
{
name = ogonek;
pos = (686,10);
},
{
name = top;
pos = (321,701);
}
);
layerId = "B3961A9D-C6DC-4F74-9770-9C992C479D86";
shapes = (
{
closed = 1;
nodes = (
(-2,0,l),
(141,0,l),
(194,169,l),
(447,169,l),
(500,0,l),
(643,0,l),
(413,701,l),
(228,701,l)
);
},
{
closed = 1;
nodes = (
(319,568,l),
(322,568,l),
(413,278,l),
(228,278,l)
);
}
);
width = 642;
},
{
anchors = (
{
name = bottom;
pos = (268,0);
},
{
name = ogonek;
pos = (498,10);
},
{
name = top;
pos = (268,700);
}
);
layerId = "0DC1F6FB-20EC-4E8F-AE98-F98B5FD714DE";
shapes = (
{
closed = 1;
nodes = (
(-3,0,l),
(40,0,l),
(119,232,l),
(416,232,l),
(495,0,l),
(539,0,l),
(289,701,l),
(247,701,l)
);
},
{
closed = 1;
nodes = (
(266,659,l),
(269,659,l),
(404,265,l),
(131,265,l)
);
}
);
width = 537;
}
);
unicode = 65;
},
{
color = 6;
glyphname = AE;
lastChange = "2024-03-19 05:02:57 +0000";
layers = (
{
anchors = (
{
name = bottom;
pos = (622,0);
},
{
name = ogonek;
pos = (853,10);
},
{
name = top;
pos = (622,630);
},
{
name = topleft;
pos = (352,630);
}
);
layerId = "B3961A9D-C6DC-4F74-9770-9C992C479D86";
shapes = (
{
closed = 1;
nodes = (
(418,0,l),
(854,0,l),
(854,109,l),
(554,109,l),
(554,301,l),
(844,301,l),
(844,408,l),
(554,408,l),
(554,592,l),
(854,592,l),
(854,701,l),
(418,701,l)
);
},
{
closed = 1;
nodes = (
(522,701,l),
(228,701,l),
(-2,0,l),
(139,0,l),
(192,169,l),
(522,169,l),
(522,278,l),
(228,278,l),
(326,592,l),
(522,592,l)
);
}
);
width = 883;
},
{
anchors = (
{
name = bottom;
pos = (538,0);
},
{
name = ogonek;
pos = (736,10);
},
{
name = top;
pos = (538,700);
},
{
name = topleft;
pos = (310,700);
}
);
layerId = "0DC1F6FB-20EC-4E8F-AE98-F98B5FD714DE";
shapes = (
{
closed = 1;
nodes = (
(370,0,l),
(756,0,l),
(756,36,l),
(406,36,l),
(406,342,l),
(746,342,l),
(746,375,l),
(406,375,l),
(406,665,l),
(756,665,l),
(756,701,l),
(370,701,l)
);
},
{
closed = 1;
nodes = (
(387,701,l),
(247,701,l),
(-3,0,l),
(37,0,l),
(119,232,l),
(387,232,l),
(387,265,l),
(131,265,l),
(272,665,l),
(387,665,l)
);
}
);
width = 765;
}
);
metricLeft = A;
metricRight = E;
unicode = 198;
},
{
color = 6;
glyphname = B;
lastChange = "2024-03-19 05:01:24 +0000";
layers = (
{
anchors = (
{
name = bottom;
pos = (289,0);
},
{
name = center;
pos = (289,315);
},
{
name = top;
pos = (289,630);
}
);
guides = (
{
angle = 90;
pos = (1362,0);
},
{
angle = 90;
pos = (582,0);
},
{
angle = 90;
pos = (1255,0);
}
);
layerId = "B3961A9D-C6DC-4F74-9770-9C992C479D86";
shapes = (
{
closed = 1;
nodes = (
(58,0,l),
(256,0,ls),
(353,0,o),
(546,-17,o),
(546,189,cs),
(546,214,l),
(545,321,o),
(492,348,o),
(423,356,c),
(423,360,l),
(487,370,o),
(535,399,o),
(536,501,c),
(536,527,ls),
(536,715,o),
(368,701,o),
(282,701,cs),
(58,701,l)
);
},
{
closed = 1;
nodes = (
(194,300,l),
(305,300,l),
(391,299,o),
(408,273,o),
(408,211,cs),
(408,196,ls),
(408,127,o),
(371,109,o),
(302,109,cs),
(194,109,l)
);
},
{
closed = 1;
nodes = (
(194,592,l),
(292,592,ls),
(361,592,o),
(397,574,o),
(398,505,c),
(398,498,l),
(397,442,o),
(373,410,o),
(287,409,c),
(194,409,l)
);
}
);
width = 577;
},
{
anchors = (
{
name = bottom;
pos = (254,0);
},
{
name = center;
pos = (254,350);
},
{
name = top;
pos = (254,700);
}
);
layerId = "0DC1F6FB-20EC-4E8F-AE98-F98B5FD714DE";
shapes = (
{
closed = 1;
nodes = (
(58,0,l),
(207,0,l),
(368,3,o),
(476,9,o),
(476,191,cs),
(476,204,l),
(475,329,o),
(400,358,o),
(354,366,c),
(354,370,l),
(399,375,o),
(466,397,o),
(466,500,cs),
(466,561,ls),
(466,698,o),
(312,700,o),
(233,701,c),
(58,701,l)
);
},
{
closed = 1;
nodes = (
(94,350,l),
(230,350,l),
(306,349,o),
(440,348,o),
(440,219,cs),
(440,180,ls),
(440,30,o),
(322,39,o),
(187,36,c),
(94,36,l)
);
},
{
closed = 1;
nodes = (
(94,665,l),
(212,665,l),
(279,664,o),
(429,666,o),
(430,561,c),
(430,502,l),
(429,426,o),
(383,385,o),
(230,383,c),
(94,383,l)
);
}
);
width = 507;
}
);
unicode = 66;
},
{
color = 6;
glyphname = C;
kernLeft = C;
kernRight = C;
lastChange = "2024-03-19 05:01:26 +0000";
layers = (
{
anchors = (
{
name = bottom;
pos = (266,0);
},
{
name = top;
pos = (266,630);
}
);
guides = (
{
pos = (-28,711);
}
);
layerId = "B3961A9D-C6DC-4F74-9770-9C992C479D86";
shapes = (
{
closed = 1;
nodes = (
(167,409,ls),
(167,538,o),
(212,587,o),
(332,590,cs),
(380,591,o),
(469,579,o),
(511,566,c),
(511,681,l),
(458,702,o),
(374,711,o),
(332,711,cs),
(152,711,o),
(33,653,o),
(33,428,cs),
(33,274,ls),
(33,49,o),
(152,-9,o),
(332,-9,cs),
(374,-9,o),
(458,0,o),
(511,21,c),
(511,135,l),
(469,122,o),
(380,110,o),
(332,111,cs),
(212,114,o),
(167,164,o),
(167,293,cs)
);
}
);
width = 532;
},
{
anchors = (
{
name = bottom;
pos = (242,0);
},
{
name = top;
pos = (242,700);
}
);
layerId = "0DC1F6FB-20EC-4E8F-AE98-F98B5FD714DE";
shapes = (
{
closed = 1;
nodes = (
(73,436,ls),
(73,600,o),
(126,674,o),
(308,674,cs),
(364,674,o),
(442,664,o),
(480,650,c),
(480,686,l),
(438,701,o),
(362,709,o),
(308,710,cs),
(83,710,o),
(37,621,o),
(37,424,cs),
(37,277,ls),
(37,80,o),
(83,-9,o),
(308,-9,cs),
(362,-8,o),
(438,0,o),
(480,15,c),
(480,51,l),
(442,37,o),
(364,27,o),
(308,27,cs),
(126,27,o),
(73,101,o),
(73,265,cs)
);
}
);
width = 485;
}
);
unicode = 67;
},
{
color = 6;
glyphname = D;
kernRight = D;
lastChange = "2024-03-19 05:01:26 +0000";
layers = (
{
anchors = (
{
name = bottom;
pos = (321,0);
},
{
name = center;
pos = (321,315);
},
{
name = top;
pos = (321,630);
}
);
layerId = "B3961A9D-C6DC-4F74-9770-9C992C479D86";
shapes = (
{
closed = 1;
nodes = (
(316,0,ls),
(489,0,o),
(608,57,o),
(608,277,cs),
(608,425,ls),
(608,645,o),
(489,701,o),
(316,701,cs),
(58,701,l),
(58,0,l)
);
},
{
closed = 1;
nodes = (
(194,592,l),
(315,592,ls),
(432,592,o),
(474,545,o),
(474,417,cs),
(474,285,ls),
(474,158,o),
(431,109,o),
(315,109,cs),
(194,109,l)
);
}
);
width = 641;
},
{
anchors = (
{
name = bottom;
pos = (293,0);
},
{
name = center;
pos = (293,350);
},
{
name = top;
pos = (293,700);
}
);
guides = (
{
angle = 90;
pos = (249,0);
}
);
hints = (
{
place = (325,30);
type = Stem;
}
);
layerId = "0DC1F6FB-20EC-4E8F-AE98-F98B5FD714DE";
shapes = (
{
closed = 1;
nodes = (
(260,0,ls),
(466,0,o),
(550,58,o),
(550,277,cs),
(550,425,ls),
(550,644,o),
(471,701,o),
(260,701,cs),
(58,701,l),
(58,0,l)
);
},
{
closed = 1;
nodes = (
(94,665,l),
(259,665,ls),
(460,665,o),
(514,602,o),
(514,437,cs),
(514,265,ls),
(514,101,o),
(459,36,o),
(260,36,cs),
(94,36,l)
);
}
);
width = 586;
}
);
unicode = 68;
},
{
color = 6;
glyphname = Eth;
lastChange = "2024-03-19 05:07:14 +0000";
layers = (
{
layerId = "B3961A9D-C6DC-4F74-9770-9C992C479D86";
shapes = (
{
closed = 1;
nodes = (
(364,0,ls),
(537,0,o),
(656,57,o),
(656,277,cs),
(656,425,ls),
(656,645,o),
(537,701,o),
(364,701,cs),
(106,701,l),
(106,0,l)
);
},
{
closed = 1;
nodes = (
(242,592,l),
(363,592,ls),
(480,592,o),
(522,545,o),
(522,417,cs),
(522,285,ls),
(522,158,o),
(479,109,o),
(363,109,cs),
(242,109,l)
);
},
{
closed = 1;
nodes = (
(25,292,l),
(359,292,l),
(359,410,l),
(25,410,l)
);
}
);
width = 689;
},
{
layerId = "0DC1F6FB-20EC-4E8F-AE98-F98B5FD714DE";
shapes = (
{
closed = 1;
nodes = (
(295,0,ls),
(501,0,o),
(585,58,o),
(585,277,cs),
(585,425,ls),
(585,644,o),
(506,701,o),
(295,701,cs),
(93,701,l),
(93,0,l)
);
},
{
closed = 1;
nodes = (
(129,665,l),
(294,665,ls),
(495,665,o),
(549,602,o),
(549,437,cs),
(549,265,ls),
(549,101,o),
(494,36,o),
(295,36,cs),
(129,36,l)
);
},
{
closed = 1;
nodes = (
(20,334,l),
(254,334,l),
(254,368,l),
(20,368,l)
);
}
);
width = 621;
}
);
metricRight = D;
unicode = (208,240);
},
{
color = 6;
glyphname = E;
kernRight = E;
lastChange = "2024-03-19 05:01:25 +0000";
layers = (
{
anchors = (
{
name = bottom;
pos = (262,0);
},
{
name = ogonek;
pos = (493,10);
},
{
name = top;
pos = (262,630);
},
{
name = topleft;
pos = (-8,630);
}
);
layerId = "B3961A9D-C6DC-4F74-9770-9C992C479D86";
shapes = (
{
closed = 1;
nodes = (
(58,0,l),
(494,0,l),
(494,109,l),
(194,109,l),
(194,301,l),
(484,301,l),
(484,408,l),
(194,408,l),
(194,592,l),
(494,592,l),
(494,701,l),
(58,701,l)
);
}
);
width = 523;
},
{
anchors = (
{
name = bottom;
pos = (226,0);
},
{
name = ogonek;
pos = (424,10);
},
{
name = top;
pos = (226,700);
},
{
name = topleft;
pos = (-2,700);
}
);
layerId = "0DC1F6FB-20EC-4E8F-AE98-F98B5FD714DE";
shapes = (
{
closed = 1;
nodes = (
(58,0,l),
(444,0,l),
(444,36,l),
(94,36,l),
(94,342,l),
(434,342,l),
(434,375,l),
(94,375,l),
(94,665,l),
(444,665,l),
(444,701,l),
(58,701,l)
);
}
);
width = 453;
}
);
unicode = 69;
},
{
color = 6;
glyphname = F;
lastChange = "2024-03-19 05:01:24 +0000";
layers = (
{
anchors = (
{
name = bottom;
pos = (255,0);
},
{
name = top;
pos = (255,630);
}
);
layerId = "B3961A9D-C6DC-4F74-9770-9C992C479D86";
shapes = (
{
closed = 1;
nodes = (
(58,0,l),
(194,0,l),
(194,290,l),
(483,290,l),
(483,397,l),
(194,397,l),
(194,592,l),
(494,592,l),
(494,701,l),
(58,701,l)
);
}
);
width = 509;
},
{
anchors = (
{
name = bottom;
pos = (222,0);
},
{
name = top;
pos = (222,700);
}
);
layerId = "0DC1F6FB-20EC-4E8F-AE98-F98B5FD714DE";
shapes = (
{
closed = 1;
nodes = (
(58,-5,l),
(94,0,l),
(94,346,l),
(434,346,l),
(434,379,l),
(94,379,l),
(94,665,l),
(444,665,l),
(444,701,l),
(58,701,l)
);
}
);
width = 445;
}
);
unicode = 70;
},
{
color = 6;
glyphname = G;
kernLeft = G;
kernRight = G;
lastChange = "2024-03-19 05:01:24 +0000";
layers = (
{
anchors = (
{
name = bottom;
pos = (321,0);
},
{
name = top;
pos = (321,630);
}
);
layerId = "B3961A9D-C6DC-4F74-9770-9C992C479D86";
shapes = (
{
closed = 1;
nodes = (
(428,-9,o),
(462,56,o),
(479,131,c),
(482,131,l),
(482,1,l),
(604,0,l),
(604,341,l),
(326,341,l),
(326,235,l),
(471,235,l),
(464,154,o),
(442,100,o),
(326,100,cs),
(209,100,o),
(167,158,o),
(167,285,cs),
(167,417,ls),
(167,545,o),
(208,602,o),
(326,602,cs),
(421,602,o),
(457,565,o),
(471,483,c),
(603,500,l),
(582,656,o),
(482,711,o),
(326,711,cs),
(151,711,o),
(33,644,o),
(33,425,cs),
(33,277,ls),
(33,57,o),
(131,-9,o),
(306,-9,cs)
);
}
);
width = 641;
},
{
anchors = (
{
name = bottom;
pos = (303,0);
},
{
name = top;
pos = (303,700);
}
);
guides = (
{
angle = 90;
pos = (575,0);
}
);
layerId = "0DC1F6FB-20EC-4E8F-AE98-F98B5FD714DE";
shapes = (
{
closed = 1;
nodes = (
(433,-9,o),
(502,16,o),
(530,137,c),
(532,137,l),
(532,1,l),
(565,0,l),
(565,361,l),
(287,361,l),
(287,328,l),
(532,328,l),
(532,76,o),
(459,27,o),
(308,27,cs),
(126,27,o),
(73,101,o),
(73,265,cs),
(73,437,ls),
(73,602,o),
(125,675,o),
(308,675,cs),
(460,675,o),
(513,624,o),
(529,511,c),
(565,515,l),
(547,664,o),
(482,711,o),
(308,711,cs),
(87,711,o),
(37,626,o),
(37,425,cs),
(37,277,ls),
(37,80,o),
(83,-9,o),
(308,-9,cs)
);
}
);
width = 605;
}
);
unicode = 71;
},
{
color = 6;
glyphname = H;
lastChange = "2024-03-19 05:01:24 +0000";
layers = (
{
anchors = (
{
name = bottom;
pos = (327,0);
},
{
name = center;
pos = (327,315);
},
{
name = top;
pos = (327,630);
},
{
name = topleft;
pos = (-8,630);
}
);
layerId = "B3961A9D-C6DC-4F74-9770-9C992C479D86";
shapes = (
{
closed = 1;
nodes = (
(58,0,l),
(194,0,l),
(194,300,l),
(459,300,l),
(459,0,l),
(595,0,l),
(595,701,l),
(459,701,l),
(459,407,l),
(194,407,l),
(194,701,l),
(58,701,l)
);
}
);
width = 653;
},
{
anchors = (
{
name = bottom;
pos = (281,0);
},
{
name = center;
pos = (281,350);
},
{
name = top;
pos = (281,700);
},
{
name = topleft;
pos = (-2,700);
}
);
layerId = "0DC1F6FB-20EC-4E8F-AE98-F98B5FD714DE";
shapes = (
{
closed = 1;
nodes = (
(58,-5,l),
(94,0,l),
(94,346,l),
(468,346,l),
(468,-5,l),
(504,0,l),
(504,701,l),
(468,701,l),
(468,379,l),
(94,379,l),
(94,701,l),
(58,701,l)
);
}
);
width = 562;
}
);
unicode = 72;
},
{
color = 6;
glyphname = I;
kernRight = I;
lastChange = "2024-03-19 05:01:25 +0000";
layers = (
{
anchors = (
{
name = bottom;
pos = (126,0);
},
{
name = ogonek;
pos = (249,10);
},
{
name = top;
pos = (126,630);
},
{
name = topleft;
pos = (-8,630);
}
);
layerId = "B3961A9D-C6DC-4F74-9770-9C992C479D86";
shapes = (
{
closed = 1;
nodes = (
(58,0,l),
(194,0,l),
(194,701,l),
(58,701,l)
);
}
);
width = 252;
},
{
anchors = (
{
name = bottom;
pos = (76,0);
},
{
name = ogonek;
pos = (154,10);
},
{
name = top;
pos = (76,700);
},
{
name = topleft;
pos = (-2,700);
}
);
layerId = "0DC1F6FB-20EC-4E8F-AE98-F98B5FD714DE";
shapes = (
{
closed = 1;
nodes = (
(58,0,l),
(94,0,l),
(94,701,l),
(58,701,l)
);
}
);
width = 152;
}
);
unicode = 73;
},
{
color = 6;
glyphname = J;
kernLeft = J;
kernRight = J;
lastChange = "2024-03-19 05:01:25 +0000";
layers = (
{
anchors = (
{
name = bottom;
pos = (177,0);
},
{
name = top;
pos = (177,630);
}
);
layerId = "B3961A9D-C6DC-4F74-9770-9C992C479D86";
shapes = (
{
closed = 1;
nodes = (
(2,0,l),
(115,0,ls),
(267,0,o),
(300,36,o),
(300,235,cs),
(300,701,l),
(166,701,l),
(166,235,ls),
(166,135,o),
(160,109,o),
(71,109,cs),
(2,109,l)
);
}
);
width = 352;
},
{
anchors = (
{
name = bottom;
pos = (102,0);
},
{
name = top;
pos = (102,700);
}
);
layerId = "0DC1F6FB-20EC-4E8F-AE98-F98B5FD714DE";
shapes = (
{
closed = 1;
nodes = (
(-6,0,l),
(53,0,ls),
(111,0,o),
(146,8,o),
(144,85,c),
(144,701,l),
(108,701,l),
(108,85,ls),
(108,49,o),
(101,33,o),
(53,33,cs),
(-6,33,l)
);
}
);
width = 200;
}
);
unicode = 74;
},
{
color = 6;
glyphname = K;
kernRight = K;
lastChange = "2024-03-19 05:01:25 +0000";
layers = (
{
anchors = (
{
name = bottom;
pos = (293,0);
},
{
name = top;
pos = (293,630);
}
);
guides = (
{
angle = 90;
pos = (577,0);
}
);
layerId = "B3961A9D-C6DC-4F74-9770-9C992C479D86";
shapes = (
{
closed = 1;
nodes = (
(58,0,l),
(194,0,l),
(194,300,l),
(241,300,l),
(436,0,l),
(588,0,l),
(355,351,l),
(577,701,l),
(426,701,l),
(241,400,l),
(194,400,l),
(194,701,l),
(58,701,l)
);
}
);
width = 586;
},
{
anchors = (
{
name = bottom;
pos = (227,0);
},
{
name = top;
pos = (227,700);
}
);
guides = (
{
angle = 90;
pos = (459,0);
}
);
layerId = "0DC1F6FB-20EC-4E8F-AE98-F98B5FD714DE";
shapes = (
{
closed = 1;
nodes = (
(58,0,l),
(94,0,l),
(94,347,l),
(158,347,l),
(414,0,l),
(459,0,l),
(187,364,l),
(451,701,l),
(405,701,l),
(158,381,l),
(94,381,l),
(94,701,l),
(58,701,l)
);
}
);
width = 456;
}
);
unicode = 75;
},
{
color = 6;
glyphname = L;
kernRight = L;
lastChange = "2024-03-19 05:01:26 +0000";
layers = (
{
anchors = (
{
name = bottom;
pos = (243,0);
},
{
name = center;
pos = (243,315);
},
{
name = top;
pos = (243,630);
},
{
name = topright;
pos = (493,630);
}
);
layerId = "B3961A9D-C6DC-4F74-9770-9C992C479D86";
shapes = (
{
closed = 1;
nodes = (
(58,0,l),
(484,0,l),
(484,109,l),
(194,109,l),
(194,701,l),
(58,701,l)
);
}
);
width = 485;
},
{
anchors = (
{
name = bottom;
pos = (208,0);
},
{
name = center;
pos = (208,350);
},
{
name = top;
pos = (208,700);
},
{
name = topright;
pos = (417,700);
}
);
layerId = "0DC1F6FB-20EC-4E8F-AE98-F98B5FD714DE";
shapes = (
{
closed = 1;
nodes = (
(58,0,l),
(424,0,l),
(424,33,l),
(94,33,l),
(94,701,l),
(58,701,l)
);
}
);
width = 418;
}
);
unicode = 76;
},
{
color = 6;
glyphname = M;
kernRight = M;
lastChange = "2024-03-19 05:01:25 +0000";
layers = (
{
anchors = (
{
name = bottom;
pos = (453,0);
},
{
name = top;
pos = (453,630);
}
);
layerId = "B3961A9D-C6DC-4F74-9770-9C992C479D86";
shapes = (
{
closed = 1;
nodes = (
(173,0,l),
(205,556,l),
(208,556,l),
(369,0,l),
(537,0,l),
(698,556,l),
(701,556,l),
(733,0,l),
(868,0,l),
(828,701,l),
(632,701,l),
(455,118,l),
(451,118,l),
(274,701,l),
(78,701,l),
(38,0,l)
);
}
);
width = 906;
},
{
anchors = (
{
name = bottom;
pos = (359,0);
},
{
name = top;
pos = (359,700);
}
);
layerId = "0DC1F6FB-20EC-4E8F-AE98-F98B5FD714DE";
shapes = (
{
closed = 1;
nodes = (
(79,0,l),
(106,639,l),
(110,639,l),
(332,0,l),
(386,0,l),
(608,639,l),
(612,639,l),
(639,0,l),
(675,0,l),
(645,701,l),
(598,701,l),
(361,45,l),
(357,45,l),
(120,701,l),
(73,701,l),
(43,0,l)
);
}
);
width = 718;
}
);
unicode = 77;
},
{
color = 6;
glyphname = N;
lastChange = "2024-03-19 05:01:26 +0000";
layers = (
{
anchors = (
{
name = bottom;
pos = (347,0);
},
{
name = top;
pos = (347,630);
}
);
layerId = "B3961A9D-C6DC-4F74-9770-9C992C479D86";
shapes = (
{
closed = 1;
nodes = (
(635,0,l),
(635,701,l),
(500,701,l),
(500,108,l),
(496,108,l),
(274,701,l),
(58,701,l),
(58,0,l),
(193,0,l),
(193,601,l),
(194,601,l),
(419,0,l)
);
}
);
width = 693;
},
{
anchors = (
{
name = bottom;
pos = (283,0);
},
{
name = top;
pos = (283,700);
}
);
layerId = "0DC1F6FB-20EC-4E8F-AE98-F98B5FD714DE";
shapes = (
{
closed = 1;
nodes = (
(507,0,l),
(507,701,l),
(471,701,l),
(471,39,l),
(467,39,l),
(115,701,l),
(58,701,l),
(58,0,l),
(94,0,l),
(94,662,l),
(98,662,l),
(450,0,l)
);
}
);
width = 565;
}
);
unicode = 78;
},
{
color = 6;
glyphname = O;
kernLeft = O;
kernRight = O;
lastChange = "2024-03-19 05:01:24 +0000";
layers = (
{
anchors = (
{
name = bottom;
pos = (326,0);
},
{
name = center;
pos = (326,315);
},
{
name = ogonek;
pos = (608,10);
},
{
name = top;
pos = (326,630);
},
{
name = topleft;
pos = (-8,630);
},
{
name = topright;
pos = (659,630);
}
);
guides = (
{
pos = (-28,701);
}
);
layerId = "B3961A9D-C6DC-4F74-9770-9C992C479D86";
shapes = (
{
closed = 1;
nodes = (
(500,-9,o),
(619,57,o),
(619,277,c),
(619,425,l),
(619,645,o),
(500,711,o),
(325,711,c),
(150,711,o),
(32,644,o),
(32,425,c),
(32,277,l),
(32,57,o),
(150,-9,o),
(325,-9,c)
);
},
{
closed = 1;
nodes = (
(208,100,o),
(166,158,o),
(166,285,c),
(166,417,l),
(166,545,o),
(207,602,o),
(325,602,c),
(443,602,o),
(485,545,o),
(485,417,c),
(485,285,l),
(485,158,o),
(442,100,o),
(325,100,c)
);
}
);
width = 651;
},
{
anchors = (
{
name = bottom;
pos = (309,0);
},
{
name = center;
pos = (309,350);
},
{
name = ogonek;
pos = (573,10);
},
{
name = top;
pos = (309,700);
},
{
name = topleft;
pos = (-2,700);
},
{
name = topright;
pos = (619,700);
}
);
layerId = "0DC1F6FB-20EC-4E8F-AE98-F98B5FD714DE";
shapes = (
{
closed = 1;
nodes = (
(513,-9,o),
(580,57,o),
(580,277,c),
(580,425,l),
(580,645,o),
(513,711,o),
(308,711,c),
(103,711,o),
(37,644,o),
(37,425,c),
(37,277,l),
(37,57,o),
(103,-9,o),
(308,-9,c)
);
},
{
closed = 1;
nodes = (
(127,27,o),
(73,101,o),
(73,265,c),
(73,437,l),
(73,602,o),
(126,675,o),
(308,675,c),
(490,675,o),
(544,602,o),
(544,437,c),
(544,265,l),
(544,101,o),
(489,27,o),
(308,27,c)
);
}
);
width = 617;
}
);
unicode = 79;
},
{
color = 6;
glyphname = Oslash;
lastChange = "2024-03-19 05:10:22 +0000";
layers = (
{
layerId = "B3961A9D-C6DC-4F74-9770-9C992C479D86";
shapes = (
{
closed = 1;
nodes = (
(500,-9,o),
(619,57,o),
(619,277,c),
(619,425,l),
(619,645,o),
(500,711,o),
(325,711,c),
(150,711,o),
(32,644,o),
(32,425,c),
(32,277,l),
(32,57,o),
(150,-9,o),
(325,-9,c)
);
},
{
closed = 1;
nodes = (
(208,100,o),
(166,158,o),
(166,285,c),
(166,417,l),
(166,545,o),
(207,602,o),
(325,602,c),
(443,602,o),
(485,545,o),
(485,417,c),
(485,285,l),
(485,158,o),
(442,100,o),
(325,100,c)
);
},
{
closed = 1;
nodes = (
(420,807,l),
(92,-102,l),
(232,-102,l),
(560,807,l)
);
}
);
width = 651;
},
{
layerId = "0DC1F6FB-20EC-4E8F-AE98-F98B5FD714DE";
shapes = (
{
closed = 1;
nodes = (
(513,-9,o),
(580,57,o),
(580,277,c),
(580,425,l),
(580,645,o),
(513,711,o),
(308,711,c),
(103,711,o),
(37,644,o),
(37,425,c),
(37,277,l),
(37,57,o),
(103,-9,o),
(308,-9,c)
);
},
{
closed = 1;
nodes = (
(127,27,o),
(73,101,o),
(73,265,c),
(73,437,l),
(73,602,o),
(126,675,o),
(308,675,c),
(490,675,o),
(544,602,o),
(544,437,c),
(544,265,l),
(544,101,o),
(489,27,o),
(308,27,c)
);
},
{
closed = 1;
nodes = (
(485,792,l),
(94,-99,l),
(133,-99,l),
(524,792,l)
);
}
);
width = 617;
}
);
metricLeft = O;
metricRight = O;
unicode = 216;
},
{
color = 6;
glyphname = OE;
lastChange = "2024-03-19 05:10:45 +0000";
layers = (
{
anchors = (
{
name = bottom;
pos = (323,0);
},
{
name = center;
pos = (323,315);
},
{
name = ogonek;
pos = (605,10);
},
{
name = top;
pos = (323,630);
},
{
name = topleft;
pos = (-11,630);
},
{
name = topright;
pos = (656,630);
}
);
layerId = "B3961A9D-C6DC-4F74-9770-9C992C479D86";
shapes = (
{
closed = 1;
nodes = (
(480,-9,o),
(566,57,o),
(566,277,c),
(566,425,l),
(566,645,o),
(480,711,o),
(305,711,cs),
(130,711,o),
(32,644,o),
(32,425,c),
(32,277,l),
(32,57,o),
(150,-9,o),
(305,-9,c)
);
},
{
closed = 1;
nodes = (
(208,100,o),
(166,158,o),
(166,285,c),
(166,417,l),
(166,545,o),
(207,602,o),
(325,602,c),
(443,602,o),
(485,545,o),
(485,417,c),
(485,285,l),
(485,158,o),
(442,100,o),
(325,100,c)
);
},
{
closed = 1;
nodes = (
(485,0,l),
(921,0,l),
(921,109,l),
(621,109,l),
(621,301,l),
(911,301,l),
(911,408,l),
(621,408,l),
(621,592,l),
(921,592,l),
(921,701,l),
(485,701,l)
);
}
);
width = 950;
},
{
anchors = (
{
name = bottom;
pos = (309,0);
},
{
name = center;
pos = (309,350);
},
{
name = ogonek;
pos = (573,10);
},
{
name = top;
pos = (309,700);
},
{
name = topleft;
pos = (-2,700);
},
{
name = topright;
pos = (619,700);
}
);
layerId = "0DC1F6FB-20EC-4E8F-AE98-F98B5FD714DE";
shapes = (
{
closed = 1;
nodes = (
(513,-9,o),
(570,57,o),
(570,277,c),
(570,425,l),
(570,645,o),
(513,711,o),
(308,711,c),
(103,711,o),
(37,644,o),
(37,425,c),
(37,277,l),
(37,57,o),
(103,-9,o),
(308,-9,c)
);
},
{
closed = 1;
nodes = (
(127,27,o),
(73,101,o),
(73,265,c),
(73,437,l),
(73,602,o),
(126,675,o),
(308,675,c),
(490,675,o),
(544,602,o),
(544,437,c),
(544,265,l),
(544,101,o),
(489,27,o),
(308,27,c)
);
},
{
closed = 1;
nodes = (
(544,0,l),
(930,0,l),
(930,36,l),
(580,36,l),
(580,342,l),
(920,342,l),
(920,375,l),
(580,375,l),
(580,665,l),
(930,665,l),
(930,701,l),
(544,701,l)
);
}
);
width = 939;
}
);
metricLeft = O;
metricRight = E;
unicode = 338;
},
{
color = 6;
glyphname = P;
lastChange = "2024-03-19 05:01:24 +0000";
layers = (
{
anchors = (
{
name = bottom;
pos = (288,0);
},
{
name = top;
pos = (288,630);
}
);
layerId = "B3961A9D-C6DC-4F74-9770-9C992C479D86";
shapes = (
{
closed = 1;
nodes = (
(302,254,ls),
(388,254,o),
(556,250,o),
(556,428,cs),
(556,527,ls),
(556,715,o),
(388,701,o),
(302,701,cs),
(58,701,l),
(58,0,l),
(194,0,l),
(194,254,l)
);
},
{
closed = 1;
nodes = (
(194,592,l),
(312,592,ls),
(381,592,o),
(417,574,o),
(418,505,c),
(418,450,l),
(417,381,o),
(381,363,o),
(312,363,cs),
(194,363,l)
);
}
);
width = 575;
},
{
anchors = (
{
name = bottom;
pos = (236,0);
},
{
name = top;
pos = (236,700);
}
);
layerId = "0DC1F6FB-20EC-4E8F-AE98-F98B5FD714DE";
shapes = (
{
closed = 1;
nodes = (
(220,293,ls),
(319,293,o),
(456,294,o),
(456,443,cs),
(456,561,ls),
(456,704,o),
(301,701,o),
(223,701,cs),
(58,701,l),
(58,0,l),
(94,0,l),
(94,293,l)
);
},
{
closed = 1;
nodes = (
(94,665,l),
(202,665,l),
(269,663,o),
(420,676,o),
(420,561,cs),
(420,445,ls),
(420,359,o),
(373,328,o),
(220,326,c),
(94,326,l)
);
}
);
width = 474;
}
);
unicode = 80;
},
{
color = 6;
glyphname = Q;
lastChange = "2024-03-19 05:01:25 +0000";
layers = (
{
anchors = (
{
name = bottom;
pos = (317,0);
},
{
name = top;
pos = (317,630);
}
);
layerId = "B3961A9D-C6DC-4F74-9770-9C992C479D86";
shapes = (
{
closed = 1;
nodes = (
(491,-9,o),
(608,57,o),
(608,277,c),
(608,425,l),
(608,645,o),
(491,711,o),
(316,711,c),
(141,711,o),
(25,644,o),
(25,425,c),
(25,277,l),
(25,57,o),
(141,-9,o),
(316,-9,c)
);
},
{
closed = 1;
nodes = (
(199,100,o),
(157,158,o),
(157,285,c),
(157,417,l),
(157,545,o),
(198,602,o),
(316,602,c),
(434,602,o),
(476,545,o),
(476,417,c),
(476,285,l),
(476,158,o),
(433,100,o),
(316,100,c)
);
},
{
closed = 1;
nodes = (
(257,-163,l),
(378,-163,l),
(378,73,l),
(257,73,l)
);
}
);
width = 633;
},
{
anchors = (
{
name = bottom;
pos = (300,0);
},
{
name = top;
pos = (300,700);
}
);
layerId = "0DC1F6FB-20EC-4E8F-AE98-F98B5FD714DE";
shapes = (
{
closed = 1;
nodes = (
(504,-9,o),
(571,57,o),
(571,277,c),
(571,425,l),
(571,645,o),
(504,711,o),
(299,711,c),
(94,711,o),
(28,644,o),
(28,425,c),
(28,277,l),
(28,57,o),
(94,-9,o),
(299,-9,c)
);
},
{
closed = 1;
nodes = (
(118,27,o),
(64,101,o),
(64,265,c),
(64,437,l),
(64,602,o),
(117,675,o),
(299,675,c),
(481,675,o),
(535,602,o),
(535,437,c),
(535,265,l),
(535,101,o),
(480,27,o),
(299,27,c)
);
},
{
closed = 1;
nodes = (
(281,-163,l),
(317,-163,l),
(317,13,l),
(281,13,l)
);
}
);
width = 599;
}
);
unicode = 81;
},
{
color = 6;
glyphname = R;
kernRight = R;
lastChange = "2024-03-19 05:01:24 +0000";
layers = (
{
anchors = (
{
name = bottom;
pos = (294,0);
},
{
name = top;
pos = (294,630);
}
);
layerId = "B3961A9D-C6DC-4F74-9770-9C992C479D86";
shapes = (
{
closed = 1;
nodes = (
(194,0,l),
(194,274,l),
(283,274,l),
(414,0,l),
(567,0,l),
(420,279,l),
(490,292,o),
(556,330,o),
(556,448,cs),
(556,527,ls),
(556,715,o),
(388,701,o),
(302,701,cs),
(58,701,l),
(58,0,l)
);
},
{
closed = 1;
nodes = (
(194,592,l),
(312,592,ls),
(381,592,o),
(418,574,o),
(418,505,cs),
(418,470,ls),
(418,401,o),
(381,383,o),
(312,383,cs),
(194,383,l)
);
}
);
width = 587;
},
{
anchors = (
{
name = bottom;
pos = (243,0);
},
{
name = top;
pos = (243,700);
}
);
guides = (
{
angle = 90;
pos = (456,0);
}
);
layerId = "0DC1F6FB-20EC-4E8F-AE98-F98B5FD714DE";
shapes = (
{
closed = 1;
nodes = (
(94,0,l),
(94,307,l),
(253,307,l),
(429,0,l),
(468,0,l),
(291,308,l),
(374,314,o),
(456,339,o),
(456,457,cs),
(456,561,ls),
(456,706,o),
(301,701,o),
(223,701,cs),
(58,701,l),
(58,0,l)
);
},
{
closed = 1;
nodes = (
(94,665,l),
(202,665,l),
(269,663,o),
(419,676,o),
(420,561,c),
(420,459,l),
(419,373,o),
(373,342,o),
(220,340,c),
(94,340,l)
);
}
);
width = 486;
}
);
unicode = 82;
},
{
color = 6;
glyphname = S;
kernLeft = S;
kernRight = S;
lastChange = "2024-03-19 05:01:25 +0000";
layers = (
{
anchors = (
{
name = bottom;
pos = (262,0);
},
{
name = top;
pos = (262,630);
}
);
guides = (
{
pos = (-28,701);
},
{
angle = 90;
pos = (789,0);
},
{
angle = 90;
pos = (1294,0);
},
{
angle = 90;
pos = (501,0);
},
{
angle = 90;
pos = (28,0);
}
);
layerId = "B3961A9D-C6DC-4F74-9770-9C992C479D86";
shapes = (
{
closed = 1;
nodes = (
(49,329,o),
(28,407,o),
(28,524,cs),
(28,630,o),
(106,714,o),
(265,711,cs),
(344,710,o),
(408,695,o),
(479,665,c),
(479,532,l),
(417,568,o),
(348,592,o),
(284,592,cs),
(207,592,o),
(164,570,o),
(164,513,cs),
(164,446,o),
(212,429,o),
(320,398,c),
(460,356,o),
(500,303,o),
(500,183,cs),
(500,42,o),
(419,-8,o),
(253,-8,c),
(179,-7,o),
(101,8,o),
(28,33,c),
(28,153,l),
(104,129,o),
(176,113,o),
(250,110,cs),
(337,106,o),
(360,134,o),
(364,180,cs),
(369,236,o),
(326,261,o),
(273,274,cs)
);
}
);
width = 523;
},
{
anchors = (
{
name = bottom;
pos = (234,0);
},
{
name = top;
pos = (234,700);
}
);
layerId = "0DC1F6FB-20EC-4E8F-AE98-F98B5FD714DE";
shapes = (
{
closed = 1;
nodes = (
(102,375,o),
(17,418,o),
(17,534,cs),
(17,647,o),
(91,713,o),
(236,711,cs),
(309,710,o),
(368,693,o),
(434,657,c),
(434,617,l),
(376,653,o),
(304,675,o),
(236,675,cs),
(151,675,o),
(53,651,o),
(53,534,cs),
(53,433,o),
(149,400,o),
(249,366,c),
(378,324,o),
(453,282,o),
(453,165,cs),
(453,33,o),
(378,-8,o),
(225,-8,c),
(156,-7,o),
(84,5,o),
(17,30,c),
(17,68,l),
(87,44,o),
(155,30,o),
(222,28,cs),
(422,23,o),
(416,121,o),
(417,162,cs),
(420,277,o),
(292,316,o),
(243,331,cs)
);
}
);
width = 468;
}
);
unicode = 83;
},
{
color = 6;
glyphname = T;
kernLeft = T;
kernRight = T;
lastChange = "2024-03-19 05:01:24 +0000";
layers = (
{
anchors = (
{
name = bottom;
pos = (235,0);
},
{
name = center;
pos = (235,315);
},
{
name = top;
pos = (235,630);
}
);
layerId = "B3961A9D-C6DC-4F74-9770-9C992C479D86";
shapes = (
{
closed = 1;
nodes = (
(2,701,l),
(2,592,l),
(167,592,l),
(167,0,l),
(303,0,l),
(303,592,l),
(467,592,l),
(467,701,l)
);
}
);
width = 469;
},
{
anchors = (
{
name = bottom;
pos = (243,0);
},
{
name = center;
pos = (243,350);
},
{
name = top;
pos = (243,700);
}
);
layerId = "0DC1F6FB-20EC-4E8F-AE98-F98B5FD714DE";
shapes = (
{
closed = 1;
nodes = (
(-6,701,l),
(-6,668,l),
(225,668,l),
(225,-5,l),
(261,0,l),
(261,668,l),
(491,668,l),
(491,701,l)
);
}
);
width = 485;
}
);
unicode = 84;
},
{
color = 6;
glyphname = U;
kernLeft = U;
lastChange = "2024-03-19 05:01:25 +0000";
layers = (
{
anchors = (
{
name = bottom;
pos = (329,0);
},
{
name = ogonek;
pos = (614,10);
},
{
name = top;
pos = (329,630);
},
{
name = topright;
pos = (665,630);
}
);
guides = (
{
pos = (-28,701);
}
);
layerId = "B3961A9D-C6DC-4F74-9770-9C992C479D86";
shapes = (
{
closed = 1;
nodes = (
(478,701,l),
(478,285,l),
(478,158,o),
(435,100,o),
(328,100,c),
(221,100,o),
(179,158,o),
(179,285,c),
(179,701,l),
(45,701,l),
(45,277,l),
(45,57,o),
(163,-9,o),
(328,-9,c),
(493,-9,o),
(612,57,o),
(612,277,c),
(612,701,l)
);
}
);
width = 657;
},
{
anchors = (
{
name = bottom;
pos = (289,0);
},
{
name = ogonek;
pos = (539,10);
},
{
name = top;
pos = (289,700);
},
{
name = topright;
pos = (581,700);
}
);
layerId = "0DC1F6FB-20EC-4E8F-AE98-F98B5FD714DE";
shapes = (
{
closed = 1;
nodes = (
(495,703,l),
(495,265,l),
(495,101,o),
(450,27,o),
(289,27,c),
(128,27,o),
(84,101,o),
(84,265,c),
(84,703,l),
(48,703,l),
(48,277,l),
(48,57,o),
(104,-9,o),
(289,-9,c),
(474,-9,o),
(531,57,o),
(531,277,c),
(531,703,l)
);
}
);
width = 579;
}
);
unicode = 85;
},
{
color = 6;
glyphname = V;
lastChange = "2024-03-19 05:01:25 +0000";
layers = (
{
anchors = (
{
name = bottom;
pos = (310,0);
},
{
name = top;
pos = (310,630);
}
);
layerId = "B3961A9D-C6DC-4F74-9770-9C992C479D86";
shapes = (
{
closed = 1;
nodes = (
(402,0,l),
(621,701,l),
(479,701,l),
(311,141,l),
(308,141,l),
(140,701,l),
(-1,701,l),
(217,0,l)
);
}
);
width = 620;
},
{
anchors = (
{
name = bottom;
pos = (254,0);
},
{
name = top;
pos = (254,700);
}
);
layerId = "0DC1F6FB-20EC-4E8F-AE98-F98B5FD714DE";
shapes = (
{
closed = 1;
nodes = (
(273,0,l),
(509,701,l),
(471,701,l),
(255,49,l),
(251,49,l),
(36,701,l),
(-2,701,l),
(233,0,l)
);
}
);
width = 507;
}
);
unicode = 86;
},
{
color = 6;
glyphname = W;
lastChange = "2024-03-19 05:01:25 +0000";
layers = (
{
anchors = (
{
name = bottom;
pos = (477,0);
},
{
name = top;
pos = (477,630);
}
);
layerId = "B3961A9D-C6DC-4F74-9770-9C992C479D86";
shapes = (
{
closed = 1;
nodes = (
(358,0,l),
(475,548,l),
(479,548,l),
(596,0,l),
(784,0,l),
(952,701,l),
(812,701,l),
(685,146,l),
(683,146,l),
(549,701,l),
(405,701,l),
(272,146,l),
(269,146,l),
(142,701,l),
(2,701,l),
(170,0,l)
);
}
);
width = 954;
},
{
anchors = (
{
name = bottom;
pos = (376,0);
},
{
name = top;
pos = (376,700);
}
);
layerId = "0DC1F6FB-20EC-4E8F-AE98-F98B5FD714DE";
shapes = (
{
closed = 1;
nodes = (
(223,0,l),
(374,632,l),
(378,632,l),
(529,0,l),
(574,0,l),
(751,701,l),
(714,701,l),
(553,49,l),
(548,49,l),
(393,701,l),
(359,701,l),
(204,49,l),
(199,49,l),
(38,701,l),
(1,701,l),
(178,0,l)
);
}
);
width = 752;
}
);
unicode = 87;
},
{
color = 6;
glyphname = X;
lastChange = "2024-03-19 05:01:24 +0000";
layers = (
{
anchors = (
{
name = bottom;
pos = (307,0);
},
{
name = top;
pos = (307,630);
}
);
guides = (
{
pos = (-28,350);
},
{
angle = 90;
pos = (615,0);
},
{
pos = (-28,701);
},
{
angle = 90;
pos = (-473,0);
},
{
angle = 90;
pos = (-1040,0);
},
{
angle = 90;
pos = (-3,0);
}
);
layerId = "B3961A9D-C6DC-4F74-9770-9C992C479D86";
shapes = (
{
closed = 1;
nodes = (
(149,0,l),
(304,285,l),
(308,285,l),
(462,0,l),
(615,0,l),
(411,355,l),
(599,701,l),
(451,701,l),
(308,419,l),
(304,419,l),
(162,701,l),
(13,701,l),
(201,355,l),
(-3,0,l)
);
}
);
width = 613;
},
{
anchors = (
{
name = bottom;
pos = (242,0);
},
{
name = top;
pos = (242,700);
}
);
layerId = "0DC1F6FB-20EC-4E8F-AE98-F98B5FD714DE";
shapes = (
{
closed = 1;
nodes = (
(39,0,l),
(239,339,l),
(243,339,l),
(443,0,l),
(484,0,l),
(270,355,l),
(477,701,l),
(440,701,l),
(243,371,l),
(239,371,l),
(42,701,l),
(5,701,l),
(212,355,l),
(-2,0,l)
);
}
);
width = 483;
}
);
unicode = 88;
},
{
color = 6;
glyphname = Y;
kernLeft = Y;
kernRight = Y;
lastChange = "2024-03-19 05:01:25 +0000";
layers = (
{
anchors = (
{
name = bottom;
pos = (287,0);
},
{
name = top;
pos = (287,630);
},
{
name = topleft;
pos = (-8,630);
}
);
layerId = "B3961A9D-C6DC-4F74-9770-9C992C479D86";
shapes = (
{
closed = 1;
nodes = (
(359,0,l),
(359,290,l),
(580,701,l),
(434,701,l),
(289,415,l),
(285,415,l),
(142,701,l),
(-6,701,l),
(216,292,l),
(216,0,l)
);
}
);
width = 574;
},
{
anchors = (
{
name = bottom;
pos = (220,0);
},
{
name = top;
pos = (220,700);
},
{
name = topleft;
pos = (1,700);
}
);
layerId = "0DC1F6FB-20EC-4E8F-AE98-F98B5FD714DE";
shapes = (
{
closed = 1;
nodes = (
(237,0,l),
(237,308,l),
(446,701,l),
(406,701,l),
(221,341,l),
(217,341,l),
(34,701,l),
(-6,701,l),
(201,308,l),
(201,0,l)
);
}
);
width = 440;
}
);
unicode = 89;
},
{
color = 6;
glyphname = Z;
kernLeft = Z;
kernRight = Z;
lastChange = "2024-03-19 05:01:25 +0000";
layers = (
{
anchors = (
{
name = bottom;
pos = (268,0);
},
{
name = center;
pos = (268,315);
},
{
name = top;
pos = (268,630);
}
);
guides = (
{
angle = 90;
pos = (1324,0);
}
);
layerId = "B3961A9D-C6DC-4F74-9770-9C992C479D86";
shapes = (
{
closed = 1;
nodes = (
(33,701,l),
(33,592,l),
(349,592,l),
(349,588,l),
(13,109,l),
(13,0,l),
(521,0,l),
(521,109,l),
(175,109,l),
(175,113,l),
(511,592,l),
(511,701,l)
);
}
);
width = 535;
},
{
anchors = (
{
name = bottom;
pos = (224,0);
},
{
name = center;
pos = (224,350);
},
{
name = top;
pos = (224,700);
}
);
guides = (
{
angle = 90;
pos = (435,0);
},
{
angle = 90;
pos = (2,0);
}
);
layerId = "0DC1F6FB-20EC-4E8F-AE98-F98B5FD714DE";
shapes = (
{
closed = 1;
nodes = (
(14,701,l),
(14,665,l),
(393,665,l),
(393,662,l),
(2,36,l),
(2,0,l),
(447,0,l),
(447,36,l),
(44,36,l),
(44,39,l),
(435,665,l),
(435,701,l)
);
}
);
width = 448;
}
);
unicode = 90;
},
{
color = 6;
glyphname = a;
kernLeft = a;
kernRight = a;
lastChange = "2024-03-19 05:01:25 +0000";
layers = (
{
anchors = (
{
name = bottom;
pos = (260,0);
},
{
name = ogonek;
pos = (488,10);
},
{
name = top;
pos = (260,470);
}
);
guides = (
{
pos = (-26,528);
},
{
pos = (-26,-9);
}
);
layerId = "B3961A9D-C6DC-4F74-9770-9C992C479D86";
shapes = (
{
closed = 1;
nodes = (
(472,288,l),
(472,457,o),
(414,537,o),
(242,537,cs),
(181,537,o),
(118,526,o),
(55,499,c),
(55,388,l),
(114,412,o),
(168,426,o),
(229,426,cs),
(316,426,o),
(351,395,o),
(351,294,c),
(351,281,o),
(350,268,o),
(350,256,c),
(350,0,l),
(472,0,l)
);
},
{
closed = 1;
nodes = (
(263,-9,o),
(322,12,o),
(347,94,c),
(365,94,l),
(350,201,l),
(350,98,o),
(275,79,o),
(232,77,cs),
(189,75,o),
(151,78,o),
(147,139,cs),
(144,198,o),
(176,213,o),
(242,221,cs),
(367,236,l),
(367,326,l),
(210,309,ls),
(69,294,o),
(18,235,o),
(25,122,cs),
(31,22,o),
(95,-9,o),
(187,-9,c)
);
}
);
width = 517;
},
{
anchors = (
{
name = bottom;
pos = (216,0);
},
{
name = ogonek;
pos = (406,10);
},
{
name = top;
pos = (216,500);
}
);
guides = (
{
angle = 90;
pos = (20,0);
},
{
pos = (-22,524);
}
);
layerId = "0DC1F6FB-20EC-4E8F-AE98-F98B5FD714DE";
shapes = (
{
closed = 1;
nodes = (
(381,337,l),
(381,428,o),
(364,540,o),
(207,537,cs),
(146,536,o),
(106,529,o),
(50,509,c),
(50,473,l),
(99,493,o),
(151,502,o),
(207,502,cs),
(275,502,o),
(345,491,o),
(345,346,c),
(345,346,o),
(345,268,o),
(345,256,c),
(345,0,l),
(381,0,l)
);
},
{
closed = 1;
nodes = (
(270,-7,o),
(317,12,o),
(342,94,c),
(360,94,l),
(345,217,l),
(345,74,o),
(288,27,o),
(196,25,c),
(103,22,o),
(59,47,o),
(54,131,cs),
(49,212,o),
(88,263,o),
(205,274,cs),
(362,289,l),
(362,324,l),
(205,309,ls),
(58,295,o),
(14,235,o),
(20,122,cs),
(25,34,o),
(71,-12,o),
(194,-9,c)
);
}
);
width = 430;
}
);
unicode = 97;
},
{
color = 6;
glyphname = ae;
lastChange = "2024-03-19 05:14:18 +0000";
layers = (
{
anchors = (
{
name = bottom;
pos = (572,0);
},
{
name = ogonek;
pos = (794,10);
},
{
name = top;
pos = (572,470);
}
);
layerId = "B3961A9D-C6DC-4F74-9770-9C992C479D86";
shapes = (
{
closed = 1;
nodes = (
(462,288,l),
(462,457,o),
(369,537,o),
(224,537,cs),
(163,537,o),
(118,526,o),
(55,499,c),
(55,388,l),
(114,412,o),
(168,426,o),
(229,426,cs),
(316,426,o),
(351,395,o),
(351,294,c),
(351,281,o),
(350,268,o),
(350,256,c),
(350,153,l),
(462,153,l)
);
},
{
closed = 1;
nodes = (
(263,-9,o),
(361,-5,o),
(396,94,c),
(423,94,l),
(350,201,l),
(350,98,o),
(275,79,o),
(232,77,cs),
(189,75,o),
(151,78,o),
(147,139,cs),
(144,198,o),
(176,213,o),
(242,221,cs),
(367,236,l),
(367,326,l),
(210,309,ls),
(69,294,o),
(18,235,o),
(25,122,cs),
(31,22,o),
(95,-9,o),
(187,-9,c)
);
},
{
closed = 1;
nodes = (
(663,-8,o),
(715,-5,o),
(774,23,c),
(774,118,l),
(706,96,o),
(653,92,o),
(618,92,cs),
(508,92,o),
(474,132,o),
(470,231,c),
(784,231,l),
(786,277,ls),
(794,464,o),
(720,538,o),
(584,538,c),
(456,535,o),
(362,464,o),
(362,277,cs),
(362,253,ls),
(362,53,o),
(480,-8,o),
(610,-8,cs)
);
},
{
closed = 1;
nodes = (
(470,313,l),
(475,395,o),
(495,436,o),
(574,438,c),
(654,436,o),
(671,397,o),
(673,313,c)
);
}
);
width = 821;
},
{
anchors = (
{
name = bottom;
pos = (533,0);
},
{
name = ogonek;
pos = (729,10);
},
{
name = top;
pos = (533,500);
}
);
layerId = "0DC1F6FB-20EC-4E8F-AE98-F98B5FD714DE";
shapes = (
{
closed = 1;
nodes = (
(381,337,l),
(381,428,o),
(364,540,o),
(207,537,cs),
(146,536,o),
(106,529,o),
(50,509,c),
(50,473,l),
(99,493,o),
(151,502,o),
(207,502,cs),
(275,502,o),
(345,491,o),
(345,346,c),
(345,346,o),
(345,268,o),
(345,256,c),
(345,121,l),
(381,121,l)
);
},
{
closed = 1;
nodes = (
(270,-7,o),
(337,12,o),
(362,94,c),
(380,94,l),
(345,217,l),
(345,74,o),
(288,27,o),
(196,25,c),
(103,22,o),
(59,47,o),
(54,131,cs),
(49,212,o),
(88,263,o),
(205,274,cs),
(362,289,l),
(362,324,l),
(205,309,ls),
(58,295,o),
(14,235,o),
(20,122,cs),
(25,34,o),
(71,-12,o),
(194,-9,c)
);
},
{
closed = 1;
nodes = (
(624,-9,o),
(680,-1,o),
(716,22,c),
(716,60,l),
(687,41,o),
(633,27,o),
(566,27,cs),
(435,27,o),
(381,69,o),
(381,265,c),
(728,265,l),
(729,277,ls),
(745,473,o),
(674,537,o),
(540,538,cs),
(406,539,o),
(345,474,o),
(345,277,cs),
(345,252,ls),
(345,51,o),
(395,-9,o),
(566,-9,cs)
);
},
{
closed = 1;
nodes = (
(381,298,l),
(384,436,o),
(415,504,o),
(540,502,cs),
(669,500,o),
(703,436,o),
(694,298,c)
);
}
);
width = 756;
}
);
metricLeft = a;
metricRight = e;
unicode = 230;
},
{
color = 6;
glyphname = b;
kernRight = b;
lastChange = "2024-03-19 05:14:45 +0000";
layers = (
{
anchors = (
{
name = bottom;
pos = (296,0);
},
{
name = center;
pos = (296,235);
},
{
name = top;
pos = (296,470);
}
);
layerId = "B3961A9D-C6DC-4F74-9770-9C992C479D86";
shapes = (
{
closed = 1;
nodes = (
(506,-9,o),
(573,61,o),
(573,252,cs),
(573,277,ls),
(573,478,o),
(506,538,o),
(346,538,cs),
(199,538,o),
(166,438,o),
(166,257,cs),
(166,242,ls),
(166,60,o),
(199,-9,o),
(346,-9,cs)
);
},
{
closed = 1;
nodes = (
(187,88,l),
(187,102,l),
(175,102,l),
(175,88,l)
);
},
{
closed = 1;
nodes = (
(179,0,l),
(179,775,l),
(57,775,l),
(57,0,l)
);
},
{
closed = 1;
nodes = (
(187,406,l),
(187,420,l),
(175,420,l),
(175,406,l)
);
},
{
closed = 1;
nodes = (
(207,91,o),
(179,144,o),
(179,259,cs),
(179,270,ls),
(179,386,o),
(206,438,o),
(314,438,cs),
(422,438,o),
(450,386,o),
(450,270,cs),
(450,259,ls),
(450,144,o),
(421,91,o),
(314,91,cs)
);
}
);
width = 593;
},
{
anchors = (
{
name = bottom;
pos = (259,0);
},
{
name = center;
pos = (259,250);
},
{
name = top;
pos = (259,500);
}
);
layerId = "0DC1F6FB-20EC-4E8F-AE98-F98B5FD714DE";
shapes = (
{
closed = 1;
nodes = (
(421,-9,o),
(500,51,o),
(500,252,cs),
(500,277,ls),
(500,478,o),
(421,538,o),
(278,538,cs),
(130,538,o),
(81,477,o),
(81,277,cs),
(81,252,ls),
(81,51,o),
(133,-9,o),
(278,-9,cs)
);
},
{
closed = 1;
nodes = (
(103,105,l),
(103,123,l),
(91,123,l),
(91,105,l)
);
},
{
closed = 1;
nodes = (
(93,0,l),
(93,775,l),
(57,775,l),
(57,0,l)
);
},
{
closed = 1;
nodes = (
(103,409,l),
(103,426,l),
(91,426,l),
(91,409,l)
);
},
{
closed = 1;
nodes = (
(132,27,o),
(93,100,o),
(93,257,cs),
(93,272,ls),
(93,430,o),
(130,502,o),
(278,502,cs),
(425,502,o),
(464,430,o),
(464,272,cs),
(464,257,ls),
(464,100,o),
(423,27,o),
(278,27,cs)
);
}
);
width = 519;
}
);
unicode = 98;
},
{
color = 6;
glyphname = c;
kernLeft = c;
kernRight = c;
lastChange = "2024-03-19 05:01:26 +0000";
layers = (
{
anchors = (
{
name = bottom;
pos = (226,0);
},
{
name = top;
pos = (226,470);
}
);
guides = (
{
angle = 90;
pos = (915,0);
},
{
angle = 90;
pos = (406,0);
}
);
layerId = "B3961A9D-C6DC-4F74-9770-9C992C479D86";
shapes = (
{
closed = 1;
nodes = (
(424,506,l),
(394,525,o),
(327,538,o),
(274,538,cs),
(122,538,o),
(31,477,o),
(31,277,cs),
(31,253,ls),
(31,53,o),
(122,-8,o),
(274,-8,cs),
(327,-8,o),
(394,5,o),
(424,24,c),
(424,119,l),
(391,102,o),
(339,92,o),
(289,92,cs),
(181,92,o),
(154,144,o),
(154,260,cs),
(154,270,ls),
(154,386,o),
(181,438,o),
(289,438,cs),
(339,438,o),
(391,428,o),
(424,411,c)
);
}
);
width = 451;
},
{
anchors = (
{
name = bottom;
pos = (204,0);
},
{
name = top;
pos = (204,500);
}
);
layerId = "0DC1F6FB-20EC-4E8F-AE98-F98B5FD714DE";
shapes = (
{
closed = 1;
nodes = (
(395,505,l),
(362,526,o),
(312,538,o),
(254,538,c),
(106,538,o),
(33,477,o),
(33,277,c),
(33,252,l),
(33,51,o),
(109,-9,o),
(254,-9,c),
(312,-9,o),
(359,5,o),
(395,28,c),
(395,66,l),
(366,50,o),
(321,27,o),
(254,27,c),
(108,27,o),
(69,100,o),
(69,257,c),
(69,272,l),
(69,430,o),
(106,502,o),
(254,502,c),
(322,502,o),
(366,484,o),
(395,466,c)
);
}
);
width = 408;
}
);
unicode = 99;
},
{
color = 6;
glyphname = d;
kernLeft = d;
lastChange = "2024-03-19 05:01:25 +0000";
layers = (
{
anchors = (
{
name = bottom;
pos = (298,0);
},
{
name = center;
pos = (298,235);
},
{
name = top;
pos = (298,1130);
},
{
name = topright;
pos = (602,1130);
}
);
layerId = "B3961A9D-C6DC-4F74-9770-9C992C479D86";
shapes = (
{
closed = 1;
nodes = (
(394,-9,o),
(427,60,o),
(427,242,cs),
(427,257,ls),
(427,438,o),
(394,538,o),
(247,538,cs),
(87,538,o),
(20,478,o),
(20,277,cs),
(20,252,ls),
(20,61,o),
(87,-9,o),
(247,-9,cs)
);
},
{
closed = 1;
nodes = (
(172,91,o),
(143,144,o),
(143,259,cs),
(143,270,ls),
(143,386,o),
(171,438,o),
(279,438,cs),
(387,438,o),
(414,386,o),
(414,270,cs),
(414,259,ls),
(414,144,o),
(386,91,o),
(279,91,cs)
);
},
{
closed = 1;
nodes = (
(418,88,l),
(418,102,l),
(406,102,l),
(406,88,l)
);
},
{
closed = 1;
nodes = (
(536,0,l),
(536,775,l),
(414,775,l),
(414,0,l)
);
},
{
closed = 1;
nodes = (
(418,406,l),
(418,420,l),
(406,420,l),
(406,406,l)
);
}
);
width = 593;
},
{
anchors = (
{
name = bottom;
pos = (261,0);
},
{
name = center;
pos = (261,250);
},
{
name = top;
pos = (261,800);
},
{
name = topright;
pos = (522,800);
}
);
layerId = "0DC1F6FB-20EC-4E8F-AE98-F98B5FD714DE";
shapes = (
{
closed = 1;
nodes = (
(386,-9,o),
(438,51,o),
(438,252,cs),
(438,277,ls),
(438,477,o),
(389,538,o),
(241,538,cs),
(98,538,o),
(19,478,o),
(19,277,cs),
(19,252,ls),
(19,51,o),
(98,-9,o),
(241,-9,cs)
);
},
{
closed = 1;
nodes = (
(96,27,o),
(55,100,o),
(55,257,cs),
(55,272,ls),
(55,430,o),
(94,502,o),
(241,502,cs),
(389,502,o),
(426,430,o),
(426,272,cs),
(426,257,ls),
(426,100,o),
(387,27,o),
(241,27,cs)
);
},
{
closed = 1;
nodes = (
(428,105,l),
(428,123,l),
(416,123,l),
(416,105,l)
);
},
{
closed = 1;
nodes = (
(462,0,l),
(462,775,l),
(426,775,l),
(426,0,l)
);
},
{
closed = 1;
nodes = (
(428,409,l),
(428,426,l),
(416,426,l),
(416,409,l)
);
}
);
width = 519;
}
);
unicode = 100;
},
{
color = 6;
glyphname = e;
kernLeft = e;
kernRight = e;
lastChange = "2024-03-19 05:01:25 +0000";
layers = (
{
anchors = (
{
name = bottom;
pos = (250,0);
},
{
name = ogonek;
pos = (472,10);
},
{
name = top;
pos = (250,470);
}
);
guides = (
{
pos = (-28,356);
}
);
layerId = "B3961A9D-C6DC-4F74-9770-9C992C479D86";
shapes = (
{
closed = 1;
nodes = (
(331,-8,o),
(393,-5,o),
(452,23,c),
(452,118,l),
(384,96,o),
(331,92,o),
(296,92,cs),
(186,92,o),
(152,132,o),
(148,231,c),
(462,231,l),
(464,277,ls),
(472,464,o),
(388,538,o),
(252,538,c),
(124,535,o),
(30,464,o),
(30,277,cs),
(30,253,ls),
(30,53,o),
(126,-8,o),
(278,-8,cs)
);
},
{
closed = 1;
nodes = (
(148,313,l),
(153,395,o),
(173,436,o),
(252,438,c),
(332,436,o),
(349,397,o),
(351,313,c)
);
}
);
width = 499;
},
{
anchors = (
{
name = bottom;
pos = (222,0);
},
{
name = ogonek;
pos = (418,10);
},
{
name = top;
pos = (222,500);
}
);
layerId = "0DC1F6FB-20EC-4E8F-AE98-F98B5FD714DE";
shapes = (
{
closed = 1;
nodes = (
(313,-9,o),
(369,-1,o),
(405,22,c),
(405,60,l),
(376,41,o),
(322,27,o),
(255,27,cs),
(124,27,o),
(70,69,o),
(70,265,c),
(417,265,l),
(418,277,ls),
(434,473,o),
(363,537,o),
(229,538,cs),
(95,539,o),
(34,474,o),
(34,277,cs),
(34,252,ls),
(34,51,o),
(104,-9,o),
(255,-9,cs)
);
},
{
closed = 1;
nodes = (
(70,298,l),
(73,436,o),
(104,504,o),
(229,502,cs),
(358,500,o),
(392,436,o),
(383,298,c)
);
}
);
width = 445;
}
);
unicode = 101;
},
{
color = 6;
glyphname = f;
lastChange = "2024-03-19 05:01:25 +0000";
layers = (
{
anchors = (
{
name = bottom;
pos = (193,0);
},
{
name = top;
pos = (193,1130);
}
);
layerId = "B3961A9D-C6DC-4F74-9770-9C992C479D86";
shapes = (
{
closed = 1;
nodes = (
(99,0,l),
(221,0,l),
(221,528,l),
(99,528,l)
);
},
{
closed = 1;
nodes = (
(285,752,l),
(148,755,o),
(99,713,o),
(99,545,c),
(99,412,l),
(221,412,l),
(221,538,l),
(221,629,o),
(226,636,o),
(317,636,c),
(339,636,l),
(339,751,l)
);
},
{
closed = 1;
nodes = (
(3,517,l),
(3,415,l),
(339,415,l),
(339,517,l)
);
}
);
width = 355;
},
{
anchors = (
{
name = bottom;
pos = (144,0);
},
{
name = top;
pos = (144,800);
}
);
layerId = "0DC1F6FB-20EC-4E8F-AE98-F98B5FD714DE";
shapes = (
{
closed = 1;
nodes = (
(92,0,l),
(128,0,l),
(128,528,l),
(92,528,l)
);
},
{
closed = 1;
nodes = (
(248,751,l),
(124,751,o),
(92,716,o),
(92,585,c),
(92,412,l),
(128,412,l),
(128,578,ls),
(128,653,o),
(121,720,o),
(239,716,c),
(276,716,l),
(276,751,l)
);
},
{
closed = 1;
nodes = (
(-4,530,l),
(-4,498,l),
(276,498,l),
(276,530,l)
);
}
);
width = 279;
}
);
unicode = 102;
},
{
color = 6;
glyphname = g;
kernLeft = g;
kernRight = g;
lastChange = "2024-03-19 05:01:24 +0000";
layers = (
{
anchors = (
{
name = bottom;
pos = (309,-532);
},
{
name = top;
pos = (309,470);
}
);
guides = (
{
pos = (-28,538);
},
{
angle = 90;
pos = (1631,0);
},
{
angle = 90;
pos = (1003,0);
},
{
angle = 90;
pos = (557,0);
},
{
angle = 90;
pos = (33,0);
},
{
angle = 90;
pos = (1704,0);
},
{
angle = 90;
pos = (612,0);
}
);
layerId = "B3961A9D-C6DC-4F74-9770-9C992C479D86";
shapes = (
{
closed = 1;
nodes = (
(552,317,l),
(552,387,o),
(523,431,o),
(476,448,c),
(476,452,l),
(599,452,l),
(599,549,l),
(295,539,l),
(141,539,o),
(40,497,o),
(39,324,c),
(39,322,l),
(40,194,o),
(90,141,o),
(173,120,c),
(173,119,l),
(125,115,o),
(84,97,o),
(84,44,c),
(84,3,o),
(107,-13,o),
(150,-21,c),
(150,-25,l),
(92,-30,o),
(14,-36,o),
(14,-152,c),
(19,-286,o),
(173,-305,o),
(286,-305,c),
(459,-303,o),
(587,-279,o),
(587,-122,c),
(587,5,o),
(491,24,o),
(395,28,c),
(331,33,o),
(202,32,o),
(205,83,c),
(205,97,o),
(213,106,o),
(225,112,c),
(246,110,o),
(270,109,o),
(295,109,c),
(449,109,o),
(557,141,o),
(552,316,c)
);
},
{
closed = 1;
nodes = (
(165,390,o),
(186,452,o),
(295,452,c),
(413,452,o),
(426,390,o),
(427,324,c),
(426,258,o),
(413,196,o),
(295,196,c),
(186,196,o),
(165,258,o),
(164,324,c)
);
},
{
closed = 1;
nodes = (
(236,-196,o),
(136,-196,o),
(136,-124,c),
(136,-72,o),
(190,-56,o),
(205,-48,c),
(372,-64,l),
(414,-69,o),
(463,-74,o),
(463,-124,c),
(463,-199,o),
(346,-196,o),
(272,-196,c)
);
}
);
width = 614;
},
{
anchors = (
{
name = bottom;
pos = (257,-200);
},
{
name = top;
pos = (257,500);
}
);
guides = (
{
angle = 90;
pos = (472,0);
},
{
angle = 90;
pos = (39,0);
},
{
angle = 90;
pos = (516,0);
}
);
layerId = "0DC1F6FB-20EC-4E8F-AE98-F98B5FD714DE";
shapes = (
{
closed = 1;
nodes = (
(473,306,l),
(473,384,o),
(459,472,o),
(391,500,c),
(391,504,l),
(519,504,l),
(519,542,l),
(254,537,l),
(132,537,o),
(39,494,o),
(38,314,c),
(38,313,l),
(38,201,o),
(75,143,o),
(128,116,c),
(128,113,l),
(80,107,o),
(74,80,o),
(74,63,c),
(74,31,o),
(98,10,o),
(126,7,c),
(126,3,l),
(64,-1,o),
(19,-40,o),
(19,-115,c),
(17,-227,o),
(132,-249,o),
(250,-249,c),
(428,-247,o),
(511,-219,o),
(511,-116,c),
(511,-8,o),
(465,9,o),
(270,14,c),
(201,17,o),
(110,20,o),
(110,67,c),
(110,90,o),
(132,100,o),
(155,104,c),
(186,95,o),
(220,91,o),
(254,91,c),
(366,91,o),
(478,124,o),
(473,305,c)
);
},
{
closed = 1;
nodes = (
(76,408,o),
(94,499,o),
(254,499,c),
(417,499,o),
(435,408,o),
(436,312,c),
(435,217,o),
(417,126,o),
(254,126,c),
(94,126,o),
(76,217,o),
(75,312,c)
);
},
{
closed = 1;
nodes = (
(199,-213,o),
(56,-219,o),
(56,-114,c),
(56,-33,o),
(135,-22,o),
(156,-13,c),
(384,-27,l),
(442,-34,o),
(474,-45,o),
(474,-114,c),
(474,-209,o),
(348,-213,o),
(248,-213,c)
);
}
);
width = 532;
}
);
unicode = 103;
},
{
color = 6;
glyphname = h;
kernLeft = h;
kernRight = h;
lastChange = "2024-03-19 05:01:25 +0000";
layers = (
{
anchors = (
{
name = bottom;
pos = (273,0);
},
{
name = center;
pos = (273,565);
},
{
name = top;
pos = (273,1130);
}
);
layerId = "B3961A9D-C6DC-4F74-9770-9C992C479D86";
shapes = (
{
closed = 1;
nodes = (
(58,0,l),
(180,0,l),
(180,368,l),
(180,775,l),
(58,775,l)
);
},
{
closed = 1;
nodes = (
(394,0,l),
(516,0,l),
(516,324,l),
(394,352,l)
);
},
{
closed = 1;
nodes = (
(180,278,l),
(180,398,o),
(214,427,o),
(291,427,cs),
(368,427,o),
(394,387,o),
(394,278,c),
(516,324,l),
(516,470,o),
(454,526,o),
(339,526,cs),
(243,526,o),
(180,490,o),
(180,368,c)
);
},
{
closed = 1;
nodes = (
(153,384,l),
(182,363,l),
(191,417,l),
(153,417,l)
);
}
);
width = 545;
},
{
anchors = (
{
name = bottom;
pos = (235,0);
},
{
name = center;
pos = (235,400);
},
{
name = top;
pos = (235,800);
}
);
guides = (
{
angle = 90;
pos = (250,0);
}
);
layerId = "0DC1F6FB-20EC-4E8F-AE98-F98B5FD714DE";
shapes = (
{
closed = 1;
nodes = (
(58,0,l),
(94,0,l),
(94,368,l),
(94,775,l),
(58,775,l)
);
},
{
closed = 1;
nodes = (
(404,0,l),
(440,0,l),
(440,338,l),
(404,289,l)
);
},
{
closed = 1;
nodes = (
(94,278,l),
(94,398,o),
(116,502,o),
(254,502,cs),
(395,502,o),
(402,411,o),
(404,289,c),
(440,333,l),
(436,491,o),
(369,538,o),
(254,538,cs),
(158,538,o),
(94,490,o),
(94,368,c)
);
},
{
closed = 1;
nodes = (
(67,384,l),
(96,363,l),
(105,417,l),
(67,417,l)
);
}
);
width = 469;
}
);
unicode = 104;
},
{
color = 6;
glyphname = i;
kernLeft = i;
kernRight = i;
lastChange = "2024-03-19 05:01:25 +0000";
layers = (
{
anchors = (
{
name = bottom;
pos = (112,0);
}
);
layerId = "B3961A9D-C6DC-4F74-9770-9C992C479D86";
shapes = (
{
closed = 1;
nodes = (
(173,0,l),
(173,528,l),
(51,528,l),
(51,0,l)
);
},
{
closed = 1;
nodes = (
(147,630,o),
(174,637,o),
(174,692,cs),
(174,747,o),
(147,754,o),
(112,754,cs),
(77,754,o),
(50,747,o),
(50,692,cs),
(50,637,o),
(77,630,o),
(112,630,cs)
);
}
);
width = 224;
},
{
anchors = (
{
name = bottom;
pos = (70,0);
}
);
layerId = "0DC1F6FB-20EC-4E8F-AE98-F98B5FD714DE";
shapes = (
{
closed = 1;
nodes = (
(88,0,l),
(88,528,l),
(52,528,l),
(52,0,l)
);
},
{
closed = 1;
nodes = (
(83,656,o),
(93,659,o),
(93,679,cs),
(93,699,o),
(83,702,o),
(70,702,cs),
(57,702,o),
(47,699,o),
(47,679,cs),
(47,659,o),
(57,656,o),
(70,656,cs)
);
}
);
width = 140;
}
);
unicode = 105;
},
{
color = 6;
glyphname = idotless;
lastChange = "2024-03-19 05:01:24 +0000";
layers = (
{
anchors = (
{
name = bottom;
pos = (119,0);
},
{
name = ogonek;
pos = (237,10);
},
{
name = top;
pos = (119,470);
}
);
layerId = "B3961A9D-C6DC-4F74-9770-9C992C479D86";
shapes = (
{
closed = 1;
nodes = (
(180,0,l),
(180,528,l),
(58,528,l),
(58,0,l)
);
}
);
width = 238;
},
{
anchors = (
{
name = bottom;
pos = (76,0);
},
{
name = ogonek;
pos = (154,10);
},
{
name = top;
pos = (76,500);
}
);
layerId = "0DC1F6FB-20EC-4E8F-AE98-F98B5FD714DE";
shapes = (
{
closed = 1;
nodes = (
(94,0,l),
(94,528,l),
(58,528,l),
(58,0,l)
);
}
);
width = 152;
}
);
unicode = 305;
},
{
color = 6;
glyphname = j;
kernLeft = j;
lastChange = "2024-03-19 05:01:24 +0000";
layers = (
{
layerId = "B3961A9D-C6DC-4F74-9770-9C992C479D86";
shapes = (
{
closed = 1;
nodes = (
(53,-204,ls),
(190,-204,o),
(239,-165,o),
(239,3,cs),
(239,170,l),
(117,170,l),
(117,10,ls),
(117,-81,o),
(112,-88,o),
(21,-88,cs),
(-1,-88,l),
(-1,-204,l)
);
},
{
closed = 1;
nodes = (
(239,154,l),
(239,528,l),
(117,528,l),
(117,154,l)
);
},
{
closed = 1;
nodes = (
(213,630,o),
(240,637,o),
(240,692,cs),
(240,747,o),
(213,754,o),
(178,754,cs),
(143,754,o),
(116,747,o),
(116,692,cs),
(116,637,o),
(143,630,o),
(178,630,cs)
);
}
);
width = 287;
},
{
layerId = "0DC1F6FB-20EC-4E8F-AE98-F98B5FD714DE";
shapes = (
{
closed = 1;
nodes = (
(21,-84,ls),
(63,-84,o),
(107,-76,o),
(107,-14,cs),
(107,170,l),
(71,170,l),
(71,16,ls),
(71,-37,o),
(66,-46,o),
(21,-48,c),
(-6,-48,l),
(-6,-84,l)
);
},
{
closed = 1;
nodes = (
(107,165,l),
(107,528,l),
(71,528,l),
(71,165,l)
);
},
{
closed = 1;
nodes = (
(102,656,o),
(112,659,o),
(112,679,cs),
(112,699,o),
(102,702,o),
(89,702,cs),
(76,702,o),
(66,699,o),
(66,679,cs),
(66,659,o),
(76,656,o),
(89,656,cs)
);
}
);
width = 158;
}
);
unicode = 106;
},
{
color = 6;
glyphname = jdotless;
lastChange = "2024-03-19 05:17:17 +0000";
layers = (
{
layerId = "B3961A9D-C6DC-4F74-9770-9C992C479D86";
shapes = (
{
closed = 1;
nodes = (
(56,-204,ls),
(193,-204,o),
(242,-165,o),
(242,3,cs),
(242,170,l),
(120,170,l),
(120,10,ls),
(120,-81,o),
(115,-88,o),
(24,-88,cs),
(2,-88,l),
(2,-204,l)
);
},
{
closed = 1;
nodes = (
(242,154,l),
(242,528,l),
(120,528,l),
(120,154,l)
);
}
);
width = 294;
},
{
layerId = "0DC1F6FB-20EC-4E8F-AE98-F98B5FD714DE";
shapes = (
{
closed = 1;
nodes = (
(21,-84,ls),
(63,-84,o),
(107,-76,o),
(107,-14,cs),
(107,170,l),
(71,170,l),
(71,16,ls),
(71,-37,o),
(66,-46,o),
(21,-48,c),
(-6,-48,l),
(-6,-84,l)
);
},
{
closed = 1;
nodes = (
(107,165,l),
(107,528,l),
(71,528,l),
(71,165,l)
);
}
);
width = 153;
}
);
metricLeft = j;
metricRight = j;
unicode = 567;
},
{
color = 6;
glyphname = jacute;
lastChange = "2024-03-19 05:36:24 +0000";
layers = (
{
layerId = "B3961A9D-C6DC-4F74-9770-9C992C479D86";
shapes = (
{
closed = 1;
nodes = (
(53,-204,ls),
(190,-204,o),
(239,-165,o),
(239,3,cs),
(239,528,l),
(117,528,l),
(117,10,ls),
(117,-81,o),
(112,-88,o),
(21,-88,cs),
(-1,-88,l),
(-1,-204,l)
);
},
{
alignment = -1;
pos = (47,62);
ref = acutecomb;
scale = (0.833,0.696);
}
);
width = 286;
},
{
layerId = "0DC1F6FB-20EC-4E8F-AE98-F98B5FD714DE";
shapes = (
{
closed = 1;
nodes = (
(21,-84,ls),
(63,-84,o),
(107,-76,o),
(107,-14,cs),
(107,528,l),
(71,528,l),
(71,16,ls),
(71,-37,o),
(66,-46,o),
(21,-48,c),
(-6,-48,l),
(-6,-84,l)
);
},
{
alignment = -1;
pos = (28,16);
ref = acutecomb;
scale = (0.911,0.911);
}
);
width = 153;
}
);
metricLeft = j;
metricRight = j;
},
{
color = 6;
glyphname = k;
kernRight = k;
lastChange = "2024-03-19 05:01:25 +0000";
layers = (
{
anchors = (
{
name = bottom;
pos = (254,0);
},
{
name = top;
pos = (254,1130);
}
);
guides = (
{
pos = (-28,528);
},
{
angle = 90;
pos = (506,0);
}
);
layerId = "B3961A9D-C6DC-4F74-9770-9C992C479D86";
shapes = (
{
closed = 1;
nodes = (
(58,0,l),
(180,0,l),
(180,233,l),
(227,233,l),
(372,0,l),
(509,0,l),
(325,283,l),
(500,528,l),
(360,528,l),
(227,333,l),
(180,333,l),
(180,775,l),
(58,775,l)
);
}
);
width = 508;
},
{
anchors = (
{
name = bottom;
pos = (194,0);
},
{
name = top;
pos = (194,800);
}
);
layerId = "0DC1F6FB-20EC-4E8F-AE98-F98B5FD714DE";
shapes = (
{
closed = 1;
nodes = (
(58,0,l),
(94,0,l),
(94,279,l),
(161,279,l),
(348,0,l),
(393,0,l),
(191,296,l),
(386,528,l),
(338,528,l),
(161,315,l),
(94,315,l),
(94,775,l),
(58,775,l)
);
}
);
width = 391;
}
);
unicode = 107;
},
{
color = 6;
glyphname = l;
kernLeft = l;
lastChange = "2024-03-19 05:01:26 +0000";
layers = (
{
anchors = (
{
name = bottom;
pos = (119,0);
},
{
name = center;
pos = (119,565);
},
{
name = top;
pos = (119,1130);
},
{
name = topright;
pos = (246,1130);
}
);
layerId = "B3961A9D-C6DC-4F74-9770-9C992C479D86";
shapes = (
{
closed = 1;
nodes = (
(58,0,l),
(180,0,l),
(180,775,l),
(58,775,l)
);
}
);
width = 238;
},
{
anchors = (
{
name = bottom;
pos = (76,0);
},
{
name = center;
pos = (76,400);
},
{
name = top;
pos = (76,800);
},
{
name = topright;
pos = (154,800);
}
);
layerId = "0DC1F6FB-20EC-4E8F-AE98-F98B5FD714DE";
shapes = (
{
closed = 1;
nodes = (
(58,0,l),
(94,0,l),
(94,775,l),
(58,775,l)
);
}
);
width = 152;
}
);
unicode = 108;
},
{
color = 6;
glyphname = m;
kernLeft = m;
kernRight = m;
lastChange = "2024-03-19 05:01:25 +0000";
layers = (
{
anchors = (
{
name = bottom;
pos = (430,0);
},
{
name = top;
pos = (430,470);
}
);
layerId = "B3961A9D-C6DC-4F74-9770-9C992C479D86";
shapes = (
{
closed = 1;
nodes = (
(495,278,ls),
(495,398,o),
(517,427,o),
(594,427,cs),
(671,427,o),
(689,387,o),
(689,278,cs),
(689,0,l),
(811,0,l),
(811,324,ls),
(811,460,o),
(764,526,o),
(649,526,cs),
(567,526,o),
(505,500,o),
(488,417,c),
(485,417,l),
(465,490,o),
(418,526,o),
(333,526,cs),
(251,526,o),
(197,500,o),
(183,417,c),
(179,417,l),
(179,515,l),
(57,515,l),
(57,0,l),
(179,0,l),
(179,278,ls),
(179,398,o),
(201,427,o),
(278,427,cs),
(355,427,o),
(373,387,o),
(373,278,cs),
(373,0,l),
(495,0,l)
);
}
);
width = 860;
},
{
anchors = (
{
name = bottom;
pos = (387,0);
},
{
name = top;
pos = (387,500);
}
);
guides = (
{
pos = (-23,538);
},
{
pos = (-23,528);
}
);
layerId = "0DC1F6FB-20EC-4E8F-AE98-F98B5FD714DE";
shapes = (
{
closed = 1;
nodes = (
(409,257,ls),
(409,450,o),
(441,502,o),
(552,502,cs),
(687,502,o),
(689,418,o),
(689,267,cs),
(689,0,l),
(725,0,l),
(725,336,ls),
(725,471,o),
(678,538,o),
(563,538,cs),
(481,538,o),
(412,512,o),
(398,429,c),
(394,429,l),
(378,502,o),
(332,538,o),
(247,538,cs),
(165,538,o),
(111,520,o),
(97,429,c),
(93,429,l),
(93,528,l),
(57,528,l),
(57,0,l),
(93,0,l),
(93,267,ls),
(93,436,o),
(125,502,o),
(236,502,cs),
(371,502,o),
(373,408,o),
(373,267,cs),
(373,0,l),
(409,0,l)
);
}
);
width = 774;
}
);
unicode = 109;
},
{
color = 6;
glyphname = n;
kernLeft = m;
kernRight = m;
lastChange = "2024-03-19 05:01:25 +0000";
layers = (
{
anchors = (
{
name = bottom;
pos = (282,0);
},
{
name = top;
pos = (282,470);
}
);
guides = (
{
pos = (-28,515);
}
);
layerId = "B3961A9D-C6DC-4F74-9770-9C992C479D86";
shapes = (
{
closed = 1;
nodes = (
(57,0,l),
(179,0,l),
(179,368,l),
(179,515,l),
(57,515,l)
);
},
{
closed = 1;
nodes = (
(393,0,l),
(515,0,l),
(515,324,l),
(393,352,l)
);
},
{
closed = 1;
nodes = (
(179,278,l),
(179,398,o),
(213,427,o),
(290,427,cs),
(367,427,o),
(393,387,o),
(393,278,c),
(515,324,l),
(515,470,o),
(453,526,o),
(338,526,cs),
(242,526,o),
(179,490,o),
(179,368,c)
);
},
{
closed = 1;
nodes = (
(152,384,l),
(181,363,l),
(190,417,l),
(152,417,l)
);
}
);
width = 563;
},
{
anchors = (
{
name = bottom;
pos = (244,0);
},
{
name = top;
pos = (244,500);
}
);
guides = (
{
pos = (-23,538);
},
{
pos = (-23,528);
}
);
layerId = "0DC1F6FB-20EC-4E8F-AE98-F98B5FD714DE";
shapes = (
{
closed = 1;
nodes = (
(57,0,l),
(93,0,l),
(93,368,l),
(93,528,l),
(57,528,l)
);
},
{
closed = 1;
nodes = (
(403,0,l),
(439,0,l),
(439,338,l),
(403,289,l)
);
},
{
closed = 1;
nodes = (
(93,278,l),
(93,398,o),
(115,502,o),
(253,502,cs),
(394,502,o),
(401,411,o),
(403,289,c),
(439,333,l),
(435,491,o),
(371,538,o),
(256,538,cs),
(149,538,o),
(93,490,o),
(93,368,c)
);
},
{
closed = 1;
nodes = (
(66,384,l),
(95,363,l),
(104,417,l),
(66,417,l)
);
}
);
width = 487;
}
);
unicode = 110;
},
{
color = 6;
glyphname = o;
kernLeft = o;
kernRight = o;
lastChange = "2024-03-19 05:01:25 +0000";
layers = (
{
anchors = (
{
name = bottom;
pos = (289,0);
},
{
name = center;
pos = (289,235);
},
{
name = ogonek;
pos = (542,10);
},
{
name = top;
pos = (289,470);
},
{
name = topright;
pos = (585,470);
}
);
guides = (
{
pos = (-28,538);
}
);
layerId = "B3961A9D-C6DC-4F74-9770-9C992C479D86";
shapes = (
{
closed = 1;
nodes = (
(448,-9,o),
(547,51,o),
(547,252,c),
(547,277,l),
(547,478,o),
(448,538,o),
(288,538,c),
(128,538,o),
(30,477,o),
(30,277,c),
(30,252,l),
(30,51,o),
(128,-9,o),
(288,-9,c)
);
},
{
closed = 1;
nodes = (
(181,91,o),
(153,144,o),
(153,259,c),
(153,270,l),
(153,386,o),
(180,438,o),
(288,438,c),
(396,438,o),
(424,386,o),
(424,270,c),
(424,259,l),
(424,144,o),
(395,91,o),
(288,91,c)
);
}
);
width = 577;
},
{
anchors = (
{
name = bottom;
pos = (255,0);
},
{
name = center;
pos = (255,250);
},
{
name = ogonek;
pos = (476,10);
},
{
name = top;
pos = (255,500);
},
{
name = topright;
pos = (511,500);
}
);
guides = (
{
pos = (-22,538);
}
);
layerId = "0DC1F6FB-20EC-4E8F-AE98-F98B5FD714DE";
shapes = (
{
closed = 1;
nodes = (
(397,-9,o),
(476,51,o),
(476,252,c),
(476,277,l),
(476,478,o),
(397,538,o),
(254,538,c),
(106,538,o),
(33,477,o),
(33,277,c),
(33,252,l),
(33,51,o),
(109,-9,o),
(254,-9,c)
);
},
{
closed = 1;
nodes = (
(108,27,o),
(69,100,o),
(69,257,c),
(69,272,l),
(69,430,o),
(106,502,o),
(254,502,c),
(401,502,o),
(440,430,o),
(440,272,c),
(440,257,l),
(440,100,o),
(399,27,o),
(254,27,c)
);
}
);
width = 508;
}
);
unicode = 111;
},
{
color = 6;
glyphname = oslash;
lastChange = "2024-03-19 05:37:56 +0000";
layers = (
{
anchors = (
{
name = bottom;
pos = (292,0);
},
{
name = center;
pos = (292,235);
},
{
name = ogonek;
pos = (545,10);
},
{
name = top;
pos = (292,470);
},
{
name = topright;
pos = (588,470);
}
);
layerId = "B3961A9D-C6DC-4F74-9770-9C992C479D86";
shapes = (
{
closed = 1;
nodes = (
(448,-9,o),
(547,51,o),
(547,252,c),
(547,277,l),
(547,478,o),
(448,538,o),
(288,538,c),
(128,538,o),
(30,477,o),
(30,277,c),
(30,252,l),
(30,51,o),
(128,-9,o),
(288,-9,c)
);
},
{
closed = 1;
nodes = (
(181,91,o),
(153,144,o),
(153,259,c),
(153,270,l),
(153,386,o),
(180,438,o),
(288,438,c),
(396,438,o),
(424,386,o),
(424,270,c),
(424,259,l),
(424,144,o),
(395,91,o),
(288,91,c)
);
},
{
closed = 1;
nodes = (
(403,706,l),
(59,-169,l),
(169,-169,l),
(513,706,l)
);
}
);
width = 577;
},
{
anchors = (
{
name = bottom;
pos = (255,0);
},
{
name = center;
pos = (255,250);
},
{
name = ogonek;
pos = (476,10);
},
{
name = top;
pos = (255,500);
},
{
name = topright;
pos = (511,500);
}
);
layerId = "0DC1F6FB-20EC-4E8F-AE98-F98B5FD714DE";
shapes = (
{
closed = 1;
nodes = (
(397,-9,o),
(476,51,o),
(476,252,c),
(476,277,l),
(476,478,o),
(397,538,o),
(254,538,c),
(106,538,o),
(33,477,o),
(33,277,c),
(33,252,l),
(33,51,o),
(109,-9,o),
(254,-9,c)
);
},
{
closed = 1;
nodes = (
(108,27,o),
(69,100,o),
(69,257,c),
(69,272,l),
(69,430,o),
(106,502,o),
(254,502,c),
(401,502,o),
(440,430,o),
(440,272,c),
(440,257,l),
(440,100,o),
(399,27,o),
(254,27,c)
);
},
{
closed = 1;
nodes = (
(422,684,l),
(56,-159,l),
(95,-159,l),
(461,684,l)
);
}
);
width = 508;
}
);
metricLeft = o;
metricRight = o;
unicode = 248;
},
{
color = 6;
glyphname = oe;
lastChange = "2024-03-19 05:18:25 +0000";
layers = (
{
layerId = "B3961A9D-C6DC-4F74-9770-9C992C479D86";
shapes = (
{
closed = 1;
nodes = (
(448,-9,o),
(517,51,o),
(517,252,c),
(517,277,l),
(517,478,o),
(448,538,o),
(288,538,c),
(128,538,o),
(30,477,o),
(30,277,c),
(30,252,l),
(30,51,o),
(128,-9,o),
(288,-9,c)
);
},
{
closed = 1;
nodes = (
(181,91,o),
(153,144,o),
(153,259,c),
(153,270,l),
(153,386,o),
(180,438,o),
(288,438,c),
(396,438,o),
(424,386,o),
(424,270,c),
(424,259,l),
(424,144,o),
(395,91,o),
(288,91,c)
);
},
{
closed = 1;
nodes = (
(731,-8,o),
(787,-5,o),
(846,23,c),
(846,118,l),
(778,96,o),
(725,92,o),
(690,92,cs),
(580,92,o),
(546,132,o),
(542,231,c),
(856,231,l),
(858,277,ls),
(866,464,o),
(788,538,o),
(652,538,c),
(524,535,o),
(430,464,o),
(430,277,cs),
(430,253,ls),
(430,53,o),
(526,-8,o),
(678,-8,cs)
);
},
{
closed = 1;
nodes = (
(542,313,l),
(547,395,o),
(567,436,o),
(646,438,c),
(726,436,o),
(743,397,o),
(745,313,c)
);
}
);
width = 893;
},
{
layerId = "0DC1F6FB-20EC-4E8F-AE98-F98B5FD714DE";
shapes = (
{
closed = 1;
nodes = (
(397,-9,o),
(475,51,o),
(475,252,c),
(475,277,l),
(475,478,o),
(397,538,o),
(254,538,c),
(106,538,o),
(33,477,o),
(33,277,c),
(33,252,l),
(33,51,o),
(109,-9,o),
(254,-9,c)
);
},
{
closed = 1;
nodes = (
(108,27,o),
(69,100,o),
(69,257,c),
(69,272,l),
(69,430,o),
(106,502,o),
(254,502,c),
(401,502,o),
(440,430,o),
(440,272,c),
(440,257,l),
(440,100,o),
(399,27,o),
(254,27,c)
);
},
{
closed = 1;
nodes = (
(719,-9,o),
(775,-1,o),
(811,22,c),
(811,60,l),
(782,41,o),
(728,27,o),
(661,27,cs),
(530,27,o),
(476,69,o),
(476,265,c),
(823,265,l),
(824,277,ls),
(840,473,o),
(769,537,o),
(635,538,cs),
(501,539,o),
(440,474,o),
(440,277,cs),
(440,252,ls),
(440,51,o),
(510,-9,o),
(661,-9,cs)
);
},
{
closed = 1;
nodes = (
(476,298,l),
(479,436,o),
(510,504,o),
(635,502,cs),
(764,500,o),
(798,436,o),
(789,298,c)
);
}
);
width = 851;
}
);
metricLeft = o;
metricRight = e;
unicode = 339;
},
{
color = 6;
glyphname = p;
lastChange = "2024-03-19 05:01:26 +0000";
layers = (
{
anchors = (
{
name = bottom;
pos = (296,0);
},
{
name = top;
pos = (296,470);
}
);
layerId = "B3961A9D-C6DC-4F74-9770-9C992C479D86";
shapes = (
{
closed = 1;
nodes = (
(506,-10,o),
(573,50,o),
(573,251,cs),
(573,276,ls),
(573,467,o),
(506,537,o),
(346,537,cs),
(252,537,o),
(205,509,o),
(183,441,c),
(179,441,l),
(179,528,l),
(57,528,l),
(57,-247,l),
(179,-247,l),
(179,107,l),
(183,107,l),
(205,31,o),
(252,-10,o),
(346,-10,cs)
);
},
{
closed = 1;
nodes = (
(206,90,o),
(179,142,o),
(179,258,cs),
(179,269,ls),
(179,384,o),
(207,437,o),
(314,437,cs),
(421,437,o),
(450,384,o),
(450,269,cs),
(450,258,ls),
(450,142,o),
(422,90,o),
(314,90,cs)
);
}
);
width = 592;
},
{
anchors = (
{
name = bottom;
pos = (259,0);
},
{
name = top;
pos = (259,500);
}
);
guides = (
{
pos = (-23,538);
},
{
pos = (-23,528);
},
{
pos = (-23,538);
},
{
pos = (-23,528);
}
);
layerId = "0DC1F6FB-20EC-4E8F-AE98-F98B5FD714DE";
shapes = (
{
closed = 1;
nodes = (
(421,-9,o),
(500,51,o),
(500,252,cs),
(500,277,ls),
(500,478,o),
(421,538,o),
(278,538,cs),
(177,538,o),
(121,509,o),
(97,424,c),
(93,424,l),
(93,528,l),
(57,528,l),
(57,-246,l),
(93,-246,l),
(93,103,l),
(97,103,l),
(121,20,o),
(176,-9,o),
(278,-9,cs)
);
},
{
closed = 1;
nodes = (
(130,27,o),
(93,99,o),
(93,257,cs),
(93,272,ls),
(93,429,o),
(132,502,o),
(278,502,cs),
(423,502,o),
(464,429,o),
(464,272,cs),
(464,257,ls),
(464,99,o),
(425,27,o),
(278,27,cs)
);
}
);
width = 519;
}
);
unicode = 112;
},
{
color = 6;
glyphname = thorn;
lastChange = "2024-03-19 05:38:17 +0000";
layers = (
{
layerId = "B3961A9D-C6DC-4F74-9770-9C992C479D86";
shapes = (
{
closed = 1;
nodes = (
(506,-10,o),
(573,50,o),
(573,251,cs),
(573,276,ls),
(573,467,o),
(506,537,o),
(346,537,cs),
(252,537,o),
(205,509,o),
(183,441,c),
(179,441,l),
(179,818,l),
(57,818,l),
(57,-247,l),
(179,-247,l),
(179,107,l),
(183,107,l),
(205,31,o),
(252,-10,o),
(346,-10,cs)
);
},
{
closed = 1;
nodes = (
(206,90,o),
(179,142,o),
(179,258,cs),
(179,269,ls),
(179,384,o),
(207,437,o),
(314,437,cs),
(421,437,o),
(450,384,o),
(450,269,cs),
(450,258,ls),
(450,142,o),
(422,90,o),
(314,90,cs)
);
}
);
width = 592;
},
{
layerId = "0DC1F6FB-20EC-4E8F-AE98-F98B5FD714DE";
shapes = (
{
closed = 1;
nodes = (
(421,-9,o),
(500,51,o),
(500,252,cs),
(500,277,ls),
(500,478,o),
(421,538,o),
(278,538,cs),
(177,538,o),
(121,509,o),
(97,424,c),
(93,424,l),
(93,728,l),
(57,728,l),
(57,-246,l),
(93,-246,l),
(93,103,l),
(97,103,l),
(121,20,o),
(176,-9,o),
(278,-9,cs)
);
},
{
closed = 1;
nodes = (
(130,27,o),
(93,99,o),
(93,257,cs),
(93,272,ls),
(93,429,o),
(132,502,o),
(278,502,cs),
(423,502,o),
(464,429,o),
(464,272,cs),
(464,257,ls),
(464,99,o),
(425,27,o),
(278,27,cs)
);
}
);
width = 519;
}
);
metricLeft = p;
metricRight = p;
unicode = 254;
},
{
color = 6;
glyphname = q;
lastChange = "2024-03-19 05:01:24 +0000";
layers = (
{
anchors = (
{
name = bottom;
pos = (297,0);
},
{
name = top;
pos = (297,470);
}
);
layerId = "B3961A9D-C6DC-4F74-9770-9C992C479D86";
shapes = (
{
closed = 1;
nodes = (
(340,-10,o),
(387,31,o),
(409,107,c),
(413,107,l),
(413,-247,l),
(535,-247,l),
(535,528,l),
(413,528,l),
(413,441,l),
(409,441,l),
(387,509,o),
(340,537,o),
(246,537,cs),
(86,537,o),
(19,467,o),
(19,276,cs),
(19,251,ls),
(19,50,o),
(86,-10,o),
(246,-10,cs)
);
},
{
closed = 1;
nodes = (
(170,90,o),
(142,142,o),
(142,258,cs),
(142,269,ls),
(142,384,o),
(171,437,o),
(278,437,cs),
(385,437,o),
(413,384,o),
(413,269,cs),
(413,258,ls),
(413,142,o),
(386,90,o),
(278,90,cs)
);
}
);
width = 593;
},
{
anchors = (
{
name = bottom;
pos = (261,0);
},
{
name = top;
pos = (261,500);
}
);
guides = (
{
pos = (-21,538);
},
{
pos = (-21,528);
}
);
layerId = "0DC1F6FB-20EC-4E8F-AE98-F98B5FD714DE";
shapes = (
{
closed = 1;
nodes = (
(343,-9,o),
(398,20,o),
(422,103,c),
(426,103,l),
(426,-246,l),
(462,-246,l),
(462,528,l),
(426,528,l),
(426,424,l),
(422,424,l),
(398,509,o),
(342,538,o),
(241,538,cs),
(98,538,o),
(19,478,o),
(19,277,cs),
(19,252,ls),
(19,51,o),
(98,-9,o),
(241,-9,cs)
);
},
{
closed = 1;
nodes = (
(94,27,o),
(55,99,o),
(55,257,cs),
(55,272,ls),
(55,429,o),
(96,502,o),
(241,502,cs),
(387,502,o),
(426,429,o),
(426,272,cs),
(426,257,ls),
(426,99,o),
(389,27,o),
(241,27,cs)
);
}
);
width = 519;
}
);
unicode = 113;
},
{
color = 6;
glyphname = r;
kernLeft = r;
kernRight = r;
lastChange = "2024-03-19 05:01:25 +0000";
layers = (
{
anchors = (
{
name = bottom;
pos = (195,0);
},
{
name = top;
pos = (195,470);
}
);
layerId = "B3961A9D-C6DC-4F74-9770-9C992C479D86";
shapes = (
{
closed = 1;
nodes = (
(57,0,l),
(179,0,l),
(179,270,ls),
(179,386,o),
(206,436,o),
(314,436,cs),
(385,436,l),
(385,538,l),
(336,538,ls),
(256,538,o),
(208,504,o),
(182,440,c),
(179,440,l),
(179,528,l),
(57,528,l)
);
}
);
width = 390;
},
{
anchors = (
{
name = bottom;
pos = (146,0);
},
{
name = top;
pos = (146,500);
}
);
guides = (
{
pos = (-23,538);
},
{
pos = (-23,528);
},
{
pos = (-23,528);
},
{
pos = (-23,538);
},
{
pos = (-23,502);
},
{
pos = (-23,424);
}
);
layerId = "0DC1F6FB-20EC-4E8F-AE98-F98B5FD714DE";
shapes = (
{
closed = 1;
nodes = (
(57,0,l),
(93,0,l),
(93,280,ls),
(93,429,o),
(137,502,o),
(255,502,cs),
(299,502,l),
(299,538,l),
(262,538,ls),
(182,538,o),
(128,521,o),
(96,424,c),
(93,424,l),
(93,528,l),
(57,528,l)
);
}
);
width = 295;
}
);
unicode = 114;
},
{
color = 6;
glyphname = s;
kernLeft = s;
kernRight = s;
lastChange = "2024-03-19 05:01:25 +0000";
layers = (
{
anchors = (
{
name = bottom;
pos = (222,0);
},
{
name = top;
pos = (222,470);
}
);
guides = (
{
pos = (-28,528);
},
{
angle = 90;
pos = (29,0);
},
{
angle = 90;
pos = (417,0);
},
{
angle = 90;
pos = (629,0);
},
{
angle = 90;
pos = (1029,0);
}
);
layerId = "B3961A9D-C6DC-4F74-9770-9C992C479D86";
shapes = (
{
closed = 1;
nodes = (
(334,-8,o),
(417,24,o),
(417,135,cs),
(417,248,o),
(355,271,o),
(263,296,cs),
(170,321,o),
(145,334,o),
(146,383,cs),
(147,426,o),
(179,439,o),
(236,439,cs),
(284,439,o),
(356,425,o),
(403,409,c),
(403,502,l),
(345,525,o),
(292,533,o),
(233,535,cs),
(114,539,o),
(26,496,o),
(26,391,cs),
(26,303,o),
(45,245,o),
(228,203,cs),
(267,194,o),
(297,178,o),
(296,136,cs),
(295,98,o),
(276,79,o),
(211,82,cs),
(155,84,o),
(101,95,o),
(44,112,c),
(44,18,l),
(99,3,o),
(162,-8,o),
(218,-8,cs)
);
}
);
width = 444;
},
{
anchors = (
{
name = bottom;
pos = (195,0);
},
{
name = top;
pos = (195,500);
}
);
guides = (
{
pos = (-21,538);
},
{
angle = 90;
pos = (19,0);
},
{
angle = 90;
pos = (363,0);
}
);
layerId = "0DC1F6FB-20EC-4E8F-AE98-F98B5FD714DE";
shapes = (
{
closed = 1;
nodes = (
(288,-8,o),
(368,25,o),
(373,128,cs),
(378,226,o),
(301,256,o),
(209,281,cs),
(116,306,o),
(55,326,o),
(56,405,cs),
(57,458,o),
(100,505,o),
(209,502,cs),
(260,501,o),
(304,494,o),
(353,475,c),
(353,512,l),
(318,525,o),
(271,537,o),
(210,538,cs),
(103,540,o),
(23,500,o),
(20,408,cs),
(18,346,o),
(33,285,o),
(201,246,cs),
(240,237,o),
(347,208,o),
(337,127,cs),
(332,89,o),
(312,22,o),
(165,28,cs),
(119,30,o),
(73,36,o),
(25,48,c),
(25,10,l),
(72,-1,o),
(118,-8,o),
(164,-8,cs)
);
}
);
width = 390;
}
);
unicode = 115;
},
{
color = 6;
glyphname = t;
kernLeft = t;
kernRight = t;
lastChange = "2024-03-19 05:01:24 +0000";
layers = (
{
anchors = (
{
name = bottom;
pos = (180,0);
},
{
name = center;
pos = (180,235);
},
{
name = top;
pos = (180,470);
},
{
name = topright;
pos = (367,1130);
}
);
layerId = "B3961A9D-C6DC-4F74-9770-9C992C479D86";
shapes = (
{
closed = 1;
nodes = (
(222,258,l),
(222,726,l),
(100,706,l),
(100,258,l)
);
},
{
closed = 1;
nodes = (
(340,0,l),
(340,116,l),
(318,116,l),
(227,116,o),
(222,123,o),
(222,214,c),
(222,374,l),
(100,374,l),
(100,207,l),
(100,39,o),
(149,0,o),
(286,0,c)
);
},
{
closed = 1;
nodes = (
(340,517,l),
(4,517,l),
(4,415,l),
(340,415,l)
);
}
);
width = 358;
},
{
anchors = (
{
name = bottom;
pos = (141,0);
},
{
name = center;
pos = (141,250);
},
{
name = top;
pos = (141,500);
},
{
name = topright;
pos = (280,800);
}
);
guides = (
{
angle = 90;
pos = (853,0);
},
{
angle = 90;
pos = (277,0);
}
);
layerId = "0DC1F6FB-20EC-4E8F-AE98-F98B5FD714DE";
shapes = (
{
closed = 1;
nodes = (
(146,223,l),
(146,741,l),
(110,731,l),
(110,223,l)
);
},
{
closed = 1;
nodes = (
(277,0,l),
(277,35,l),
(236,35,l),
(143,35,o),
(146,98,o),
(146,173,cs),
(146,339,l),
(110,339,l),
(110,155,l),
(110,51,o),
(126,0,o),
(245,0,c)
);
},
{
closed = 1;
nodes = (
(277,530,l),
(-3,530,l),
(-3,498,l),
(277,498,l)
);
}
);
width = 281;
}
);
unicode = 116;
},
{
color = 6;
glyphname = u;
kernLeft = u;
kernRight = u;
lastChange = "2024-03-19 05:01:25 +0000";
layers = (
{
anchors = (
{
name = bottom;
pos = (267,0);
},
{
name = ogonek;
pos = (480,10);
},
{
name = top;
pos = (267,500);
},
{
name = topright;
pos = (513,500);
}
);
associatedMasterId = "0DC1F6FB-20EC-4E8F-AE98-F98B5FD714DE";
layerId = "A60E2505-20D3-4070-AD0C-80FD77649E51";
name = "#instance";
shapes = (
{
closed = 1;
nodes = (
(453,528,l),
(417,528,l),
(417,160,l),
(417,0,l),
(453,0,l)
);
},
{
closed = 1;
nodes = (
(107,528,l),
(71,528,l),
(71,190,l),
(107,239,l)
);
},
{
closed = 1;
nodes = (
(417,250,l),
(417,130,o),
(395,26,o),
(257,26,cs),
(116,26,o),
(109,117,o),
(107,239,c),
(71,195,l),
(75,37,o),
(139,-10,o),
(254,-10,cs),
(361,-10,o),
(417,38,o),
(417,160,cs)
);
},
{
closed = 1;
nodes = (
(444,144,l),
(415,165,l),
(406,111,l),
(444,111,l)
);
}
);
width = 533;
},
{
anchors = (
{
name = bottom;
pos = (282,0);
},
{
name = ogonek;
pos = (530,10);
},
{
name = top;
pos = (282,470);
},
{
name = topright;
pos = (572,470);
}
);
guides = (
{
pos = (-28,528);
}
);
layerId = "B3961A9D-C6DC-4F74-9770-9C992C479D86";
shapes = (
{
closed = 1;
nodes = (
(507,528,l),
(385,528,l),
(385,147,l),
(385,0,l),
(507,0,l)
);
},
{
closed = 1;
nodes = (
(171,528,l),
(49,528,l),
(49,191,l),
(171,163,l)
);
},
{
closed = 1;
nodes = (
(385,237,l),
(385,117,o),
(351,88,o),
(274,88,cs),
(197,88,o),
(171,128,o),
(171,237,c),
(49,191,l),
(49,45,o),
(111,-11,o),
(226,-11,cs),
(322,-11,o),
(385,25,o),
(385,147,c)
);
},
{
closed = 1;
nodes = (
(412,131,l),
(383,152,l),
(374,98,l),
(412,98,l)
);
}
);
width = 564;
},
{
anchors = (
{
name = bottom;
pos = (244,0);
},
{
name = ogonek;
pos = (457,10);
},
{
name = top;
pos = (244,500);
},
{
name = topright;
pos = (490,500);
}
);
layerId = "0DC1F6FB-20EC-4E8F-AE98-F98B5FD714DE";
shapes = (
{
closed = 1;
nodes = (
(430,528,l),
(394,528,l),
(394,160,l),
(394,0,l),
(430,0,l)
);
},
{
closed = 1;
nodes = (
(84,528,l),
(48,528,l),
(48,190,l),
(84,239,l)
);
},
{
closed = 1;
nodes = (
(394,250,l),
(394,130,o),
(372,26,o),
(234,26,cs),
(93,26,o),
(86,117,o),
(84,239,c),
(48,195,l),
(52,37,o),
(116,-10,o),
(231,-10,cs),
(338,-10,o),
(394,38,o),
(394,160,c)
);
},
{
closed = 1;
nodes = (
(421,144,l),
(392,165,l),
(383,111,l),
(421,111,l)
);
}
);
width = 487;
}
);
unicode = 117;
},
{
color = 6;
glyphname = v;
lastChange = "2024-03-19 05:01:24 +0000";
layers = (
{
anchors = (
{
name = bottom;
pos = (259,0);
},
{
name = top;
pos = (259,470);
}
);
layerId = "B3961A9D-C6DC-4F74-9770-9C992C479D86";
shapes = (
{
closed = 1;
nodes = (
(349,0,l),
(514,528,l),
(386,528,l),
(260,106,l),
(258,106,l),
(131,528,l),
(3,528,l),
(169,0,l)
);
}
);
width = 517;
},
{
anchors = (
{
name = bottom;
pos = (217,0);
},
{
name = top;
pos = (217,500);
}
);
layerId = "0DC1F6FB-20EC-4E8F-AE98-F98B5FD714DE";
shapes = (
{
closed = 1;
nodes = (
(240,0,l),
(432,528,l),
(394,528,l),
(218,36,l),
(216,36,l),
(39,528,l),
(1,527,l),
(194,0,l)
);
}
);
width = 433;
}
);
unicode = 118;
},
{
color = 6;
glyphname = w;
kernLeft = w;
kernRight = w;
lastChange = "2024-03-19 05:01:25 +0000";
layers = (
{
anchors = (
{
name = bottom;
pos = (408,0);
},
{
name = top;
pos = (408,470);
}
);
layerId = "B3961A9D-C6DC-4F74-9770-9C992C479D86";
shapes = (
{
closed = 1;
nodes = (
(305,0,l),
(406,412,l),
(410,412,l),
(511,0,l),
(680,0,l),
(809,528,l),
(683,528,l),
(589,110,l),
(585,110,l),
(485,528,l),
(331,528,l),
(231,110,l),
(227,110,l),
(133,528,l),
(7,528,l),
(136,0,l)
);
}
);
width = 816;
},
{
anchors = (
{
name = bottom;
pos = (316,0);
},
{
name = top;
pos = (316,500);
}
);
layerId = "0DC1F6FB-20EC-4E8F-AE98-F98B5FD714DE";
shapes = (
{
closed = 1;
nodes = (
(203,0,l),
(314,505,l),
(318,505,l),
(429,0,l),
(479,0,l),
(628,528,l),
(590,528,l),
(456,36,l),
(452,36,l),
(344,528,l),
(288,528,l),
(180,36,l),
(176,36,l),
(42,528,l),
(4,528,l),
(153,0,l)
);
}
);
width = 632;
}
);
unicode = 119;
},
{
color = 6;
glyphname = x;
lastChange = "2024-03-19 05:01:25 +0000";
layers = (
{
anchors = (
{
name = bottom;
pos = (260,0);
},
{
name = top;
pos = (260,470);
}
);
guides = (
{
pos = (-28,528);
}
);
layerId = "B3961A9D-C6DC-4F74-9770-9C992C479D86";
shapes = (
{
closed = 1;
nodes = (
(261,215,l),
(377,0,l),
(518,0,l),
(361,269,l),
(499,528,l),
(368,528,l),
(261,316,l),
(257,316,l),
(150,528,l),
(19,528,l),
(157,269,l),
(0,0,l),
(141,0,l),
(257,215,l)
);
}
);
width = 519;
},
{
anchors = (
{
name = bottom;
pos = (211,0);
},
{
name = top;
pos = (211,500);
}
);
guides = (
{
angle = 90;
pos = (28,0);
},
{
angle = 90;
pos = (396,0);
}
);
layerId = "0DC1F6FB-20EC-4E8F-AE98-F98B5FD714DE";
shapes = (
{
closed = 1;
nodes = (
(212,258,l),
(379,0,l),
(422,0,l),
(241,276,l),
(402,528,l),
(361,528,l),
(212,294,l),
(208,294,l),
(59,528,l),
(18,528,l),
(179,276,l),
(-2,0,l),
(41,0,l),
(208,258,l)
);
}
);
width = 421;
}
);
unicode = 120;
},
{
color = 6;
glyphname = y;
kernLeft = y;
kernRight = y;
lastChange = "2024-03-19 05:01:25 +0000";
layers = (
{
anchors = (
{
name = bottom;
pos = (272,0);
},
{
name = top;
pos = (272,470);
}
);
guides = (
{
pos = (-27,528);
}
);
layerId = "B3961A9D-C6DC-4F74-9770-9C992C479D86";
shapes = (
{
closed = 1;
nodes = (
(-3,528,l),
(176,0,l),
(241,0,l),
(142,-284,l),
(271,-284,l),
(547,528,l),
(418,528,l),
(272,79,l),
(269,79,l),
(125,528,l)
);
}
);
width = 544;
},
{
anchors = (
{
name = bottom;
pos = (211,0);
},
{
name = top;
pos = (211,500);
}
);
layerId = "0DC1F6FB-20EC-4E8F-AE98-F98B5FD714DE";
shapes = (
{
closed = 1;
nodes = (
(-5,528,l),
(199,27,l),
(187,-5,l),
(81,-284,l),
(119,-284,l),
(425,528,l),
(387,528,l),
(217,79,l),
(214,79,l),
(34,528,l)
);
}
);
width = 421;
}
);
unicode = 121;
},
{
color = 6;
glyphname = z;
kernLeft = z;
kernRight = z;
lastChange = "2024-03-19 05:01:25 +0000";
layers = (
{
anchors = (
{
name = bottom;
pos = (235,0);
},
{
name = center;
pos = (235,235);
},
{
name = top;
pos = (235,470);
}
);
guides = (
{
pos = (-28,528);
},
{
angle = 90;
pos = (445,0);
},
{
angle = 90;
pos = (25,0);
}
);
layerId = "B3961A9D-C6DC-4F74-9770-9C992C479D86";
shapes = (
{
closed = 1;
nodes = (
(31,528,l),
(31,416,l),
(277,416,l),
(277,412,l),
(25,114,l),
(25,0,l),
(445,0,l),
(445,112,l),
(172,112,l),
(172,115,l),
(439,414,l),
(439,528,l)
);
}
);
width = 470;
},
{
anchors = (
{
name = bottom;
pos = (184,0);
},
{
name = center;
pos = (184,250);
},
{
name = top;
pos = (184,500);
}
);
guides = (
{
angle = 90;
pos = (17,0);
},
{
angle = 90;
pos = (360,0);
}
);
layerId = "0DC1F6FB-20EC-4E8F-AE98-F98B5FD714DE";
shapes = (
{
closed = 1;
nodes = (
(13,528,l),
(13,492,l),
(313,492,l),
(313,488,l),
(7,36,l),
(7,0,l),
(360,0,l),
(360,36,l),
(49,36,l),
(49,40,l),
(354,490,l),
(354,528,l)
);
}
);
width = 367;
}
);
unicode = 122;
},
{
color = 6;
glyphname = c_t;
lastChange = "2024-03-19 05:41:06 +0000";
layers = (
{
layerId = "B3961A9D-C6DC-4F74-9770-9C992C479D86";
shapes = (
{
closed = 1;
nodes = (
(327,-8,o),
(394,5,o),
(424,24,c),
(424,119,l),
(391,102,o),
(339,92,o),
(289,92,cs),
(181,92,o),
(154,144,o),
(154,260,cs),
(154,270,ls),
(154,386,o),
(181,438,o),
(289,438,cs),
(339,438,o),
(391,428,o),
(424,411,c),
(424,506,l),
(394,525,o),
(327,538,o),
(274,538,cs),
(122,538,o),
(31,477,o),
(31,277,cs),
(31,253,ls),
(31,53,o),
(122,-8,o),
(274,-8,cs)
);
},
{
closed = 1;
nodes = (
(851,0,l),
(851,116,l),
(829,116,ls),
(738,116,o),
(733,123,o),
(733,214,cs),
(733,374,l),
(611,374,l),
(611,207,ls),
(611,39,o),
(660,0,o),
(797,0,cs)
);
},
{
closed = 1;
nodes = (
(733,223,l),
(733,597,ls),
(733,703,o),
(722,803,o),
(515,803,cs),
(294,803,o),
(323,597,o),
(324,513,c),
(424,505,l),
(424,599,o),
(412,703,o),
(514,703,cs),
(604,703,o),
(611,655,o),
(611,590,cs),
(611,223,l)
);
},
{
closed = 1;
nodes = (
(851,415,l),
(851,517,l),
(515,517,l),
(515,415,l)
);
}
);
width = 878;
},
{
layerId = "0DC1F6FB-20EC-4E8F-AE98-F98B5FD714DE";
shapes = (
{
closed = 1;
nodes = (
(312,-9,o),
(359,5,o),
(395,28,c),
(395,66,l),
(366,50,o),
(321,27,o),
(254,27,cs),
(108,27,o),
(69,100,o),
(69,257,cs),
(69,272,ls),
(69,430,o),
(106,502,o),
(254,502,cs),
(322,502,o),
(366,484,o),
(395,466,c),
(395,505,l),
(362,526,o),
(312,538,o),
(254,538,cs),
(106,538,o),
(33,477,o),
(33,277,cs),
(33,252,ls),
(33,51,o),
(109,-9,o),
(254,-9,cs)
);
},
{
closed = 1;
nodes = (
(764,0,l),
(764,35,l),
(723,35,ls),
(630,35,o),
(633,98,o),
(633,173,cs),
(633,339,l),
(597,339,l),
(597,155,ls),
(597,51,o),
(613,0,o),
(732,0,cs)
);
},
{
closed = 1;
nodes = (
(633,223,l),
(633,597,ls),
(633,703,o),
(588,743,o),
(493,744,cs),
(348,744,o),
(360,597,o),
(361,513,c),
(395,505,l),
(395,599,o),
(391,709,o),
(493,709,cs),
(583,709,o),
(597,655,o),
(597,590,cs),
(597,223,l)
);
},
{
closed = 1;
nodes = (
(764,498,l),
(764,530,l),
(484,530,l),
(484,498,l)
);
}
);
width = 768;
}
);
metricLeft = c;
metricRight = c;
},
{
color = 6;
glyphname = f_f_j;
lastChange = "2024-03-19 05:42:50 +0000";
layers = (
{
layerId = "B3961A9D-C6DC-4F74-9770-9C992C479D86";
shapes = (
{
closed = 1;
nodes = (
(99,0,l),
(221,0,l),
(221,528,l),
(99,528,l)
);
},
{
closed = 1;
nodes = (
(285,752,l),
(148,755,o),
(99,713,o),
(99,545,c),
(99,412,l),
(221,412,l),
(221,538,l),
(221,629,o),
(226,636,o),
(317,636,c),
(339,636,l),
(339,751,l)
);
},
{
closed = 1;
nodes = (
(3,517,l),
(3,415,l),
(339,415,l),
(339,517,l)
);
},
{
closed = 1;
nodes = (
(411,0,l),
(533,0,l),
(533,528,l),
(411,528,l)
);
},
{
closed = 1;
nodes = (
(597,752,l),
(460,755,o),
(411,713,o),
(411,545,c),
(411,412,l),
(533,412,l),
(533,538,l),
(533,629,o),
(538,636,o),
(629,636,c),
(651,636,l),
(651,751,l)
);
},
{
closed = 1;
nodes = (
(285,517,l),
(285,415,l),
(845,415,l),
(845,517,l)
);
},
{
closed = 1;
nodes = (
(659,-204,ls),
(796,-204,o),
(845,-165,o),
(845,3,cs),
(845,170,l),
(723,170,l),
(723,10,ls),
(723,-81,o),
(718,-88,o),
(627,-88,cs),
(605,-88,l),
(605,-204,l)
);
},
{
closed = 1;
nodes = (
(845,154,l),
(845,498,l),
(723,498,l),
(723,154,l)
);
}
);
width = 892;
},
{
layerId = "0DC1F6FB-20EC-4E8F-AE98-F98B5FD714DE";
shapes = (
{
closed = 1;
nodes = (
(92,0,l),
(128,0,l),
(128,528,l),
(92,528,l)
);
},
{
closed = 1;
nodes = (
(248,751,l),
(124,751,o),
(92,716,o),
(92,585,c),
(92,412,l),
(128,412,l),
(128,578,ls),
(128,653,o),
(121,720,o),
(239,716,c),
(276,716,l),
(276,751,l)
);
},
{
closed = 1;
nodes = (
(-4,530,l),
(-4,498,l),
(276,498,l),
(276,530,l)
);
},
{
closed = 1;
nodes = (
(336,0,l),
(372,0,l),
(372,528,l),
(336,528,l)
);
},
{
closed = 1;
nodes = (
(492,751,l),
(368,751,o),
(336,716,o),
(336,585,c),
(336,412,l),
(372,412,l),
(372,578,ls),
(372,653,o),
(365,720,o),
(483,716,c),
(520,716,l),
(520,751,l)
);
},
{
closed = 1;
nodes = (
(240,530,l),
(240,498,l),
(616,498,l),
(616,530,l)
);
},
{
closed = 1;
nodes = (
(530,-84,ls),
(572,-84,o),
(616,-76,o),
(616,-14,cs),
(616,170,l),
(580,170,l),
(580,16,ls),
(580,-37,o),
(575,-46,o),
(530,-48,c),
(503,-48,l),
(503,-84,l)
);
},
{
closed = 1;
nodes = (
(616,165,l),
(616,528,l),
(580,528,l),
(580,165,l)
);
}
);
width = 662;
}
);
metricLeft = f;
metricRight = j;
},
{
color = 6;
glyphname = f_j;
lastChange = "2024-03-19 05:43:06 +0000";
layers = (
{
layerId = "B3961A9D-C6DC-4F74-9770-9C992C479D86";
shapes = (
{
closed = 1;
nodes = (
(99,0,l),
(221,0,l),
(221,528,l),
(99,528,l)
);
},
{
closed = 1;
nodes = (
(285,752,l),
(148,755,o),
(99,713,o),
(99,545,c),
(99,412,l),
(221,412,l),
(221,538,l),
(221,629,o),
(226,636,o),
(317,636,c),
(339,636,l),
(339,751,l)
);
},
{
closed = 1;
nodes = (
(3,517,l),
(3,415,l),
(533,415,l),
(533,517,l)
);
},
{
closed = 1;
nodes = (
(347,-204,ls),
(484,-204,o),
(533,-165,o),
(533,3,c),
(533,170,l),
(411,170,l),
(411,10,ls),
(411,-81,o),
(406,-88,o),
(315,-88,cs),
(293,-88,l),
(293,-204,l)
);
},
{
closed = 1;
nodes = (
(533,154,l),
(533,498,l),
(411,498,l),
(411,154,l)
);
}
);
width = 580;
},
{
layerId = "0DC1F6FB-20EC-4E8F-AE98-F98B5FD714DE";
shapes = (
{
closed = 1;
nodes = (
(92,0,l),
(128,0,l),
(128,528,l),
(92,528,l)
);
},
{
closed = 1;
nodes = (
(248,751,l),
(124,751,o),
(92,716,o),
(92,585,c),
(92,412,l),
(128,412,l),
(128,578,ls),
(128,653,o),
(121,720,o),
(239,716,c),
(276,716,l),
(276,751,l)
);
},
{
closed = 1;
nodes = (
(-4,530,l),
(-4,498,l),
(372,498,l),
(372,530,l)
);
},
{
closed = 1;
nodes = (
(286,-84,ls),
(328,-84,o),
(372,-76,o),
(372,-14,cs),
(372,170,l),
(336,170,l),
(336,16,ls),
(336,-37,o),
(331,-46,o),
(286,-48,c),
(259,-48,l),
(259,-84,l)
);
},
{
closed = 1;
nodes = (
(372,165,l),
(372,528,l),
(336,528,l),
(336,165,l)
);
}
);
width = 418;
}
);
metricLeft = f;
metricRight = j;
},
{
color = 6;
glyphname = fi;
lastChange = "2024-03-19 05:43:52 +0000";
layers = (
{
layerId = "B3961A9D-C6DC-4F74-9770-9C992C479D86";
shapes = (
{
closed = 1;
nodes = (
(99,0,l),
(221,0,l),
(221,528,l),
(99,528,l)
);
},
{
closed = 1;
nodes = (
(285,752,l),
(148,755,o),
(99,713,o),
(99,545,c),
(99,412,l),
(221,412,l),
(221,538,l),
(221,629,o),
(226,636,o),
(317,636,c),
(339,636,l),
(339,751,l)
);
},
{
closed = 1;
nodes = (
(3,517,l),
(3,415,l),
(523,415,l),
(523,517,l)
);
},
{
closed = 1;
nodes = (
(523,0,l),
(523,498,l),
(401,498,l),
(401,0,l)
);
}
);
width = 573;
},
{
layerId = "0DC1F6FB-20EC-4E8F-AE98-F98B5FD714DE";
shapes = (
{
closed = 1;
nodes = (
(92,0,l),
(128,0,l),
(128,528,l),
(92,528,l)
);
},
{
closed = 1;
nodes = (
(248,751,l),
(124,751,o),
(92,716,o),
(92,585,c),
(92,412,l),
(128,412,l),
(128,578,ls),
(128,653,o),
(121,720,o),
(239,716,c),
(276,716,l),
(276,751,l)
);
},
{
closed = 1;
nodes = (
(-4,530,l),
(-4,498,l),
(372,498,l),
(372,530,l)
);
},
{
closed = 1;
nodes = (
(372,0,l),
(372,528,l),
(336,528,l),
(336,0,l)
);
}
);
width = 419;
}
);
metricLeft = f;
metricRight = i;
unicode = 64257;
},
{
color = 6;
glyphname = fl;
lastChange = "2024-03-19 05:44:08 +0000";
layers = (
{
layerId = "B3961A9D-C6DC-4F74-9770-9C992C479D86";
shapes = (
{
closed = 1;
nodes = (
(129,0,l),
(251,0,l),
(251,528,l),
(129,528,l)
);
},
{
closed = 1;
nodes = (
(178,755,o),
(129,713,o),
(129,545,c),
(129,412,l),
(251,412,l),
(251,538,l),
(251,629,o),
(256,636,o),
(347,636,c),
(430,636,o),
(489,624,o),
(559,611,c),
(559,725,l),
(522,732,o),
(413,752,o),
(315,752,c)
);
},
{
closed = 1;
nodes = (
(3,517,l),
(3,415,l),
(559,415,l),
(559,517,l)
);
},
{
closed = 1;
nodes = (
(559,0,l),
(559,650,l),
(437,650,l),
(437,0,l)
);
}
);
width = 617;
},
{
layerId = "0DC1F6FB-20EC-4E8F-AE98-F98B5FD714DE";
shapes = (
{
closed = 1;
nodes = (
(92,0,l),
(128,0,l),
(128,528,l),
(92,528,l)
);
},
{
closed = 1;
nodes = (
(128,751,o),
(92,716,o),
(92,585,cs),
(92,412,l),
(128,412,l),
(128,578,ls),
(128,653,o),
(127,720,o),
(239,716,cs),
(307,714,o),
(343,703,o),
(372,694,c),
(372,731,l),
(325,742,o),
(307,749,o),
(248,751,c)
);
},
{
closed = 1;
nodes = (
(-4,530,l),
(-4,498,l),
(360,498,l),
(360,530,l)
);
},
{
closed = 1;
nodes = (
(372,0,l),
(372,709,l),
(336,709,l),
(336,0,l)
);
}
);
width = 430;
}
);
metricLeft = f;
metricRight = l;
unicode = 64258;
},
{
color = 6;
glyphname = s_t;
lastChange = "2024-03-19 05:44:13 +0000";
layers = (
{
layerId = "B3961A9D-C6DC-4F74-9770-9C992C479D86";
shapes = (
{
closed = 1;
nodes = (
(830,0,l),
(830,116,l),
(808,116,ls),
(717,116,o),
(712,123,o),
(712,214,cs),
(712,374,l),
(590,374,l),
(590,207,ls),
(590,39,o),
(639,0,o),
(776,0,cs)
);
},
{
closed = 1;
nodes = (
(712,223,l),
(712,597,ls),
(712,703,o),
(701,803,o),
(494,803,cs),
(273,803,o),
(302,577,o),
(303,493,c),
(403,485,l),
(403,579,o),
(391,703,o),
(493,703,cs),
(583,703,o),
(590,655,o),
(590,590,cs),
(590,223,l)
);
},
{
closed = 1;
nodes = (
(830,415,l),
(830,517,l),
(494,517,l),
(494,415,l)
);
},
{
closed = 1;
nodes = (
(334,-8,o),
(417,24,o),
(417,135,cs),
(417,248,o),
(355,271,o),
(263,296,cs),
(170,321,o),
(145,334,o),
(146,383,cs),
(147,426,o),
(179,439,o),
(236,439,cs),
(284,439,o),
(356,425,o),
(403,409,c),
(403,502,l),
(345,525,o),
(292,533,o),
(233,535,cs),
(114,539,o),
(26,496,o),
(26,391,cs),
(26,303,o),
(45,245,o),
(228,203,cs),
(267,194,o),
(297,178,o),
(296,136,cs),
(295,98,o),
(276,79,o),
(211,82,cs),
(155,84,o),
(101,95,o),
(44,112,c),
(44,18,l),
(99,3,o),
(162,-8,o),
(218,-8,cs)
);
}
);
width = 848;
},
{
layerId = "0DC1F6FB-20EC-4E8F-AE98-F98B5FD714DE";
shapes = (
{
closed = 1;
nodes = (
(722,0,l),
(722,35,l),
(681,35,ls),
(588,35,o),
(591,98,o),
(591,173,cs),
(591,339,l),
(555,339,l),
(555,155,ls),
(555,51,o),
(571,0,o),
(690,0,cs)
);
},
{
closed = 1;
nodes = (
(591,223,l),
(591,597,ls),
(591,703,o),
(546,743,o),
(451,744,cs),
(306,744,o),
(318,597,o),
(319,513,c),
(353,505,l),
(353,599,o),
(349,709,o),
(451,709,cs),
(541,709,o),
(555,655,o),
(555,590,cs),
(555,223,l)
);
},
{
closed = 1;
nodes = (
(722,498,l),
(722,530,l),
(442,530,l),
(442,498,l)
);
},
{
closed = 1;
nodes = (
(288,-8,o),
(368,25,o),
(373,128,cs),
(378,226,o),
(301,256,o),
(209,281,cs),
(116,306,o),
(55,326,o),
(56,405,cs),
(57,458,o),
(100,505,o),
(209,502,cs),
(260,501,o),
(304,494,o),
(353,475,c),
(353,512,l),
(318,525,o),
(271,537,o),
(210,538,cs),
(103,540,o),
(23,500,o),
(20,408,cs),
(18,346,o),
(33,285,o),
(201,246,cs),
(240,237,o),
(347,208,o),
(337,127,cs),
(332,89,o),
(312,22,o),
(165,28,cs),
(119,30,o),
(73,36,o),
(25,48,c),
(25,10,l),
(72,-1,o),
(118,-8,o),
(164,-8,cs)
);
}
);
width = 726;
}
);
metricLeft = s;
metricRight = t;
},
{
color = 6;
glyphname = pi;
lastChange = "2024-03-19 05:44:24 +0000";
layers = (
{
guides = (
{
pos = (-28,528);
}
);
layerId = "B3961A9D-C6DC-4F74-9770-9C992C479D86";
shapes = (
{
closed = 1;
nodes = (
(98,0,l),
(220,0,l),
(220,518,l),
(98,518,l)
);
},
{
closed = 1;
nodes = (
(7,528,l),
(7,414,l),
(607,414,l),
(607,528,l)
);
},
{
closed = 1;
nodes = (
(394,109,l),
(394,30,o),
(406,0,o),
(479,0,c),
(563,0,l),
(563,106,l),
(516,106,l),
(516,518,l),
(394,518,l)
);
}
);
width = 620;
},
{
guides = (
{
pos = (-20,528);
}
);
layerId = "0DC1F6FB-20EC-4E8F-AE98-F98B5FD714DE";
shapes = (
{
closed = 1;
nodes = (
(87,0,l),
(123,0,l),
(123,518,l),
(87,518,l)
);
},
{
closed = 1;
nodes = (
(-4,528,l),
(-4,492,l),
(540,492,l),
(540,528,l)
);
},
{
closed = 1;
nodes = (
(413,36,l),
(413,13,o),
(420,0,o),
(449,0,c),
(496,0,l),
(496,36,l),
(449,36,l),
(449,518,l),
(413,518,l)
);
}
);
width = 539;
}
);
unicode = 960;
},
{
color = 6;
glyphname = zero;
kernRight = zero;
lastChange = "2024-03-19 05:01:25 +0000";
layers = (
{
layerId = "B3961A9D-C6DC-4F74-9770-9C992C479D86";
shapes = (
{
closed = 1;
nodes = (
(350,599,ls),
(419,599,o),
(421,531,o),
(421,498,cs),
(422,202,ls),
(422,170,o),
(420,101,o),
(350,101,cs),
(269,101,ls),
(211,101,o),
(192,137,o),
(192,198,cs),
(191,502,ls),
(191,564,o),
(210,599,o),
(268,599,cs)
);
},
{
closed = 1;
nodes = (
(57,187,ls),
(57,65,o),
(103,0,o),
(229,0,cs),
(384,0,ls),
(510,0,o),
(556,65,o),
(556,187,cs),
(556,513,ls),
(556,635,o),
(510,700,o),
(384,700,c),
(229,700,l),
(103,700,o),
(57,635,o),
(57,513,cs)
);
}
);
width = 613;
},
{
layerId = "0DC1F6FB-20EC-4E8F-AE98-F98B5FD714DE";
shapes = (
{
closed = 1;
nodes = (
(365,665,ls),
(486,665,o),
(501,584,o),
(501,539,cs),
(501,162,ls),
(501,119,o),
(491,35,o),
(364,35,cs),
(229,35,ls),
(135,35,o),
(96,74,o),
(93,157,c),
(93,544,l),
(92,624,o),
(135,665,o),
(229,665,cs)
);
},
{
closed = 1;
nodes = (
(58,177,ls),
(58,55,o),
(104,0,o),
(230,0,cs),
(364,0,ls),
(490,0,o),
(536,55,o),
(536,177,cs),
(536,523,ls),
(536,645,o),
(490,700,o),
(364,700,c),
(226,700,l),
(97,700,o),
(58,645,o),
(58,523,cs)
);
}
);
width = 594;
}
);
unicode = 48;
},
{
color = 6;
glyphname = one;
kernRight = zero;
lastChange = "2024-03-19 05:01:26 +0000";
layers = (
{
layerId = "B3961A9D-C6DC-4F74-9770-9C992C479D86";
shapes = (
{
closed = 1;
nodes = (
(17,638,l),
(17,525,l),
(179,592,l),
(179,0,l),
(314,0,l),
(314,700,l),
(179,700,l)
);
}
);
width = 383;
},
{
layerId = "0DC1F6FB-20EC-4E8F-AE98-F98B5FD714DE";
shapes = (
{
closed = 1;
nodes = (
(9,638,l),
(9,600,l),
(131,665,l),
(131,0,l),
(167,0,l),
(167,700,l),
(131,700,l)
);
}
);
width = 236;
}
);
unicode = 49;
},
{
color = 6;
glyphname = two;
kernRight = zero;
lastChange = "2024-03-19 05:01:25 +0000";
layers = (
{
guides = (
{
angle = 90;
pos = (453,0);
},
{
angle = 90;
pos = (24,0);
}
);
layerId = "B3961A9D-C6DC-4F74-9770-9C992C479D86";
shapes = (
{
closed = 1;
nodes = (
(24,0,l),
(477,0,l),
(477,101,l),
(223,101,l),
(223,105,l),
(318,176,o),
(453,299,o),
(453,488,cs),
(453,689,o),
(305,702,o),
(211,704,cs),
(161,705,o),
(95,695,o),
(37,669,c),
(37,564,l),
(91,589,o),
(126,599,o),
(192,599,cs),
(292,599,o),
(321,549,o),
(317,461,c),
(317,299,o),
(73,136,o),
(24,96,c)
);
}
);
width = 505;
},
{
guides = (
{
angle = 90;
pos = (868,0);
},
{
angle = 90;
pos = (18,0);
},
{
angle = 90;
pos = (1263,0);
},
{
angle = 90;
pos = (386,0);
}
);
layerId = "0DC1F6FB-20EC-4E8F-AE98-F98B5FD714DE";
shapes = (
{
closed = 1;
nodes = (
(13,0,l),
(403,0,l),
(403,35,l),
(71,35,l),
(71,39,l),
(157,119,o),
(378,333,o),
(378,520,cs),
(378,673,o),
(274,703,o),
(180,704,cs),
(130,705,o),
(76,695,o),
(26,666,c),
(26,630,l),
(80,655,o),
(115,668,o),
(181,668,cs),
(321,668,o),
(342,593,o),
(342,505,cs),
(342,323,o),
(26,42,o),
(13,30,c)
);
}
);
width = 422;
}
);
unicode = 50;
},
{
color = 6;
glyphname = three;
kernRight = zero;
lastChange = "2024-03-19 05:01:24 +0000";
layers = (
{
guides = (
{
pos = (-33,699);
},
{
pos = (-33,357);
}
);
layerId = "B3961A9D-C6DC-4F74-9770-9C992C479D86";
shapes = (
{
closed = 1;
nodes = (
(343,-6,o),
(437,32,o),
(435,172,cs),
(434,233,ls),
(433,286,o),
(418,340,o),
(356,355,c),
(356,358,l),
(418,381,o),
(434,425,o),
(434,478,cs),
(434,522,ls),
(434,645,o),
(373,702,o),
(204,702,cs),
(155,702,o),
(101,698,o),
(43,681,c),
(43,582,l),
(115,598,o),
(156,598,o),
(184,598,cs),
(282,598,o),
(300,564,o),
(300,497,cs),
(300,483,ls),
(300,451,o),
(311,406,o),
(198,406,cs),
(113,406,l),
(113,305,l),
(198,305,ls),
(300,305,o),
(300,260,o),
(300,228,cs),
(300,197,ls),
(300,133,o),
(289,96,o),
(184,96,cs),
(156,96,o),
(82,99,o),
(23,111,c),
(23,16,l),
(92,2,o),
(149,-5,o),
(208,-5,cs)
);
}
);
width = 485;
},
{
layerId = "0DC1F6FB-20EC-4E8F-AE98-F98B5FD714DE";
shapes = (
{
closed = 1;
nodes = (
(314,-4,o),
(371,58,o),
(370,166,cs),
(369,252,ls),
(368,322,o),
(322,350,o),
(289,356,c),
(289,359,l),
(329,365,o),
(366,402,o),
(366,478,cs),
(366,549,ls),
(366,664,o),
(303,701,o),
(182,701,cs),
(130,701,o),
(87,698,o),
(32,685,c),
(32,648,l),
(99,665,o),
(135,665,o),
(185,665,cs),
(330,665,o),
(330,592,o),
(330,548,cs),
(330,487,ls),
(330,444,o),
(333,373,o),
(192,373,cs),
(100,373,l),
(100,337,l),
(225,337,ls),
(323,337,o),
(333,275,o),
(333,244,cs),
(333,180,ls),
(333,148,o),
(346,31,o),
(178,31,cs),
(106,31,o),
(61,38,o),
(12,47,c),
(12,13,l),
(67,1,o),
(119,-4,o),
(173,-4,cs)
);
}
);
width = 421;
}
);
unicode = 51;
},
{
color = 6;
glyphname = four;
kernRight = zero;
lastChange = "2024-03-19 05:01:24 +0000";
layers = (
{
layerId = "B3961A9D-C6DC-4F74-9770-9C992C479D86";
shapes = (
{
closed = 1;
nodes = (
(339,700,l),
(18,245,l),
(18,137,l),
(372,137,l),
(372,0,l),
(507,0,l),
(507,137,l),
(590,137,l),
(590,253,l),
(507,253,l),
(507,700,l)
);
},
{
closed = 1;
nodes = (
(372,558,l),
(372,253,l),
(166,253,l)
);
}
);
width = 607;
},
{
layerId = "0DC1F6FB-20EC-4E8F-AE98-F98B5FD714DE";
shapes = (
{
closed = 1;
nodes = (
(341,700,l),
(10,216,l),
(10,190,l),
(364,190,l),
(364,0,l),
(400,0,l),
(400,190,l),
(482,190,l),
(482,224,l),
(400,224,l),
(400,700,l)
);
},
{
closed = 1;
nodes = (
(364,674,l),
(364,224,l),
(55,224,l)
);
}
);
width = 490;
}
);
unicode = 52;
},
{
color = 6;
glyphname = five;
kernRight = zero;
lastChange = "2024-03-19 05:01:26 +0000";
layers = (
{
guides = (
{
angle = 90;
pos = (429,0);
},
{
angle = 90;
pos = (55,0);
}
);
layerId = "B3961A9D-C6DC-4F74-9770-9C992C479D86";
shapes = (
{
closed = 1;
nodes = (
(345,-6,o),
(455,32,o),
(455,172,cs),
(455,273,ls),
(455,351,o),
(404,430,o),
(268,432,c),
(207,432,l),
(201,432,o),
(194,432,o),
(188,432,c),
(200,599,l),
(429,599,l),
(429,700,l),
(82,700,l),
(59,392,l),
(53,318,l),
(109,327,o),
(127,329,o),
(183,329,cs),
(217,329,l),
(302,324,o),
(320,287,o),
(320,257,cs),
(320,197,ls),
(320,133,o),
(291,96,o),
(186,96,cs),
(158,96,o),
(96,98,o),
(37,110,c),
(37,15,l),
(106,1,o),
(151,-5,o),
(210,-5,cs)
);
}
);
width = 492;
},
{
guides = (
{
angle = 90;
pos = (816,0);
},
{
angle = 90;
pos = (47,0);
},
{
angle = 90;
pos = (1162,0);
},
{
angle = 90;
pos = (389,0);
}
);
layerId = "0DC1F6FB-20EC-4E8F-AE98-F98B5FD714DE";
shapes = (
{
closed = 1;
nodes = (
(345,-4,o),
(407,49,o),
(406,158,cs),
(405,236,ls),
(403,380,o),
(343,412,o),
(250,412,cs),
(190,412,l),
(149,411,o),
(115,405,o),
(83,395,c),
(103,664,l),
(379,664,l),
(379,700,l),
(71,700,l),
(47,382,l),
(44,345,l),
(93,370,o),
(156,376,o),
(194,376,cs),
(256,376,ls),
(344,376,o),
(369,325,o),
(369,236,cs),
(369,162,ls),
(369,130,o),
(377,31,o),
(189,31,cs),
(117,31,o),
(81,38,o),
(32,47,c),
(32,13,l),
(87,1,o),
(130,-4,o),
(184,-4,cs)
);
}
);
width = 439;
}
);
unicode = 53;
},
{
color = 6;
glyphname = six;
kernRight = zero;
lastChange = "2024-03-19 05:01:24 +0000";
layers = (
{
guides = (
{
pos = (-34,426);
},
{
angle = 90;
pos = (611,0);
},
{
pos = (-34,700);
},
{
angle = 90;
pos = (475,0);
}
);
layerId = "B3961A9D-C6DC-4F74-9770-9C992C479D86";
shapes = (
{
closed = 1;
nodes = (
(474,700,l),
(87,709,o),
(50,561,o),
(45,315,c),
(45,187,ls),
(45,65,o),
(91,0,o),
(237,0,cs),
(347,0,ls),
(477,0,o),
(516,65,o),
(516,187,cs),
(516,252,ls),
(516,364,o),
(477,422,o),
(347,422,cs),
(307,422,ls),
(267,422,o),
(204,421,o),
(186,362,c),
(180,362,l),
(180,544,o),
(248,605,o),
(474,599,c)
);
},
{
closed = 1;
nodes = (
(304,323,ls),
(382,323,o),
(381,261,o),
(381,229,cs),
(381,203,ls),
(381,137,o),
(382,102,o),
(304,102,cs),
(252,102,ls),
(183,102,o),
(180,162,o),
(180,203,cs),
(180,229,ls),
(180,261,o),
(183,323,o),
(252,323,cs)
);
}
);
width = 551;
},
{
guides = (
{
angle = 90;
pos = (1148,0);
},
{
angle = 90;
pos = (403,0);
}
);
layerId = "0DC1F6FB-20EC-4E8F-AE98-F98B5FD714DE";
shapes = (
{
closed = 1;
nodes = (
(413,700,l),
(122,698,o),
(47,591,o),
(47,315,cs),
(47,158,ls),
(47,70,o),
(94,-4,o),
(201,-4,cs),
(295,-4,ls),
(414,-4,o),
(437,81,o),
(437,157,cs),
(437,247,ls),
(437,363,o),
(380,394,o),
(305,394,cs),
(190,394,ls),
(150,394,o),
(101,384,o),
(80,345,c),
(77,345,l),
(99,595,o),
(155,657,o),
(413,666,c)
);
},
{
closed = 1;
nodes = (
(305,359,ls),
(376,359,o),
(402,315,o),
(402,241,cs),
(402,152,ls),
(402,76,o),
(367,31,o),
(296,31,cs),
(189,31,ls),
(104,31,o),
(83,117,o),
(83,157,cs),
(83,264,ls),
(83,306,o),
(93,359,o),
(172,359,cs)
);
}
);
width = 471;
}
);
unicode = 54;
},
{
color = 6;
glyphname = seven;
kernRight = zero;
lastChange = "2024-03-19 05:01:25 +0000";
layers = (
{
layerId = "B3961A9D-C6DC-4F74-9770-9C992C479D86";
shapes = (
{
closed = 1;
nodes = (
(12,599,l),
(345,599,l),
(83,0,l),
(232,0,l),
(493,600,l),
(493,700,l),
(12,700,l)
);
}
);
width = 510;
},
{
guides = (
{
angle = 90;
pos = (835,0);
},
{
angle = 90;
pos = (32,0);
}
);
layerId = "0DC1F6FB-20EC-4E8F-AE98-F98B5FD714DE";
shapes = (
{
closed = 1;
nodes = (
(6,664,l),
(338,664,l),
(59,0,l),
(97,0,l),
(378,671,l),
(378,700,l),
(6,700,l)
);
}
);
width = 388;
}
);
unicode = 55;
},
{
color = 6;
glyphname = eight;
kernRight = zero;
lastChange = "2024-03-19 05:01:26 +0000";
layers = (
{
guides = (
{
pos = (-34,700);
},
{
angle = 90;
pos = (-198,0);
},
{
angle = 90;
pos = (498,0);
},
{
angle = 90;
pos = (63,0);
}
);
layerId = "B3961A9D-C6DC-4F74-9770-9C992C479D86";
shapes = (
{
closed = 1;
nodes = (
(248,101,ls),
(190,101,o),
(170,127,o),
(170,188,cs),
(170,200,ls),
(170,288,o),
(228,314,o),
(282,326,c),
(335,314,o),
(391,288,o),
(391,200,cs),
(391,188,ls),
(391,127,o),
(377,101,o),
(319,101,cs)
);
},
{
closed = 1;
nodes = (
(298,607,ls),
(351,607,o),
(364,582,o),
(364,526,cs),
(364,506,ls),
(364,425,o),
(331,419,o),
(282,408,c),
(232,419,o),
(197,425,o),
(197,506,cs),
(197,526,ls),
(197,582,o),
(215,607,o),
(269,607,cs)
);
},
{
closed = 1;
nodes = (
(36,187,ls),
(36,65,o),
(82,0,o),
(208,0,cs),
(353,0,ls),
(479,0,o),
(525,65,o),
(525,187,cs),
(525,211,ls),
(525,275,o),
(507,333,o),
(436,368,c),
(436,372,l),
(489,406,o),
(498,449,o),
(498,505,cs),
(498,527,ls),
(498,640,o),
(446,700,o),
(329,700,cs),
(232,700,ls),
(115,700,o),
(63,640,o),
(63,527,cs),
(63,505,ls),
(63,448,o),
(81,407,o),
(131,372,c),
(131,369,l),
(65,333,o),
(36,276,o),
(36,211,cs)
);
}
);
width = 562;
},
{
guides = (
{
angle = 90;
pos = (23,0);
},
{
angle = 90;
pos = (451,0);
}
);
layerId = "0DC1F6FB-20EC-4E8F-AE98-F98B5FD714DE";
shapes = (
{
closed = 1;
nodes = (
(218,31,ls),
(124,31,o),
(72,75,o),
(72,158,cs),
(72,184,ls),
(72,314,o),
(181,347,o),
(235,359,c),
(288,347,o),
(401,314,o),
(401,184,cs),
(401,158,ls),
(401,99,o),
(371,31,o),
(254,31,cs)
);
},
{
closed = 1;
nodes = (
(244,674,ls),
(361,674,o),
(381,615,o),
(381,563,cs),
(381,533,ls),
(381,420,o),
(288,398,o),
(235,388,c),
(181,398,o),
(92,420,o),
(92,533,cs),
(92,563,ls),
(92,635,o),
(134,674,o),
(228,674,cs)
);
},
{
closed = 1;
nodes = (
(37,173,ls),
(37,51,o),
(96,-4,o),
(219,-4,cs),
(254,-4,ls),
(380,-4,o),
(436,51,o),
(436,173,cs),
(436,195,ls),
(436,283,o),
(368,347,o),
(305,371,c),
(305,376,l),
(366,395,o),
(416,443,o),
(416,524,cs),
(416,550,ls),
(416,656,o),
(370,704,o),
(244,704,cs),
(229,704,ls),
(106,704,o),
(57,656,o),
(57,550,cs),
(57,524,ls),
(57,445,o),
(109,393,o),
(164,375,c),
(164,371,l),
(103,346,o),
(37,281,o),
(37,195,cs)
);
}
);
width = 473;
}
);
unicode = 56;
},
{
color = 6;
glyphname = nine;
kernRight = zero;
lastChange = "2024-03-19 05:01:24 +0000";
layers = (
{
layerId = "B3961A9D-C6DC-4F74-9770-9C992C479D86";
shapes = (
{
closed = 1;
nodes = (
(77,0,l),
(464,-9,o),
(501,139,o),
(506,385,c),
(506,513,ls),
(506,635,o),
(460,700,o),
(314,700,cs),
(204,700,ls),
(74,700,o),
(35,635,o),
(35,513,cs),
(35,448,ls),
(35,336,o),
(74,278,o),
(204,278,cs),
(244,278,ls),
(284,278,o),
(347,279,o),
(365,338,c),
(371,338,l),
(371,156,o),
(303,95,o),
(77,101,c)
);
},
{
closed = 1;
nodes = (
(247,377,ls),
(169,377,o),
(170,439,o),
(170,471,cs),
(170,497,ls),
(170,563,o),
(169,598,o),
(247,598,cs),
(299,598,ls),
(368,598,o),
(371,538,o),
(371,497,cs),
(371,471,ls),
(371,439,o),
(368,377,o),
(299,377,cs)
);
}
);
width = 552;
},
{
layerId = "0DC1F6FB-20EC-4E8F-AE98-F98B5FD714DE";
shapes = (
{
closed = 1;
nodes = (
(57,-4,l),
(348,-2,o),
(423,105,o),
(423,381,cs),
(423,538,ls),
(423,626,o),
(376,700,o),
(269,700,cs),
(175,700,ls),
(56,700,o),
(33,615,o),
(33,539,cs),
(33,449,ls),
(33,333,o),
(90,302,o),
(165,302,cs),
(280,302,ls),
(320,302,o),
(369,312,o),
(390,351,c),
(393,351,l),
(371,101,o),
(315,39,o),
(57,30,c)
);
},
{
closed = 1;
nodes = (
(165,337,ls),
(94,337,o),
(68,381,o),
(68,455,cs),
(68,544,ls),
(68,620,o),
(103,665,o),
(174,665,cs),
(281,665,ls),
(366,665,o),
(387,579,o),
(387,539,cs),
(387,432,ls),
(387,390,o),
(377,337,o),
(298,337,cs)
);
}
);
width = 470;
}
);
unicode = 57;
},
{
color = 6;
glyphname = fraction;
lastChange = "2024-03-13 02:15:34 +0000";
layers = (
{
layerId = "B3961A9D-C6DC-4F74-9770-9C992C479D86";
shapes = (
{
closed = 1;
nodes = (
(412,700,l),
(-62,0,l),
(93,0,l),
(566,700,l)
);
}
);
width = 504;
},
{
layerId = "0DC1F6FB-20EC-4E8F-AE98-F98B5FD714DE";
shapes = (
{
closed = 1;
nodes = (
(402,700,l),
(-42,0,l),
(1,0,l),
(444,700,l)
);
}
);
width = 402;
}
);
unicode = 8260;
},
{
color = 6;
glyphname = onehalf;
lastChange = "2024-03-19 05:01:25 +0000";
layers = (
{
guides = (
{
pos = (-36,278);
},
{
pos = (-36,701);
}
);
layerId = "B3961A9D-C6DC-4F74-9770-9C992C479D86";
shapes = (
{
closed = 1;
nodes = (
(249,-30,l),
(595,731,l),
(496,731,l),
(150,-30,l)
);
},
{
closed = 1;
nodes = (
(17,664,l),
(17,595,l),
(115,635,l),
(115,278,l),
(196,278,l),
(196,701,l),
(115,701,l)
);
},
{
closed = 1;
nodes = (
(523,0,l),
(798,0,l),
(798,60,l),
(643,60,l),
(643,62,l),
(701,105,o),
(783,180,o),
(783,295,cs),
(783,416,o),
(694,424,o),
(636,425,cs),
(606,426,o),
(565,420,o),
(531,404,c),
(531,340,l),
(563,355,o),
(585,361,o),
(625,361,cs),
(686,361,o),
(703,331,o),
(701,277,c),
(701,179,o),
(552,71,o),
(523,47,c)
);
}
);
width = 827;
},
{
guides = (
{
pos = (-27,277);
},
{
pos = (-27,702);
}
);
layerId = "0DC1F6FB-20EC-4E8F-AE98-F98B5FD714DE";
shapes = (
{
closed = 1;
nodes = (
(101,-30,l),
(409,731,l),
(380,731,l),
(72,-30,l)
);
},
{
closed = 1;
nodes = (
(13,664,l),
(13,642,l),
(86,681,l),
(86,277,l),
(108,277,l),
(108,702,l),
(86,702,l)
);
},
{
closed = 1;
nodes = (
(364,0,l),
(601,0,l),
(601,22,l),
(399,22,l),
(399,24,l),
(451,72,o),
(586,202,o),
(586,315,cs),
(586,409,o),
(521,427,o),
(465,427,c),
(435,428,o),
(402,422,o),
(372,404,c),
(372,382,l),
(404,398,o),
(425,406,o),
(466,406,cs),
(551,406,o),
(564,361,o),
(564,306,cs),
(564,196,o),
(381,35,o),
(364,20,c)
);
}
);
width = 625;
}
);
unicode = 189;
},
{
color = 6;
glyphname = onequarter;
lastChange = "2024-03-19 05:01:24 +0000";
layers = (
{
layerId = "B3961A9D-C6DC-4F74-9770-9C992C479D86";
shapes = (
{
closed = 1;
nodes = (
(249,-30,l),
(595,731,l),
(496,731,l),
(150,-30,l)
);
},
{
closed = 1;
nodes = (
(196,278,l),
(196,701,l),
(115,701,l),
(17,664,l),
(17,595,l),
(115,635,l),
(115,278,l)
);
},
{
closed = 1;
nodes = (
(733,0,l),
(733,82,l),
(784,82,l),
(784,153,l),
(733,153,l),
(733,423,l),
(631,423,l),
(438,148,l),
(438,82,l),
(652,82,l),
(652,0,l)
);
},
{
closed = 1;
nodes = (
(652,337,l),
(652,153,l),
(527,153,l)
);
}
);
width = 807;
},
{
layerId = "0DC1F6FB-20EC-4E8F-AE98-F98B5FD714DE";
shapes = (
{
closed = 1;
nodes = (
(101,-30,l),
(409,731,l),
(380,731,l),
(72,-30,l)
);
},
{
closed = 1;
nodes = (
(108,277,l),
(108,702,l),
(86,702,l),
(13,664,l),
(13,642,l),
(86,681,l),
(86,277,l)
);
},
{
closed = 1;
nodes = (
(501,0,l),
(501,116,l),
(550,116,l),
(550,137,l),
(501,137,l),
(501,425,l),
(465,425,l),
(264,132,l),
(264,116,l),
(479,116,l),
(479,0,l)
);
},
{
closed = 1;
nodes = (
(479,409,l),
(479,137,l),
(291,137,l)
);
}
);
width = 571;
}
);
unicode = 188;
},
{
color = 6;
glyphname = threequarters;
lastChange = "2024-03-19 05:01:25 +0000";
layers = (
{
layerId = "B3961A9D-C6DC-4F74-9770-9C992C479D86";
shapes = (
{
closed = 1;
nodes = (
(311,-30,l),
(657,731,l),
(558,731,l),
(212,-30,l)
);
},
{
closed = 1;
nodes = (
(219,274,o),
(277,297,o),
(276,382,cs),
(275,419,l),
(275,449,o),
(266,483,o),
(227,492,c),
(227,494,l),
(266,507,o),
(275,534,o),
(275,567,cs),
(275,593,ls),
(275,668,o),
(237,702,o),
(136,702,cs),
(107,702,o),
(74,700,o),
(38,690,c),
(38,629,l),
(83,639,o),
(107,639,o),
(124,639,cs),
(183,639,o),
(194,618,o),
(194,578,cs),
(194,570,ls),
(194,549,o),
(200,522,o),
(132,522,cs),
(81,522,l),
(81,462,l),
(132,462,ls),
(194,462,o),
(194,434,o),
(194,416,cs),
(194,397,ls),
(194,357,o),
(187,335,o),
(124,335,cs),
(107,335,o),
(62,337,o),
(26,344,c),
(26,287,l),
(68,279,o),
(103,275,o),
(138,275,cs)
);
},
{
closed = 1;
nodes = (
(795,0,l),
(795,82,l),
(846,82,l),
(846,153,l),
(795,153,l),
(795,423,l),
(693,423,l),
(500,148,l),
(500,82,l),
(714,82,l),
(714,0,l)
);
},
{
closed = 1;
nodes = (
(714,337,l),
(714,153,l),
(589,153,l)
);
}
);
width = 869;
},
{
layerId = "0DC1F6FB-20EC-4E8F-AE98-F98B5FD714DE";
shapes = (
{
closed = 1;
nodes = (
(222,-30,l),
(530,731,l),
(501,731,l),
(193,-30,l)
);
},
{
closed = 1;
nodes = (
(202,275,o),
(237,313,o),
(236,378,c),
(236,431,l),
(235,473,o),
(207,490,o),
(187,493,c),
(187,495,l),
(212,499,o),
(234,521,o),
(234,567,cs),
(234,611,ls),
(234,680,o),
(196,703,o),
(123,703,cs),
(90,703,o),
(65,701,o),
(31,693,c),
(31,670,l),
(72,681,o),
(93,681,o),
(125,681,cs),
(212,681,o),
(212,637,o),
(212,610,cs),
(212,572,ls),
(212,546,o),
(214,504,o),
(129,504,cs),
(73,504,l),
(73,482,l),
(149,482,ls),
(208,482,o),
(214,444,o),
(214,426,cs),
(214,386,ls),
(214,367,o),
(222,296,o),
(120,296,cs),
(76,296,o),
(49,300,o),
(19,306,c),
(19,285,l),
(53,278,o),
(84,275,o),
(117,275,cs)
);
},
{
closed = 1;
nodes = (
(622,0,l),
(622,116,l),
(671,116,l),
(671,137,l),
(622,137,l),
(622,425,l),
(586,425,l),
(385,132,l),
(385,116,l),
(600,116,l),
(600,0,l)
);
},
{
closed = 1;
nodes = (
(600,409,l),
(600,137,l),
(412,137,l)
);
}
);
width = 692;
}
);
unicode = 190;
},
{
color = 6;
glyphname = onesuperior;
lastChange = "2024-03-19 05:01:25 +0000";
layers = (
{
layerId = "B3961A9D-C6DC-4F74-9770-9C992C479D86";
shapes = (
{
closed = 1;
nodes = (
(-3,846,l),
(-3,778,l),
(96,818,l),
(96,458,l),
(178,458,l),
(178,883,l),
(96,883,l)
);
}
);
width = 224;
},
{
layerId = "0DC1F6FB-20EC-4E8F-AE98-F98B5FD714DE";
shapes = (
{
closed = 1;
nodes = (
(-10,846,l),
(-10,823,l),
(64,862,l),
(64,459,l),
(86,459,l),
(86,883,l),
(64,883,l)
);
}
);
width = 132;
}
);
unicode = 185;
},
{
color = 6;
glyphname = twosuperior;
lastChange = "2024-03-19 05:01:25 +0000";
layers = (
{
layerId = "B3961A9D-C6DC-4F74-9770-9C992C479D86";
shapes = (
{
closed = 1;
nodes = (
(8,458,l),
(283,458,l),
(283,520,l),
(128,520,l),
(128,522,l),
(186,565,o),
(269,640,o),
(269,755,cs),
(269,877,o),
(178,885,o),
(122,887,c),
(90,887,o),
(51,880,o),
(16,864,c),
(16,800,l),
(49,817,o),
(69,822,o),
(109,822,cs),
(170,822,o),
(188,792,o),
(186,738,c),
(186,640,o),
(37,541,o),
(8,517,c)
);
}
);
width = 300;
},
{
layerId = "0DC1F6FB-20EC-4E8F-AE98-F98B5FD714DE";
shapes = (
{
closed = 1;
nodes = (
(-5,459,l),
(231,459,l),
(231,481,l),
(30,481,l),
(30,483,l),
(82,532,o),
(216,662,o),
(216,774,cs),
(216,867,o),
(153,885,o),
(96,885,c),
(65,886,o),
(33,880,o),
(3,862,c),
(3,841,l),
(36,856,o),
(56,863,o),
(96,863,cs),
(181,863,o),
(193,819,o),
(193,766,cs),
(193,655,o),
(3,485,o),
(-5,477,c)
);
}
);
width = 238;
}
);
unicode = 178;
},
{
color = 6;
glyphname = threesuperior;
lastChange = "2024-03-19 05:01:24 +0000";
layers = (
{
layerId = "B3961A9D-C6DC-4F74-9770-9C992C479D86";
shapes = (
{
closed = 1;
nodes = (
(203,455,o),
(260,479,o),
(260,563,c),
(259,600,ls),
(258,632,o),
(248,664,o),
(211,674,c),
(211,677,l),
(248,690,o),
(259,717,o),
(259,749,cs),
(259,776,ls),
(259,851,o),
(221,885,o),
(120,885,cs),
(89,885,o),
(56,882,o),
(20,872,c),
(20,812,l),
(65,822,o),
(90,822,o),
(107,822,cs),
(166,822,o),
(177,800,o),
(177,760,cs),
(177,752,ls),
(177,732,o),
(184,706,o),
(116,706,cs),
(64,706,l),
(64,643,l),
(116,643,ls),
(177,643,o),
(177,617,o),
(177,597,cs),
(177,577,ls),
(177,540,o),
(170,517,o),
(107,517,cs),
(90,517,o),
(45,519,o),
(8,526,c),
(8,468,l),
(51,460,o),
(85,455,o),
(121,455,cs)
);
}
);
width = 293;
},
{
layerId = "0DC1F6FB-20EC-4E8F-AE98-F98B5FD714DE";
shapes = (
{
closed = 1;
nodes = (
(179,456,o),
(213,495,o),
(213,561,cs),
(212,613,ls),
(211,655,o),
(184,672,o),
(164,675,c),
(164,677,l),
(188,681,o),
(211,704,o),
(211,749,cs),
(211,792,ls),
(211,861,o),
(172,883,o),
(99,883,cs),
(67,883,o),
(41,882,o),
(8,873,c),
(8,852,l),
(48,862,o),
(70,862,o),
(100,862,cs),
(189,862,o),
(189,818,o),
(189,791,cs),
(189,754,ls),
(189,728,o),
(190,686,o),
(105,686,cs),
(48,686,l),
(48,663,l),
(125,663,ls),
(184,663,o),
(190,626,o),
(190,608,cs),
(190,569,ls),
(190,550,o),
(198,478,o),
(97,478,cs),
(52,478,o),
(26,482,o),
(-5,488,c),
(-5,467,l),
(29,460,o),
(60,456,o),
(94,456,cs)
);
}
);
width = 248;
}
);
unicode = 179;
},
{
color = 6;
glyphname = "abbreviation-deva";
lastChange = "2024-03-19 05:01:24 +0000";
layers = (
{
layerId = "B3961A9D-C6DC-4F74-9770-9C992C479D86";
shapes = (
{
closed = 1;
nodes = (
(303,472,ls),
(372,472,o),
(373,404,o),
(374,371,cs),
(375,327,ls),
(376,295,o),
(373,226,o),
(303,226,cs),
(252,226,ls),
(194,226,o),
(176,262,o),
(175,323,cs),
(174,375,ls),
(173,437,o),
(193,472,o),
(251,472,cs)
);
},
{
closed = 1;
nodes = (
(40,312,ls),
(40,190,o),
(86,125,o),
(212,125,cs),
(337,125,ls),
(463,125,o),
(509,190,o),
(509,312,cs),
(509,386,ls),
(509,508,o),
(463,573,o),
(337,573,c),
(212,573,l),
(86,573,o),
(40,518,o),
(40,396,cs)
);
}
);
width = 548;
},
{
associatedMasterId = "0DC1F6FB-20EC-4E8F-AE98-F98B5FD714DE";
layerId = "6C0D69A9-22E8-4997-9A9D-EF8D5966494B";
name = "SemiBold Condensed";
shapes = (
{
closed = 1;
nodes = (
(236,276,o),
(268,292,o),
(291,318,c),
(316,344,o),
(332,383,o),
(332,426,cs),
(332,501,o),
(286,563,o),
(215,563,cs),
(178,563,o),
(146,546,o),
(123,521,cs),
(98,493,o),
(82,455,o),
(82,414,cs),
(82,338,o),
(128,276,o),
(198,276,cs)
);
},
{
closed = 1;
nodes = (
(173,329,o),
(151,373,o),
(151,424,cs),
(151,473,o),
(171,511,o),
(206,511,cs),
(243,511,o),
(263,467,o),
(263,416,cs),
(263,367,o),
(244,329,o),
(210,329,cs)
);
}
);
width = 414;
},
{
associatedMasterId = "0DC1F6FB-20EC-4E8F-AE98-F98B5FD714DE";
layerId = "F938FC4F-BA7D-4CEC-8CB8-AE6C2499E489";
name = SemiBold;
shapes = (
{
closed = 1;
nodes = (
(290,274,o),
(332,294,o),
(362,325,cs),
(388,353,o),
(405,389,o),
(405,427,cs),
(405,507,o),
(345,565,o),
(259,565,cs),
(216,565,o),
(178,548,o),
(149,521,cs),
(119,493,o),
(100,454,o),
(100,413,cs),
(100,333,o),
(159,274,o),
(243,274,cs)
);
},
{
closed = 1;
nodes = (
(209,335,o),
(181,374,o),
(181,427,cs),
(181,472,o),
(205,505,o),
(249,505,cs),
(295,505,o),
(324,465,o),
(324,413,cs),
(324,368,o),
(301,335,o),
(256,335,cs)
);
}
);
width = 505;
},
{
associatedMasterId = "0DC1F6FB-20EC-4E8F-AE98-F98B5FD714DE";
layerId = "75B4C05D-74A0-409F-8A9E-D6D18E8F68E5";
name = "Light Condensed";
shapes = (
{
closed = 1;
nodes = (
(200,284,o),
(222,298,o),
(241,322,cs),
(260,347,o),
(272,382,o),
(272,422,cs),
(272,497,o),
(230,554,o),
(176,554,cs),
(146,554,o),
(123,538,o),
(103,512,cs),
(85,488,o),
(74,453,o),
(74,415,cs),
(74,341,o),
(116,284,o),
(171,284,cs)
);
},
{
closed = 1;
nodes = (
(131,310,o),
(102,353,o),
(102,420,cs),
(102,484,o),
(132,529,o),
(175,529,cs),
(215,529,o),
(244,483,o),
(244,417,cs),
(244,354,o),
(216,310,o),
(175,310,cs)
);
}
);
width = 346;
},
{
associatedMasterId = "0DC1F6FB-20EC-4E8F-AE98-F98B5FD714DE";
layerId = "E2FB19FA-0AA4-4A84-BEE9-97DC53614C67";
name = Condensed;
shapes = (
{
closed = 1;
nodes = (
(213,280,o),
(247,301,o),
(268,335,cs),
(284,359,o),
(293,390,o),
(293,425,cs),
(293,493,o),
(254,558,o),
(190,558,cs),
(154,558,o),
(123,541,o),
(101,512,cs),
(81,487,o),
(70,453,o),
(70,415,cs),
(70,345,o),
(109,280,o),
(172,280,cs)
);
},
{
closed = 1;
nodes = (
(140,318,o),
(117,368,o),
(117,420,cs),
(117,479,o),
(144,522,o),
(181,522,cs),
(222,522,o),
(245,471,o),
(245,420,cs),
(245,361,o),
(219,318,o),
(181,318,cs)
);
}
);
width = 363;
},
{
associatedMasterId = "0DC1F6FB-20EC-4E8F-AE98-F98B5FD714DE";
layerId = "C104F7C0-3935-47E2-8357-0CA0CA8B02BC";
name = "Bold Condensed";
shapes = (
{
closed = 1;
nodes = (
(240,272,o),
(273,286,o),
(296,308,cs),
(326,336,o),
(346,380,o),
(346,427,cs),
(346,507,o),
(296,566,o),
(224,566,cs),
(186,566,o),
(153,551,o),
(129,526,cs),
(101,497,o),
(84,457,o),
(84,413,cs),
(84,333,o),
(133,272,o),
(204,272,cs)
);
},
{
closed = 1;
nodes = (
(187,337,o),
(168,377,o),
(168,427,cs),
(168,470,o),
(183,503,o),
(213,503,cs),
(244,503,o),
(262,463,o),
(262,413,cs),
(262,370,o),
(248,337,o),
(219,337,cs)
);
}
);
width = 430;
},
{
associatedMasterId = "0DC1F6FB-20EC-4E8F-AE98-F98B5FD714DE";
layerId = "EBAB2178-E341-4A26-9501-6C276AEAEC3E";
name = Bold;
shapes = (
{
closed = 1;
nodes = (
(298,270,o),
(346,293,o),
(379,328,cs),
(405,356,o),
(422,391,o),
(422,428,cs),
(422,512,o),
(360,569,o),
(270,569,cs),
(225,569,o),
(184,552,o),
(153,524,cs),
(121,495,o),
(100,455,o),
(100,412,cs),
(100,328,o),
(161,270,o),
(248,270,cs)
);
},
{
closed = 1;
nodes = (
(225,345,o),
(200,380,o),
(200,430,cs),
(200,469,o),
(220,496,o),
(257,496,cs),
(297,496,o),
(322,460,o),
(322,410,cs),
(322,371,o),
(304,345,o),
(265,345,cs)
);
}
);
width = 522;
},
{
layerId = "0DC1F6FB-20EC-4E8F-AE98-F98B5FD714DE";
shapes = (
{
closed = 1;
nodes = (
(243,524,ls),
(364,524,o),
(379,443,o),
(379,398,cs),
(379,343,ls),
(379,300,o),
(369,216,o),
(242,216,cs),
(209,216,ls),
(115,216,o),
(76,255,o),
(73,338,c),
(73,403,l),
(72,483,o),
(115,524,o),
(209,524,cs)
);
},
{
closed = 1;
nodes = (
(38,358,ls),
(38,236,o),
(84,181,o),
(210,181,cs),
(242,181,ls),
(368,181,o),
(414,236,o),
(414,358,cs),
(414,382,ls),
(414,504,o),
(368,559,o),
(242,559,c),
(206,559,l),
(77,559,o),
(38,504,o),
(38,382,cs)
);
}
);
width = 451;
}
);
unicode = 2416;
},
{
color = 6;
glyphname = period;
kernLeft = comma;
kernRight = comma;
lastChange = "2024-03-19 05:01:25 +0000";
layers = (
{
layerId = "B3961A9D-C6DC-4F74-9770-9C992C479D86";
shapes = (
{
closed = 1;
nodes = (
(147,-20,o),
(174,-13,o),
(174,42,cs),
(174,97,o),
(147,104,o),
(112,104,cs),
(77,104,o),
(50,97,o),
(50,42,cs),
(50,-13,o),
(77,-20,o),
(112,-20,cs)
);
}
);
width = 224;
},
{
layerId = "0DC1F6FB-20EC-4E8F-AE98-F98B5FD714DE";
shapes = (
{
closed = 1;
nodes = (
(91,-5,o),
(101,-2,o),
(101,18,cs),
(101,38,o),
(91,41,o),
(78,41,cs),
(65,41,o),
(55,38,o),
(55,18,cs),
(55,-2,o),
(65,-5,o),
(78,-5,cs)
);
}
);
width = 156;
}
);
unicode = 46;
},
{
color = 6;
glyphname = comma;
kernLeft = comma;
kernRight = comma;
lastChange = "2024-03-19 05:01:25 +0000";
layers = (
{
layerId = "B3961A9D-C6DC-4F74-9770-9C992C479D86";
shapes = (
{
closed = 1;
nodes = (
(69,121,l),
(79,23,o),
(74,-77,o),
(23,-162,c),
(111,-188,l),
(189,-116,o),
(213,-3,o),
(196,121,c)
);
}
);
width = 239;
},
{
layerId = "0DC1F6FB-20EC-4E8F-AE98-F98B5FD714DE";
shapes = (
{
closed = 1;
nodes = (
(66,101,l),
(71,8,o),
(69,-24,o),
(33,-97,c),
(58,-110,l),
(96,-50,o),
(113,-3,o),
(101,101,c)
);
}
);
width = 152;
}
);
unicode = 44;
},
{
color = 6;
glyphname = colon;
kernLeft = colon;
lastChange = "2024-03-19 05:01:25 +0000";
layers = (
{
layerId = "B3961A9D-C6DC-4F74-9770-9C992C479D86";
shapes = (
{
closed = 1;
nodes = (
(150,325,o),
(193,336,o),
(193,407,cs),
(193,478,o),
(150,489,o),
(111,489,cs),
(72,489,o),
(29,478,o),
(29,407,cs),
(29,336,o),
(72,325,o),
(111,325,cs)
);
},
{
closed = 1;
nodes = (
(150,-2,o),
(193,9,o),
(193,80,cs),
(193,151,o),
(150,162,o),
(111,162,cs),
(72,162,o),
(29,151,o),
(29,80,cs),
(29,9,o),
(72,-2,o),
(111,-2,cs)
);
}
);
width = 222;
},
{
layerId = "0DC1F6FB-20EC-4E8F-AE98-F98B5FD714DE";
shapes = (
{
closed = 1;
nodes = (
(68,316,o),
(86,321,o),
(86,349,cs),
(86,377,o),
(68,382,o),
(53,382,cs),
(38,382,o),
(20,377,o),
(20,349,cs),
(20,321,o),
(38,316,o),
(53,316,cs)
);
},
{
closed = 1;
nodes = (
(68,9,o),
(86,14,o),
(86,42,cs),
(86,70,o),
(68,75,o),
(53,75,cs),
(38,75,o),
(20,70,o),
(20,42,cs),
(20,14,o),
(38,9,o),
(53,9,cs)
);
}
);
width = 106;
}
);
unicode = 58;
},
{
color = 6;
glyphname = semicolon;
kernLeft = colon;
lastChange = "2024-03-19 05:01:25 +0000";
layers = (
{
guides = (
{
angle = 90;
pos = (58,0);
},
{
angle = 90;
pos = (182,0);
}
);
layerId = "B3961A9D-C6DC-4F74-9770-9C992C479D86";
shapes = (
{
closed = 1;
nodes = (
(155,340,o),
(182,347,o),
(182,402,cs),
(182,457,o),
(155,464,o),
(120,464,cs),
(85,464,o),
(58,457,o),
(58,402,cs),
(58,347,o),
(85,340,o),
(120,340,cs)
);
},
{
closed = 1;
nodes = (
(54,121,l),
(64,23,o),
(59,-77,o),
(8,-162,c),
(96,-188,l),
(174,-116,o),
(202,-3,o),
(185,121,c)
);
}
);
width = 215;
},
{
guides = (
{
angle = 90;
pos = (39,0);
},
{
angle = 90;
pos = (85,0);
}
);
layerId = "0DC1F6FB-20EC-4E8F-AE98-F98B5FD714DE";
shapes = (
{
closed = 1;
nodes = (
(75,395,o),
(85,398,o),
(85,418,cs),
(85,438,o),
(75,441,o),
(62,441,cs),
(49,441,o),
(39,438,o),
(39,418,cs),
(39,398,o),
(49,395,o),
(62,395,cs)
);
},
{
closed = 1;
nodes = (
(43,101,l),
(48,8,o),
(46,-24,o),
(10,-97,c),
(35,-110,l),
(73,-50,o),
(90,-3,o),
(78,101,c)
);
}
);
width = 106;
}
);
unicode = 59;
},
{
color = 6;
glyphname = ellipsis;
kernLeft = comma;
kernRight = comma;
lastChange = "2024-03-19 05:01:24 +0000";
layers = (
{
layerId = "B3961A9D-C6DC-4F74-9770-9C992C479D86";
shapes = (
{
closed = 1;
nodes = (
(147,-20,o),
(174,-13,o),
(174,42,cs),
(174,97,o),
(147,104,o),
(112,104,cs),
(77,104,o),
(50,97,o),
(50,42,cs),
(50,-13,o),
(77,-20,o),
(112,-20,cs)
);
},
{
closed = 1;
nodes = (
(347,-20,o),
(374,-13,o),
(374,42,cs),
(374,97,o),
(347,104,o),
(312,104,cs),
(277,104,o),
(250,97,o),
(250,42,cs),
(250,-13,o),
(277,-20,o),
(312,-20,cs)
);
},
{
closed = 1;
nodes = (
(547,-20,o),
(574,-13,o),
(574,42,cs),
(574,97,o),
(547,104,o),
(512,104,cs),
(477,104,o),
(450,97,o),
(450,42,cs),
(450,-13,o),
(477,-20,o),
(512,-20,cs)
);
}
);
width = 624;
},
{
layerId = "0DC1F6FB-20EC-4E8F-AE98-F98B5FD714DE";
shapes = (
{
closed = 1;
nodes = (
(91,-5,o),
(101,-2,o),
(101,18,cs),
(101,38,o),
(91,41,o),
(78,41,cs),
(65,41,o),
(55,38,o),
(55,18,cs),
(55,-2,o),
(65,-5,o),
(78,-5,cs)
);
},
{
closed = 1;
nodes = (
(261,-5,o),
(271,-2,o),
(271,18,cs),
(271,38,o),
(261,41,o),
(248,41,cs),
(235,41,o),
(225,38,o),
(225,18,cs),
(225,-2,o),
(235,-5,o),
(248,-5,cs)
);
},
{
closed = 1;
nodes = (
(431,-5,o),
(441,-2,o),
(441,18,cs),
(441,38,o),
(431,41,o),
(418,41,cs),
(405,41,o),
(395,38,o),
(395,18,c),
(395,-2,o),
(405,-5,o),
(418,-5,cs)
);
}
);
width = 496;
}
);
unicode = 8230;
},
{
color = 6;
glyphname = exclam;
kernLeft = exclam;
lastChange = "2024-03-19 05:01:25 +0000";
layers = (
{
guides = (
{
angle = 90;
pos = (107,0);
}
);
layerId = "B3961A9D-C6DC-4F74-9770-9C992C479D86";
shapes = (
{
closed = 1;
nodes = (
(158,212,l),
(168,715,l),
(46,715,l),
(56,212,l)
);
},
{
closed = 1;
nodes = (
(142,-20,o),
(169,-13,o),
(169,42,cs),
(169,97,o),
(142,104,o),
(107,104,cs),
(72,104,o),
(45,97,o),
(45,42,cs),
(45,-13,o),
(72,-20,o),
(107,-20,cs)
);
}
);
width = 214;
},
{
layerId = "0DC1F6FB-20EC-4E8F-AE98-F98B5FD714DE";
shapes = (
{
closed = 1;
nodes = (
(86,130,l),
(89,715,l),
(53,715,l),
(56,130,l)
);
},
{
closed = 1;
nodes = (
(84,-5,o),
(94,-2,o),
(94,18,cs),
(94,38,o),
(84,41,o),
(71,41,cs),
(58,41,o),
(48,38,o),
(48,18,cs),
(48,-2,o),
(58,-5,o),
(71,-5,cs)
);
}
);
width = 142;
}
);
unicode = 33;
},
{
color = 6;
glyphname = exclamdown;
lastChange = "2024-03-19 05:01:24 +0000";
layers = (
{
guides = (
{
pos = (-28,537);
}
);
layerId = "B3961A9D-C6DC-4F74-9770-9C992C479D86";
shapes = (
{
closed = 1;
nodes = (
(46,-195,l),
(168,-195,l),
(158,308,l),
(56,308,l)
);
},
{
closed = 1;
nodes = (
(72,540,o),
(45,533,o),
(45,478,cs),
(45,423,o),
(72,416,o),
(107,416,cs),
(142,416,o),
(169,423,o),
(169,478,cs),
(169,533,o),
(142,540,o),
(107,540,cs)
);
}
);
width = 214;
},
{
guides = (
{
pos = (-23,537);
}
);
layerId = "0DC1F6FB-20EC-4E8F-AE98-F98B5FD714DE";
shapes = (
{
closed = 1;
nodes = (
(53,-183,l),
(89,-183,l),
(86,402,l),
(56,402,l)
);
},
{
closed = 1;
nodes = (
(58,537,o),
(48,534,o),
(48,514,cs),
(48,494,o),
(58,491,o),
(71,491,cs),
(84,491,o),
(94,494,o),
(94,514,cs),
(94,534,o),
(84,537,o),
(71,537,cs)
);
}
);
width = 142;
}
);
unicode = 161;
},
{
color = 6;
glyphname = question;
lastChange = "2024-03-19 05:01:24 +0000";
layers = (
{
guides = (
{
pos = (-27,701);
},
{
angle = 90;
pos = (104,0);
},
{
angle = 90;
pos = (230,0);
}
);
layerId = "B3961A9D-C6DC-4F74-9770-9C992C479D86";
shapes = (
{
closed = 1;
nodes = (
(104,296,l),
(244,297,o),
(434,274,o),
(434,476,cs),
(434,504,ls),
(434,681,o),
(314,723,o),
(184,723,cs),
(122,723,o),
(58,710,o),
(6,677,c),
(6,548,l),
(61,578,o),
(116,592,o),
(172,592,cs),
(254,592,o),
(299,571,o),
(299,494,cs),
(299,394,o),
(228,397,o),
(104,394,c)
);
},
{
closed = 1;
nodes = (
(202,-20,o),
(229,-13,o),
(229,42,cs),
(229,97,o),
(202,104,o),
(167,104,cs),
(132,104,o),
(105,97,o),
(105,42,cs),
(105,-13,o),
(132,-20,o),
(167,-20,cs)
);
},
{
closed = 1;
nodes = (
(220,177,l),
(230,324,l),
(104,324,l),
(104,296,l),
(114,177,l)
);
}
);
width = 446;
},
{
guides = (
{
angle = 90;
pos = (75,0);
},
{
angle = 90;
pos = (111,0);
}
);
layerId = "0DC1F6FB-20EC-4E8F-AE98-F98B5FD714DE";
shapes = (
{
closed = 1;
nodes = (
(75,332,l),
(228,332,o),
(368,357,o),
(368,530,cs),
(368,537,ls),
(368,660,o),
(305,713,o),
(175,713,cs),
(113,713,o),
(49,702,o),
(-3,671,c),
(-3,634,l),
(52,662,o),
(106,677,o),
(175,677,cs),
(250,677,o),
(332,663,o),
(332,532,cs),
(332,376,o),
(199,367,o),
(75,364,c)
);
},
{
closed = 1;
nodes = (
(106,-5,o),
(116,-2,o),
(116,18,cs),
(116,38,o),
(106,41,o),
(93,41,cs),
(80,41,o),
(70,38,o),
(70,18,cs),
(70,-2,o),
(80,-5,o),
(93,-5,cs)
);
},
{
closed = 1;
nodes = (
(108,107,l),
(111,354,l),
(75,354,l),
(75,331,l),
(78,107,l)
);
}
);
width = 378;
}
);
unicode = 63;
},
{
color = 6;
glyphname = questiondown;
lastChange = "2024-03-19 05:01:24 +0000";
layers = (
{
guides = (
{
pos = (-28,540);
}
);
layerId = "B3961A9D-C6DC-4F74-9770-9C992C479D86";
shapes = (
{
closed = 1;
nodes = (
(324,-203,o),
(388,-190,o),
(440,-157,c),
(440,-28,l),
(385,-58,o),
(330,-72,o),
(274,-72,cs),
(192,-72,o),
(147,-51,o),
(147,26,cs),
(147,126,o),
(218,123,o),
(342,126,c),
(342,224,l),
(202,223,o),
(12,246,o),
(12,44,cs),
(12,16,ls),
(12,-161,o),
(132,-203,o),
(262,-203,cs)
);
},
{
closed = 1;
nodes = (
(342,196,l),
(342,224,l),
(332,343,l),
(226,343,l),
(216,196,l)
);
},
{
closed = 1;
nodes = (
(314,416,o),
(341,423,o),
(341,478,cs),
(341,533,o),
(314,540,o),
(279,540,cs),
(244,540,o),
(217,533,o),
(217,478,cs),
(217,423,o),
(244,416,o),
(279,416,cs)
);
}
);
width = 446;
},
{
guides = (
{
pos = (-21,537);
}
);
layerId = "0DC1F6FB-20EC-4E8F-AE98-F98B5FD714DE";
shapes = (
{
closed = 1;
nodes = (
(265,-181,o),
(329,-170,o),
(381,-139,c),
(381,-102,l),
(326,-130,o),
(272,-145,o),
(203,-145,cs),
(128,-145,o),
(46,-131,o),
(46,0,cs),
(46,156,o),
(179,165,o),
(303,168,c),
(303,200,l),
(150,200,o),
(10,175,o),
(10,2,cs),
(10,-5,ls),
(10,-128,o),
(73,-181,o),
(203,-181,cs)
);
},
{
closed = 1;
nodes = (
(303,178,l),
(303,201,l),
(300,425,l),
(270,425,l),
(267,178,l)
);
},
{
closed = 1;
nodes = (
(298,491,o),
(308,494,o),
(308,514,cs),
(308,534,o),
(298,537,o),
(285,537,cs),
(272,537,o),
(262,534,o),
(262,514,cs),
(262,494,o),
(272,491,o),
(285,491,cs)
);
}
);
width = 378;
}
);
unicode = 191;
},
{
color = 6;
glyphname = periodcentered;
lastChange = "2024-03-19 05:01:24 +0000";
layers = (
{
layerId = "B3961A9D-C6DC-4F74-9770-9C992C479D86";
shapes = (
{
closed = 1;
nodes = (
(147,266,o),
(174,273,o),
(174,328,cs),
(174,383,o),
(147,390,o),
(112,390,cs),
(77,390,o),
(50,383,o),
(50,328,cs),
(50,273,o),
(77,266,o),
(112,266,cs)
);
}
);
width = 224;
},
{
layerId = "0DC1F6FB-20EC-4E8F-AE98-F98B5FD714DE";
shapes = (
{
closed = 1;
nodes = (
(91,300,o),
(101,303,o),
(101,323,cs),
(101,343,o),
(91,346,o),
(78,346,cs),
(65,346,o),
(55,343,o),
(55,323,cs),
(55,303,o),
(65,300,o),
(78,300,cs)
);
}
);
width = 156;
}
);
unicode = 183;
},
{
color = 6;
glyphname = bullet;
lastChange = "2024-03-19 05:01:25 +0000";
layers = (
{
layerId = "B3961A9D-C6DC-4F74-9770-9C992C479D86";
shapes = (
{
closed = 1;
nodes = (
(211,266,o),
(257,278,o),
(257,372,cs),
(257,466,o),
(211,478,o),
(151,478,cs),
(91,478,o),
(45,466,o),
(45,372,cs),
(45,278,o),
(91,266,o),
(151,266,cs)
);
}
);
width = 302;
},
{
layerId = "0DC1F6FB-20EC-4E8F-AE98-F98B5FD714DE";
shapes = (
{
closed = 1;
nodes = (
(127,300,o),
(148,306,o),
(148,348,cs),
(148,390,o),
(127,396,o),
(100,396,cs),
(72,396,o),
(52,390,o),
(52,348,cs),
(52,306,o),
(72,300,o),
(100,300,cs)
);
}
);
width = 200;
}
);
unicode = 8226;
},
{
color = 6;
glyphname = asterisk;
kernLeft = exclam;
kernRight = asterisk;
lastChange = "2024-03-19 05:01:25 +0000";
layers = (
{
guides = (
{
pos = (-28,404);
}
);
layerId = "B3961A9D-C6DC-4F74-9770-9C992C479D86";
shapes = (
{
closed = 1;
nodes = (
(201,597,l),
(39,648,l),
(6,552,l),
(168,501,l),
(66,371,l),
(148,312,l),
(250,451,l),
(360,312,l),
(438,371,l),
(331,501,l),
(491,552,l),
(461,648,l),
(298,597,l),
(300,771,l),
(199,771,l)
);
}
);
width = 498;
},
{
layerId = "0DC1F6FB-20EC-4E8F-AE98-F98B5FD714DE";
shapes = (
{
closed = 1;
nodes = (
(182,550,l),
(13,600,l),
(4,573,l),
(175,522,l),
(65,383,l),
(87,365,l),
(197,503,l),
(308,363,l),
(330,381,l),
(218,522,l),
(389,573,l),
(380,600,l),
(210,550,l),
(210,731,l),
(182,731,l)
);
}
);
width = 393;
}
);
unicode = 42;
},
{
color = 6;
glyphname = numbersign;
lastChange = "2024-03-19 05:01:24 +0000";
layers = (
{
guides = (
{
pos = (-28,701);
}
);
layerId = "B3961A9D-C6DC-4F74-9770-9C992C479D86";
shapes = (
{
closed = 1;
nodes = (
(487,701,l),
(399,0,l),
(520,0,l),
(608,701,l)
);
},
{
closed = 1;
nodes = (
(44,531,l),
(44,422,l),
(693,422,l),
(693,531,l)
);
},
{
closed = 1;
nodes = (
(197,701,l),
(109,0,l),
(230,0,l),
(318,701,l)
);
},
{
closed = 1;
nodes = (
(13,281,l),
(13,172,l),
(663,172,l),
(663,281,l)
);
}
);
width = 706;
},
{
layerId = "0DC1F6FB-20EC-4E8F-AE98-F98B5FD714DE";
shapes = (
{
closed = 1;
nodes = (
(438,701,l),
(350,0,l),
(380,0,l),
(468,701,l)
);
},
{
closed = 1;
nodes = (
(34,497,l),
(34,471,l),
(559,471,l),
(559,497,l)
);
},
{
closed = 1;
nodes = (
(181,701,l),
(93,0,l),
(123,0,l),
(211,701,l)
);
},
{
closed = 1;
nodes = (
(-1,218,l),
(-1,192,l),
(524,192,l),
(524,218,l)
);
}
);
width = 558;
}
);
unicode = 35;
},
{
color = 6;
glyphname = slash;
kernLeft = slash;
lastChange = "2024-03-19 05:01:25 +0000";
layers = (
{
layerId = "B3961A9D-C6DC-4F74-9770-9C992C479D86";
shapes = (
{
closed = 1;
nodes = (
(385,802,l),
(-6,-169,l),
(134,-169,l),
(525,802,l)
);
}
);
width = 519;
},
{
layerId = "0DC1F6FB-20EC-4E8F-AE98-F98B5FD714DE";
shapes = (
{
closed = 1;
nodes = (
(385,802,l),
(-6,-169,l),
(33,-169,l),
(424,802,l)
);
}
);
width = 418;
}
);
unicode = 47;
},
{
color = 6;
glyphname = backslash;
lastChange = "2024-03-19 05:01:24 +0000";
layers = (
{
layerId = "B3961A9D-C6DC-4F74-9770-9C992C479D86";
shapes = (
{
closed = 1;
nodes = (
(385,-169,l),
(525,-169,l),
(134,802,l),
(-6,802,l)
);
}
);
width = 519;
},
{
layerId = "0DC1F6FB-20EC-4E8F-AE98-F98B5FD714DE";
shapes = (
{
closed = 1;
nodes = (
(385,-169,l),
(424,-169,l),
(33,802,l),
(-6,802,l)
);
}
);
width = 418;
}
);
unicode = 92;
},
{
color = 6;
glyphname = hyphen;
kernLeft = hyphen;
kernRight = hyphen;
lastChange = "2024-03-19 05:01:25 +0000";
layers = (
{
layerId = "B3961A9D-C6DC-4F74-9770-9C992C479D86";
shapes = (
{
closed = 1;
nodes = (
(58,230,l),
(439,230,l),
(439,353,l),
(58,353,l)
);
}
);
width = 496;
},
{
layerId = "0DC1F6FB-20EC-4E8F-AE98-F98B5FD714DE";
shapes = (
{
closed = 1;
nodes = (
(58,275,l),
(339,275,l),
(339,308,l),
(58,308,l)
);
}
);
width = 396;
}
);
unicode = 45;
},
{
color = 6;
glyphname = endash;
kernLeft = hyphen;
kernRight = hyphen;
lastChange = "2024-03-19 05:01:25 +0000";
layers = (
{
layerId = "B3961A9D-C6DC-4F74-9770-9C992C479D86";
shapes = (
{
closed = 1;
nodes = (
(58,230,l),
(549,230,l),
(549,353,l),
(58,353,l)
);
}
);
width = 606;
},
{
layerId = "0DC1F6FB-20EC-4E8F-AE98-F98B5FD714DE";
shapes = (
{
closed = 1;
nodes = (
(58,275,l),
(419,275,l),
(419,308,l),
(58,308,l)
);
}
);
width = 476;
}
);
unicode = 8211;
},
{
color = 6;
glyphname = emdash;
kernLeft = hyphen;
kernRight = hyphen;
lastChange = "2024-03-19 05:01:24 +0000";
layers = (
{
layerId = "B3961A9D-C6DC-4F74-9770-9C992C479D86";
shapes = (
{
closed = 1;
nodes = (
(58,230,l),
(919,230,l),
(919,353,l),
(58,353,l)
);
}
);
width = 976;
},
{
layerId = "0DC1F6FB-20EC-4E8F-AE98-F98B5FD714DE";
shapes = (
{
closed = 1;
nodes = (
(58,275,l),
(719,275,l),
(719,308,l),
(58,308,l)
);
}
);
width = 776;
}
);
unicode = 8212;
},
{
color = 6;
glyphname = underscore;
lastChange = "2024-03-19 05:01:26 +0000";
layers = (
{
layerId = "B3961A9D-C6DC-4F74-9770-9C992C479D86";
shapes = (
{
closed = 1;
nodes = (
(58,-180,l),
(549,-180,l),
(549,-57,l),
(58,-57,l)
);
}
);
width = 606;
},
{
layerId = "0DC1F6FB-20EC-4E8F-AE98-F98B5FD714DE";
shapes = (
{
closed = 1;
nodes = (
(58,-90,l),
(419,-90,l),
(419,-57,l),
(58,-57,l)
);
}
);
width = 476;
}
);
unicode = 95;
},
{
color = 6;
glyphname = parenleft;
kernLeft = parenleft;
kernRight = parenleft;
lastChange = "2024-03-19 05:01:25 +0000";
layers = (
{
guides = (
{
pos = (-33,-169);
},
{
pos = (-33,802);
}
);
layerId = "B3961A9D-C6DC-4F74-9770-9C992C479D86";
shapes = (
{
closed = 1;
nodes = (
(37,124,o),
(67,-3,o),
(167,-169,c),
(292,-169,l),
(214,-31,o),
(173,146,o),
(173,317,cs),
(173,487,o),
(214,664,o),
(292,802,c),
(167,802,l),
(67,636,o),
(37,509,o),
(37,317,cs)
);
}
);
width = 302;
},
{
guides = (
{
pos = (-26,-169);
}
);
layerId = "0DC1F6FB-20EC-4E8F-AE98-F98B5FD714DE";
shapes = (
{
closed = 1;
nodes = (
(37,113,o),
(88,-51,o),
(156,-169,c),
(190,-169,l),
(118,-45,o),
(73,113,o),
(73,317,cs),
(73,520,o),
(118,678,o),
(190,802,c),
(156,802,l),
(88,684,o),
(37,520,o),
(37,317,cs)
);
}
);
width = 199;
}
);
unicode = 40;
},
{
color = 6;
glyphname = parenright;
kernLeft = parenright;
kernRight = parenright;
lastChange = "2024-03-19 05:01:25 +0000";
layers = (
{
layerId = "B3961A9D-C6DC-4F74-9770-9C992C479D86";
shapes = (
{
closed = 1;
nodes = (
(265,509,o),
(235,636,o),
(135,802,c),
(10,802,l),
(88,664,o),
(129,487,o),
(129,317,cs),
(129,146,o),
(88,-31,o),
(10,-169,c),
(135,-169,l),
(235,-3,o),
(265,124,o),
(265,317,cs)
);
}
);
width = 302;
},
{
guides = (
{
pos = (-25,802);
},
{
pos = (-25,-169);
}
);
layerId = "0DC1F6FB-20EC-4E8F-AE98-F98B5FD714DE";
shapes = (
{
closed = 1;
nodes = (
(162,520,o),
(111,684,o),
(43,802,c),
(9,802,l),
(81,678,o),
(126,520,o),
(126,317,cs),
(126,113,o),
(81,-45,o),
(9,-169,c),
(43,-169,l),
(111,-51,o),
(162,113,o),
(162,317,cs)
);
}
);
width = 199;
}
);
unicode = 41;
},
{
color = 6;
glyphname = braceleft;
kernLeft = parenleft;
kernRight = parenleft;
lastChange = "2024-03-19 05:01:26 +0000";
layers = (
{
layerId = "B3961A9D-C6DC-4F74-9770-9C992C479D86";
shapes = (
{
closed = 1;
nodes = (
(327,-169,l),
(327,-58,l),
(313,-58,ls),
(207,-58,o),
(227,19,o),
(231,90,cs),
(232,100,o),
(232,109,o),
(233,120,cs),
(239,203,o),
(242,302,o),
(136,314,c),
(136,318,l),
(234,329,o),
(239,414,o),
(235,493,cs),
(234,510,o),
(232,527,o),
(231,543,cs),
(227,614,o),
(207,691,o),
(313,691,cs),
(327,691,l),
(327,802,l),
(293,802,ls),
(108,802,o),
(88,682,o),
(99,557,cs),
(107,470,o),
(126,385,o),
(13,381,c),
(13,252,l),
(126,248,o),
(107,163,o),
(99,76,cs),
(88,-49,o),
(108,-169,o),
(293,-169,cs)
);
}
);
width = 347;
},
{
guides = (
{
pos = (-26,802);
},
{
pos = (-26,-169);
}
);
layerId = "0DC1F6FB-20EC-4E8F-AE98-F98B5FD714DE";
shapes = (
{
closed = 1;
nodes = (
(293,-169,l),
(293,-135,l),
(264,-135,ls),
(135,-135,o),
(110,-69,o),
(110,68,cs),
(110,111,o),
(111,139,o),
(111,167,cs),
(111,221,o),
(114,303,o),
(47,315,c),
(47,318,l),
(114,330,o),
(111,412,o),
(111,466,cs),
(111,494,o),
(110,522,o),
(110,565,cs),
(110,702,o),
(135,768,o),
(264,768,cs),
(293,768,l),
(293,802,l),
(251,802,ls),
(41,802,o),
(76,607,o),
(76,428,cs),
(76,409,o),
(76,339,o),
(8,336,c),
(8,297,l),
(76,294,o),
(76,224,o),
(76,205,cs),
(76,26,o),
(41,-169,o),
(251,-169,cs)
);
}
);
width = 301;
}
);
unicode = 123;
},
{
color = 6;
glyphname = braceright;
kernLeft = parenright;
kernRight = parenright;
lastChange = "2024-03-19 05:01:25 +0000";
layers = (
{
guides = (
{
angle = 90;
pos = (-1836,0);
}
);
layerId = "B3961A9D-C6DC-4F74-9770-9C992C479D86";
shapes = (
{
closed = 1;
nodes = (
(54,-169,ls),
(239,-169,o),
(259,-49,o),
(248,76,cs),
(240,163,o),
(221,248,o),
(334,252,c),
(334,381,l),
(221,385,o),
(240,470,o),
(248,557,cs),
(259,682,o),
(239,802,o),
(54,802,cs),
(20,802,l),
(20,691,l),
(34,691,ls),
(140,691,o),
(120,614,o),
(116,543,cs),
(115,527,o),
(113,510,o),
(112,493,cs),
(108,414,o),
(113,329,o),
(211,318,c),
(211,314,l),
(105,302,o),
(108,203,o),
(114,120,cs),
(115,109,o),
(115,100,o),
(116,90,cs),
(120,19,o),
(140,-58,o),
(34,-58,cs),
(20,-58,l),
(20,-169,l)
);
}
);
width = 347;
},
{
layerId = "0DC1F6FB-20EC-4E8F-AE98-F98B5FD714DE";
shapes = (
{
closed = 1;
nodes = (
(50,-169,ls),
(260,-169,o),
(225,26,o),
(225,205,cs),
(225,224,o),
(225,294,o),
(293,297,c),
(293,336,l),
(225,339,o),
(225,409,o),
(225,428,cs),
(225,607,o),
(260,802,o),
(50,802,cs),
(8,802,l),
(8,768,l),
(37,768,ls),
(166,768,o),
(191,702,o),
(191,565,cs),
(191,522,o),
(190,494,o),
(190,466,cs),
(190,412,o),
(187,330,o),
(254,318,c),
(254,315,l),
(187,303,o),
(190,221,o),
(190,167,cs),
(190,139,o),
(191,111,o),
(191,68,cs),
(191,-69,o),
(166,-135,o),
(37,-135,cs),
(8,-135,l),
(8,-169,l)
);
}
);
width = 301;
}
);
unicode = 125;
},
{
color = 6;
glyphname = bracketleft;
kernLeft = parenleft;
kernRight = parenleft;
lastChange = "2024-03-19 05:01:25 +0000";
layers = (
{
layerId = "B3961A9D-C6DC-4F74-9770-9C992C479D86";
shapes = (
{
closed = 1;
nodes = (
(174,691,l),
(362,691,l),
(362,802,l),
(174,802,l)
);
},
{
closed = 1;
nodes = (
(69,-169,l),
(199,-169,l),
(199,802,l),
(69,802,l)
);
},
{
closed = 1;
nodes = (
(174,-169,l),
(362,-169,l),
(362,-58,l),
(174,-58,l)
);
}
);
width = 382;
},
{
layerId = "0DC1F6FB-20EC-4E8F-AE98-F98B5FD714DE";
shapes = (
{
closed = 1;
nodes = (
(80,770,l),
(258,770,l),
(258,802,l),
(80,802,l)
);
},
{
closed = 1;
nodes = (
(69,-169,l),
(105,-169,l),
(105,802,l),
(69,802,l)
);
},
{
closed = 1;
nodes = (
(80,-169,l),
(258,-169,l),
(258,-137,l),
(80,-137,l)
);
}
);
width = 266;
}
);
unicode = 91;
},
{
color = 6;
glyphname = bracketright;
kernLeft = parenright;
kernRight = parenright;
lastChange = "2024-03-19 05:01:25 +0000";
layers = (
{
layerId = "B3961A9D-C6DC-4F74-9770-9C992C479D86";
shapes = (
{
closed = 1;
nodes = (
(20,802,l),
(20,691,l),
(208,691,l),
(208,802,l)
);
},
{
closed = 1;
nodes = (
(183,802,l),
(183,-169,l),
(313,-169,l),
(313,802,l)
);
},
{
closed = 1;
nodes = (
(20,-58,l),
(20,-169,l),
(208,-169,l),
(208,-58,l)
);
}
);
width = 382;
},
{
layerId = "0DC1F6FB-20EC-4E8F-AE98-F98B5FD714DE";
shapes = (
{
closed = 1;
nodes = (
(8,802,l),
(8,770,l),
(186,770,l),
(186,802,l)
);
},
{
closed = 1;
nodes = (
(161,802,l),
(161,-169,l),
(197,-169,l),
(197,802,l)
);
},
{
closed = 1;
nodes = (
(8,-137,l),
(8,-169,l),
(186,-169,l),
(186,-137,l)
);
}
);
width = 266;
}
);
unicode = 93;
},
{
color = 6;
glyphname = quotesinglbase;
lastChange = "2024-03-19 05:01:26 +0000";
layers = (
{
layerId = "B3961A9D-C6DC-4F74-9770-9C992C479D86";
shapes = (
{
closed = 1;
nodes = (
(81,121,l),
(91,23,o),
(86,-77,o),
(35,-162,c),
(123,-188,l),
(201,-116,o),
(229,-3,o),
(212,121,c)
);
}
);
width = 265;
},
{
layerId = "0DC1F6FB-20EC-4E8F-AE98-F98B5FD714DE";
shapes = (
{
closed = 1;
nodes = (
(77,101,l),
(82,8,o),
(80,-24,o),
(44,-97,c),
(69,-110,l),
(107,-50,o),
(124,-3,o),
(112,101,c)
);
}
);
width = 174;
}
);
unicode = 8218;
},
{
color = 6;
glyphname = quotedblbase;
lastChange = "2024-03-19 05:01:25 +0000";
layers = (
{
layerId = "B3961A9D-C6DC-4F74-9770-9C992C479D86";
shapes = (
{
closed = 1;
nodes = (
(81,121,l),
(91,23,o),
(86,-77,o),
(35,-162,c),
(123,-188,l),
(201,-116,o),
(229,-3,o),
(212,121,c)
);
},
{
closed = 1;
nodes = (
(341,121,l),
(351,23,o),
(346,-77,o),
(295,-162,c),
(383,-188,l),
(461,-116,o),
(489,-3,o),
(472,121,c)
);
}
);
width = 525;
},
{
layerId = "0DC1F6FB-20EC-4E8F-AE98-F98B5FD714DE";
shapes = (
{
closed = 1;
nodes = (
(77,101,l),
(82,8,o),
(80,-24,o),
(44,-97,c),
(69,-110,l),
(107,-50,o),
(124,-3,o),
(112,101,c)
);
},
{
closed = 1;
nodes = (
(231,101,l),
(236,8,o),
(234,-24,o),
(198,-97,c),
(223,-110,l),
(261,-50,o),
(278,-3,o),
(266,101,c)
);
}
);
width = 328;
}
);
unicode = 8222;
},
{
color = 6;
glyphname = quotedblleft;
kernLeft = quoteleft;
kernRight = quoteleft;
lastChange = "2024-03-19 05:01:25 +0000";
layers = (
{
layerId = "B3961A9D-C6DC-4F74-9770-9C992C479D86";
shapes = (
{
closed = 1;
nodes = (
(445,464,l),
(435,562,o),
(440,662,o),
(491,747,c),
(403,773,l),
(325,701,o),
(297,588,o),
(314,464,c)
);
},
{
closed = 1;
nodes = (
(185,464,l),
(175,562,o),
(180,662,o),
(231,747,c),
(143,773,l),
(65,701,o),
(37,588,o),
(54,464,c)
);
}
);
width = 525;
},
{
layerId = "0DC1F6FB-20EC-4E8F-AE98-F98B5FD714DE";
shapes = (
{
closed = 1;
nodes = (
(251,547,l),
(246,640,o),
(248,672,o),
(284,745,c),
(259,758,l),
(221,698,o),
(204,651,o),
(216,547,c)
);
},
{
closed = 1;
nodes = (
(97,547,l),
(92,640,o),
(94,672,o),
(130,745,c),
(105,758,l),
(67,698,o),
(50,651,o),
(62,547,c)
);
}
);
width = 329;
}
);
unicode = 8220;
},
{
color = 6;
glyphname = quotedblright;
kernLeft = quoteright;
kernRight = quoteright;
lastChange = "2024-03-19 05:01:24 +0000";
layers = (
{
layerId = "B3961A9D-C6DC-4F74-9770-9C992C479D86";
shapes = (
{
closed = 1;
nodes = (
(81,759,l),
(91,661,o),
(86,561,o),
(35,476,c),
(123,450,l),
(201,522,o),
(229,635,o),
(212,759,c)
);
},
{
closed = 1;
nodes = (
(341,759,l),
(351,661,o),
(346,561,o),
(295,476,c),
(383,450,l),
(461,522,o),
(489,635,o),
(472,759,c)
);
}
);
width = 525;
},
{
layerId = "0DC1F6FB-20EC-4E8F-AE98-F98B5FD714DE";
shapes = (
{
closed = 1;
nodes = (
(77,748,l),
(82,655,o),
(80,623,o),
(44,550,c),
(69,537,l),
(107,597,o),
(124,644,o),
(112,748,c)
);
},
{
closed = 1;
nodes = (
(231,748,l),
(236,655,o),
(234,623,o),
(198,550,c),
(223,537,l),
(261,597,o),
(278,644,o),
(266,748,c)
);
}
);
width = 328;
}
);
unicode = 8221;
},
{
color = 6;
glyphname = quoteleft;
kernLeft = quoteleft;
kernRight = quoteleft;
lastChange = "2024-03-19 05:01:25 +0000";
layers = (
{
layerId = "B3961A9D-C6DC-4F74-9770-9C992C479D86";
shapes = (
{
closed = 1;
nodes = (
(185,464,l),
(175,562,o),
(180,662,o),
(231,747,c),
(143,773,l),
(65,701,o),
(37,588,o),
(54,464,c)
);
}
);
width = 265;
},
{
layerId = "0DC1F6FB-20EC-4E8F-AE98-F98B5FD714DE";
shapes = (
{
closed = 1;
nodes = (
(97,547,l),
(92,640,o),
(94,672,o),
(130,745,c),
(105,758,l),
(67,698,o),
(50,651,o),
(62,547,c)
);
}
);
width = 175;
}
);
unicode = 8216;
},
{
color = 6;
glyphname = quoteright;
kernLeft = quoteright;
kernRight = quoteright;
lastChange = "2024-03-19 05:01:25 +0000";
layers = (
{
layerId = "B3961A9D-C6DC-4F74-9770-9C992C479D86";
shapes = (
{
closed = 1;
nodes = (
(81,759,l),
(91,661,o),
(86,561,o),
(35,476,c),
(123,450,l),
(201,522,o),
(229,635,o),
(212,759,c)
);
}
);
width = 265;
},
{
layerId = "0DC1F6FB-20EC-4E8F-AE98-F98B5FD714DE";
shapes = (
{
closed = 1;
nodes = (
(77,748,l),
(82,655,o),
(80,623,o),
(44,550,c),
(69,537,l),
(107,597,o),
(124,644,o),
(112,748,c)
);
}
);
width = 174;
}
);
unicode = 8217;
},
{
color = 6;
glyphname = guilsinglleft;
lastChange = "2024-03-19 05:01:24 +0000";
layers = (
{
layerId = "B3961A9D-C6DC-4F74-9770-9C992C479D86";
shapes = (
{
closed = 1;
nodes = (
(19,266,l),
(19,264,l),
(149,73,l),
(291,73,l),
(156,265,l),
(291,455,l),
(149,455,l)
);
}
);
width = 309;
},
{
layerId = "0DC1F6FB-20EC-4E8F-AE98-F98B5FD714DE";
shapes = (
{
closed = 1;
nodes = (
(19,266,l),
(19,264,l),
(149,73,l),
(191,73,l),
(56,265,l),
(191,455,l),
(149,455,l)
);
}
);
width = 209;
}
);
unicode = 8249;
},
{
color = 6;
glyphname = guilsinglright;
lastChange = "2024-03-19 05:01:26 +0000";
layers = (
{
layerId = "B3961A9D-C6DC-4F74-9770-9C992C479D86";
shapes = (
{
closed = 1;
nodes = (
(17,455,l),
(152,265,l),
(17,73,l),
(159,73,l),
(289,264,l),
(289,266,l),
(159,455,l)
);
}
);
width = 308;
},
{
layerId = "0DC1F6FB-20EC-4E8F-AE98-F98B5FD714DE";
shapes = (
{
closed = 1;
nodes = (
(17,455,l),
(152,265,l),
(17,73,l),
(59,73,l),
(189,264,l),
(189,266,l),
(59,455,l)
);
}
);
width = 208;
}
);
unicode = 8250;
},
{
color = 6;
glyphname = quotedbl;
kernLeft = quotedbl;
kernRight = quotedbl;
lastChange = "2024-03-19 05:01:25 +0000";
layers = (
{
layerId = "B3961A9D-C6DC-4F74-9770-9C992C479D86";
shapes = (
{
closed = 1;
nodes = (
(64,759,l),
(67,625,l),
(76,459,l),
(181,459,l),
(192,625,l),
(195,759,l)
);
},
{
closed = 1;
nodes = (
(304,759,l),
(307,625,l),
(316,459,l),
(421,459,l),
(432,625,l),
(435,759,l)
);
}
);
width = 499;
},
{
layerId = "0DC1F6FB-20EC-4E8F-AE98-F98B5FD714DE";
shapes = (
{
closed = 1;
nodes = (
(66,759,l),
(69,625,l),
(73,481,l),
(93,481,l),
(97,625,l),
(100,759,l)
);
},
{
closed = 1;
nodes = (
(188,759,l),
(191,625,l),
(195,481,l),
(215,481,l),
(219,625,l),
(222,759,l)
);
}
);
width = 288;
}
);
unicode = 34;
},
{
color = 6;
glyphname = quotesingle;
kernLeft = quotedbl;
kernRight = quotedbl;
lastChange = "2024-03-19 05:01:25 +0000";
layers = (
{
layerId = "B3961A9D-C6DC-4F74-9770-9C992C479D86";
shapes = (
{
closed = 1;
nodes = (
(64,759,l),
(67,625,l),
(76,459,l),
(181,459,l),
(192,625,l),
(195,759,l)
);
}
);
width = 259;
},
{
layerId = "0DC1F6FB-20EC-4E8F-AE98-F98B5FD714DE";
shapes = (
{
closed = 1;
nodes = (
(66,759,l),
(69,625,l),
(73,481,l),
(93,481,l),
(97,625,l),
(100,759,l)
);
}
);
width = 166;
}
);
unicode = 39;
},
{
color = 6;
glyphname = florin;
lastChange = "2024-03-19 05:01:25 +0000";
layers = (
{
layerId = "B3961A9D-C6DC-4F74-9770-9C992C479D86";
shapes = (
{
closed = 1;
nodes = (
(48,-175,l),
(217,-168,o),
(233,-90,o),
(246,62,cs),
(279,415,l),
(403,415,l),
(403,517,l),
(288,517,l),
(289,528,l),
(301,620,o),
(296,637,o),
(381,636,c),
(403,636,l),
(403,751,l),
(349,752,ls),
(212,755,o),
(184,696,o),
(167,528,cs),
(166,517,l),
(67,517,l),
(67,415,l),
(156,415,l),
(124,70,ls),
(114,-36,o),
(108,-60,o),
(38,-67,c)
);
}
);
width = 448;
},
{
layerId = "0DC1F6FB-20EC-4E8F-AE98-F98B5FD714DE";
shapes = (
{
closed = 1;
nodes = (
(31,-134,l),
(181,-120,o),
(171,-30,o),
(183,61,c),
(223,498,l),
(375,498,l),
(375,530,l),
(226,530,l),
(231,578,ls),
(239,667,o),
(244,716,o),
(342,716,cs),
(379,716,l),
(379,751,l),
(351,751,ls),
(227,751,o),
(208,714,o),
(195,585,cs),
(190,530,l),
(95,530,l),
(95,498,l),
(187,498,l),
(147,61,l),
(134,-36,o),
(134,-91,o),
(27,-99,c)
);
}
);
width = 413;
}
);
unicode = 402;
},
{
color = 6;
glyphname = at;
lastChange = "2024-03-19 05:01:25 +0000";
layers = (
{
layerId = "B3961A9D-C6DC-4F74-9770-9C992C479D86";
shapes = (
{
closed = 1;
nodes = (
(725,-237,l),
(725,-123,l),
(516,-123,ls),
(236,-123,o),
(165,-20,o),
(165,241,cs),
(165,268,ls),
(165,530,o),
(219,650,o),
(516,650,cs),
(769,650,o),
(872,590,o),
(872,318,cs),
(872,291,ls),
(872,143,o),
(874,85,o),
(818,88,cs),
(786,90,o),
(775,97,o),
(775,211,cs),
(775,506,l),
(653,506,l),
(653,424,l),
(649,424,l),
(623,492,o),
(574,516,o),
(486,516,cs),
(329,516,o),
(259,455,o),
(259,255,cs),
(259,230,ls),
(259,29,o),
(338,-32,o),
(486,-31,cs),
(572,-31,o),
(627,-6,o),
(655,59,c),
(659,59,l),
(682,-17,o),
(760,-22,o),
(822,-22,cs),
(975,-22,o),
(984,95,o),
(984,291,cs),
(984,318,ls),
(984,642,o),
(851,764,o),
(516,764,cs),
(152,764,o),
(51,582,o),
(51,268,cs),
(51,241,ls),
(51,-72,o),
(154,-237,o),
(516,-237,cs)
);
},
{
closed = 1;
nodes = (
(410,69,o),
(382,122,o),
(382,237,cs),
(382,248,ls),
(382,364,o),
(409,416,o),
(517,416,cs),
(625,416,o),
(653,364,o),
(653,248,cs),
(653,237,ls),
(653,122,o),
(624,69,o),
(517,69,cs)
);
}
);
width = 1034;
},
{
guides = (
{
pos = (-33,-9);
}
);
layerId = "0DC1F6FB-20EC-4E8F-AE98-F98B5FD714DE";
shapes = (
{
closed = 1;
nodes = (
(595,-171,l),
(595,-137,l),
(448,-137,ls),
(162,-137,o),
(89,-17,o),
(89,263,cs),
(89,290,ls),
(89,571,o),
(161,690,o),
(448,690,cs),
(736,690,o),
(809,570,o),
(809,290,cs),
(809,263,ls),
(809,112,o),
(822,25,o),
(736,25,cs),
(682,25,o),
(662,40,o),
(661,156,c),
(661,526,l),
(625,526,l),
(625,457,l),
(621,457,l),
(587,510,o),
(529,538,o),
(439,538,cs),
(291,538,o),
(218,477,o),
(218,277,cs),
(218,252,ls),
(218,51,o),
(294,-9,o),
(439,-9,cs),
(533,-9,o),
(592,22,o),
(626,80,c),
(629,80,l),
(640,8,o),
(670,-9,o),
(736,-9,cs),
(860,-9,o),
(843,113,o),
(843,263,cs),
(843,290,ls),
(843,586,o),
(760,724,o),
(448,724,cs),
(135,724,o),
(55,585,o),
(55,290,cs),
(55,263,ls),
(55,-31,o),
(136,-171,o),
(448,-171,cs)
);
},
{
closed = 1;
nodes = (
(293,27,o),
(254,100,o),
(254,257,cs),
(254,272,ls),
(254,430,o),
(291,502,o),
(439,502,cs),
(586,502,o),
(625,430,o),
(625,272,cs),
(625,257,ls),
(625,100,o),
(584,27,o),
(439,27,cs)
);
}
);
width = 899;
}
);
unicode = 64;
},
{
color = 6;
glyphname = ampersand;
lastChange = "2024-03-19 05:01:25 +0000";
layers = (
{
layerId = "B3961A9D-C6DC-4F74-9770-9C992C479D86";
shapes = (
{
closed = 1;
nodes = (
(206,105,o),
(170,132,o),
(165,190,c),
(159,258,o),
(175,286,o),
(235,301,c),
(397,149,l),
(368,120,o),
(331,105,o),
(273,105,c)
);
},
{
closed = 1;
nodes = (
(692,15,l),
(545,160,l),
(574,231,o),
(582,312,o),
(584,399,c),
(468,399,l),
(468,344,o),
(465,290,o),
(452,244,c),
(237,439,o),
(210,498,o),
(213,541,c),
(216,585,o),
(253,600,o),
(330,595,c),
(378,592,o),
(428,581,o),
(474,563,c),
(474,672,l),
(435,692,o),
(391,702,o),
(338,707,c),
(176,722,o),
(97,659,o),
(93,544,c),
(89,440,o),
(140,395,o),
(162,381,c),
(162,377,l),
(71,339,o),
(43,289,o),
(43,188,c),
(43,56,o),
(130,-13,o),
(270,-13,cs),
(373,-13,o),
(441,14,o),
(488,62,c),
(553,0,l),
(692,0,l)
);
}
);
width = 714;
},
{
layerId = "0DC1F6FB-20EC-4E8F-AE98-F98B5FD714DE";
shapes = (
{
closed = 1;
nodes = (
(177,22,o),
(86,59,o),
(76,175,cs),
(67,274,o),
(117,342,o),
(199,369,c),
(466,118,l),
(427,64,o),
(371,22,o),
(266,22,cs)
);
},
{
closed = 1;
nodes = (
(632,7,l),
(511,125,l),
(545,188,o),
(562,231,o),
(571,363,c),
(537,363,l),
(532,272,o),
(520,213,o),
(484,149,c),
(206,412,o),
(130,464,o),
(134,558,cs),
(138,660,o),
(210,679,o),
(310,674,cs),
(351,672,o),
(416,657,o),
(458,644,c),
(458,677,l),
(411,693,o),
(366,704,o),
(317,708,cs),
(201,717,o),
(99,689,o),
(99,556,cs),
(99,473,o),
(145,427,o),
(181,394,c),
(181,391,l),
(74,352,o),
(39,287,o),
(41,177,cs),
(43,52,o),
(138,-12,o),
(264,-12,cs),
(387,-12,o),
(446,35,o),
(491,95,c),
(590,0,l),
(632,0,l)
);
}
);
width = 654;
}
);
unicode = 38;
},
{
color = 6;
glyphname = paragraph;
lastChange = "2024-03-19 05:01:25 +0000";
layers = (
{
layerId = "B3961A9D-C6DC-4F74-9770-9C992C479D86";
shapes = (
{
closed = 1;
nodes = (
(244,0,l),
(374,0,l),
(374,700,l),
(244,700,l)
);
},
{
closed = 1;
nodes = (
(271,700,l),
(261,700,o),
(200,700,o),
(200,700,c),
(89,700,o),
(41,645,o),
(41,525,cs),
(41,513,ls),
(41,394,o),
(91,339,o),
(200,339,c),
(271,339,l)
);
},
{
closed = 1;
nodes = (
(464,0,l),
(594,0,l),
(594,700,l),
(464,700,l)
);
}
);
width = 680;
},
{
layerId = "0DC1F6FB-20EC-4E8F-AE98-F98B5FD714DE";
shapes = (
{
closed = 1;
nodes = (
(217,0,l),
(253,0,l),
(253,700,l),
(217,700,l)
);
},
{
closed = 1;
nodes = (
(228,700,l),
(219,700,o),
(190,700,o),
(190,700,c),
(85,700,o),
(40,648,o),
(40,535,cs),
(40,524,ls),
(40,412,o),
(87,360,o),
(190,360,c),
(228,360,l)
);
},
{
closed = 1;
nodes = (
(387,0,l),
(423,0,l),
(423,700,l),
(387,700,l)
);
}
);
width = 509;
}
);
unicode = 182;
},
{
color = 6;
glyphname = section;
lastChange = "2024-03-19 05:01:26 +0000";
layers = (
{
layerId = "B3961A9D-C6DC-4F74-9770-9C992C479D86";
shapes = (
{
closed = 1;
nodes = (
(63,4,l),
(135,-16,o),
(203,-30,o),
(273,-33,cs),
(355,-36,o),
(377,-19,o),
(381,19,cs),
(386,68,o),
(345,88,o),
(295,98,cs),
(83,145,o),
(63,212,o),
(63,312,cs),
(63,355,o),
(81,387,o),
(116,410,c),
(70,448,o),
(63,494,o),
(63,551,cs),
(63,642,o),
(137,714,o),
(287,711,cs),
(362,710,o),
(422,698,o),
(490,672,c),
(490,558,l),
(431,589,o),
(366,610,o),
(305,610,cs),
(233,610,o),
(192,591,o),
(192,542,cs),
(192,484,o),
(235,467,o),
(339,444,cs),
(547,396,o),
(558,242,o),
(480,132,c),
(502,105,o),
(509,70,o),
(509,22,cs),
(509,-99,o),
(433,-134,o),
(276,-134,cs),
(206,-133,o),
(132,-119,o),
(63,-99,c)
);
},
{
closed = 1;
nodes = (
(192,245,o),
(237,232,o),
(339,205,cs),
(353,201,o),
(367,197,o),
(378,193,c),
(428,277,o),
(367,322,o),
(295,338,c),
(268,345,o),
(243,350,o),
(221,358,c),
(201,346,o),
(192,328,o),
(192,303,cs)
);
}
);
width = 575;
},
{
layerId = "0DC1F6FB-20EC-4E8F-AE98-F98B5FD714DE";
shapes = (
{
closed = 1;
nodes = (
(53,-46,l),
(115,-65,o),
(176,-77,o),
(236,-79,cs),
(415,-83,o),
(409,-1,o),
(410,34,cs),
(413,131,o),
(299,163,o),
(255,177,cs),
(129,214,o),
(53,250,o),
(53,348,cs),
(53,396,o),
(71,432,o),
(105,457,c),
(71,482,o),
(53,515,o),
(53,562,cs),
(53,658,o),
(119,713,o),
(249,711,cs),
(314,710,o),
(366,696,o),
(425,666,c),
(425,632,l),
(374,662,o),
(309,681,o),
(249,681,cs),
(173,681,o),
(85,661,o),
(85,562,cs),
(85,477,o),
(171,449,o),
(260,421,cs),
(380,384,o),
(470,313,o),
(396,144,c),
(426,118,o),
(442,85,o),
(442,37,cs),
(442,-75,o),
(375,-109,o),
(239,-109,cs),
(177,-108,o),
(113,-98,o),
(53,-77,c)
);
},
{
closed = 1;
nodes = (
(85,263,o),
(171,235,o),
(260,206,cs),
(305,192,o),
(342,179,o),
(372,161,c),
(451,329,o),
(298,378,o),
(255,391,cs),
(205,407,o),
(163,422,o),
(130,440,c),
(104,422,o),
(85,393,o),
(85,348,cs)
);
}
);
width = 489;
}
);
unicode = 167;
},
{
color = 6;
glyphname = copyright;
kernRight = copyright;
lastChange = "2024-03-19 05:01:25 +0000";
layers = (
{
guides = (
{
pos = (-44,701);
}
);
layerId = "B3961A9D-C6DC-4F74-9770-9C992C479D86";
shapes = (
{
closed = 1;
nodes = (
(603,-9,o),
(739,89,o),
(739,330,cs),
(739,362,ls),
(739,603,o),
(603,701,o),
(395,701,cs),
(187,701,o),
(52,602,o),
(52,362,cs),
(52,330,ls),
(52,89,o),
(187,-9,o),
(395,-9,cs)
);
},
{
closed = 1;
nodes = (
(216,56,o),
(117,144,o),
(117,336,cs),
(117,355,ls),
(117,549,o),
(215,636,o),
(395,636,cs),
(575,636,o),
(674,549,o),
(674,355,cs),
(674,336,ls),
(674,144,o),
(575,56,o),
(395,56,cs)
);
},
{
closed = 1;
nodes = (
(452,122,o),
(508,132,o),
(532,148,c),
(532,226,l),
(505,212,o),
(463,204,o),
(422,204,cs),
(333,204,o),
(310,247,o),
(310,341,cs),
(310,350,ls),
(310,445,o),
(333,488,o),
(422,488,cs),
(463,488,o),
(505,480,o),
(532,465,c),
(532,544,l),
(508,560,o),
(452,570,o),
(409,570,cs),
(284,570,o),
(210,520,o),
(210,356,cs),
(210,336,ls),
(210,172,o),
(284,122,o),
(409,122,cs)
);
}
);
width = 791;
},
{
layerId = "0DC1F6FB-20EC-4E8F-AE98-F98B5FD714DE";
shapes = (
{
closed = 1;
nodes = (
(586,-9,o),
(702,79,o),
(702,330,cs),
(702,362,ls),
(702,613,o),
(586,701,o),
(378,701,cs),
(170,701,o),
(55,612,o),
(55,362,cs),
(55,330,ls),
(55,79,o),
(170,-9,o),
(378,-9,cs)
);
},
{
closed = 1;
nodes = (
(179,24,o),
(89,122,o),
(89,336,cs),
(89,356,ls),
(89,573,o),
(178,669,o),
(378,669,cs),
(578,669,o),
(668,573,o),
(668,356,cs),
(668,336,ls),
(668,122,o),
(578,24,o),
(378,24,cs)
);
},
{
closed = 1;
nodes = (
(440,103,o),
(481,115,o),
(514,136,c),
(514,170,l),
(488,152,o),
(448,136,o),
(389,136,cs),
(259,136,o),
(225,200,o),
(225,340,cs),
(225,352,ls),
(225,493,o),
(257,557,o),
(389,557,cs),
(449,557,o),
(488,543,o),
(514,525,c),
(514,560,l),
(485,578,o),
(440,589,o),
(389,589,cs),
(257,589,o),
(192,534,o),
(192,357,cs),
(192,335,ls),
(192,157,o),
(260,103,o),
(389,103,cs)
);
}
);
width = 757;
}
);
unicode = 169;
},
{
color = 6;
glyphname = registered;
kernLeft = exclam;
lastChange = "2024-03-19 05:01:25 +0000";
layers = (
{
layerId = "B3961A9D-C6DC-4F74-9770-9C992C479D86";
shapes = (
{
closed = 1;
nodes = (
(366,308,o),
(442,361,o),
(442,495,cs),
(442,513,ls),
(442,648,o),
(366,701,o),
(251,701,cs),
(136,701,o),
(61,647,o),
(61,513,cs),
(61,495,ls),
(61,361,o),
(136,308,o),
(251,308,cs)
);
},
{
closed = 1;
nodes = (
(156,350,o),
(103,396,o),
(103,499,cs),
(103,509,ls),
(103,613,o),
(155,659,o),
(251,659,cs),
(347,659,o),
(400,613,o),
(400,509,cs),
(400,499,ls),
(400,396,o),
(347,350,o),
(251,350,cs)
);
},
{
closed = 1;
nodes = (
(224,402,l),
(224,482,l),
(249,482,l),
(288,402,l),
(332,402,l),
(289,484,l),
(310,488,o),
(329,499,o),
(329,533,cs),
(329,555,ls),
(329,610,o),
(281,607,o),
(254,607,cs),
(184,607,l),
(184,402,l)
);
},
{
closed = 1;
nodes = (
(224,575,l),
(258,575,ls),
(278,575,o),
(289,570,o),
(289,550,cs),
(289,540,ls),
(289,520,o),
(278,514,o),
(258,514,cs),
(224,514,l)
);
}
);
width = 503;
},
{
guides = (
{
angle = 90;
pos = (320,0);
}
);
layerId = "0DC1F6FB-20EC-4E8F-AE98-F98B5FD714DE";
shapes = (
{
closed = 1;
nodes = (
(366,308,o),
(442,361,o),
(442,495,cs),
(442,513,ls),
(442,648,o),
(366,701,o),
(251,701,cs),
(136,701,o),
(61,647,o),
(61,513,cs),
(61,495,ls),
(61,361,o),
(136,308,o),
(251,308,cs)
);
},
{
closed = 1;
nodes = (
(145,334,o),
(87,385,o),
(87,499,cs),
(87,509,ls),
(87,624,o),
(144,675,o),
(251,675,cs),
(358,675,o),
(416,624,o),
(416,509,cs),
(416,499,ls),
(416,385,o),
(358,334,o),
(251,334,cs)
);
},
{
closed = 1;
nodes = (
(204,379,l),
(204,488,l),
(248,488,l),
(308,379,l),
(334,379,l),
(274,488,l),
(304,491,o),
(330,501,o),
(330,543,cs),
(330,581,ls),
(330,633,o),
(277,632,o),
(249,632,cs),
(182,632,l),
(182,379,l)
);
},
{
closed = 1;
nodes = (
(204,613,l),
(238,613,ls),
(260,613,o),
(308,617,o),
(308,580,cs),
(308,546,ls),
(308,517,o),
(293,507,o),
(244,507,cs),
(204,507,l)
);
}
);
width = 503;
}
);
unicode = 174;
},
{
color = 6;
glyphname = trademark;
kernLeft = exclam;
lastChange = "2024-03-19 05:01:24 +0000";
layers = (
{
guides = (
{
pos = (-22,701);
},
{
pos = (-22,398);
}
);
layerId = "B3961A9D-C6DC-4F74-9770-9C992C479D86";
shapes = (
{
closed = 1;
nodes = (
(339,398,l),
(354,638,l),
(355,638,l),
(424,398,l),
(497,398,l),
(565,638,l),
(567,638,l),
(581,398,l),
(639,398,l),
(621,701,l),
(538,701,l),
(461,449,l),
(460,449,l),
(384,701,l),
(299,701,l),
(281,398,l)
);
},
{
closed = 1;
nodes = (
(164,398,l),
(164,654,l),
(235,654,l),
(235,701,l),
(34,701,l),
(34,654,l),
(106,654,l),
(106,398,l)
);
}
);
width = 716;
},
{
guides = (
{
pos = (-10,398);
},
{
pos = (-10,701);
}
);
layerId = "0DC1F6FB-20EC-4E8F-AE98-F98B5FD714DE";
shapes = (
{
closed = 1;
nodes = (
(307,400,l),
(318,674,l),
(320,674,l),
(415,400,l),
(439,400,l),
(534,674,l),
(535,674,l),
(547,400,l),
(566,400,l),
(554,701,l),
(525,701,l),
(428,419,l),
(426,419,l),
(329,701,l),
(301,701,l),
(288,400,l)
);
},
{
closed = 1;
nodes = (
(144,400,l),
(144,683,l),
(241,683,l),
(241,701,l),
(28,701,l),
(28,683,l),
(125,683,l),
(125,400,l)
);
}
);
width = 646;
}
);
unicode = 8482;
},
{
color = 6;
glyphname = degree;
lastChange = "2024-03-19 05:01:24 +0000";
layers = (
{
layerId = "B3961A9D-C6DC-4F74-9770-9C992C479D86";
shapes = (
{
closed = 1;
nodes = (
(298,398,o),
(353,432,o),
(353,543,c),
(353,557,l),
(353,668,o),
(298,701,o),
(210,701,c),
(122,701,o),
(68,667,o),
(68,557,c),
(68,543,l),
(68,432,o),
(122,398,o),
(210,398,c)
);
},
{
closed = 1;
nodes = (
(151,454,o),
(136,484,o),
(136,547,c),
(136,553,l),
(136,617,o),
(150,645,o),
(210,645,c),
(270,645,o),
(285,617,o),
(285,553,c),
(285,547,l),
(285,484,o),
(270,454,o),
(210,454,c)
);
}
);
width = 421;
},
{
layerId = "0DC1F6FB-20EC-4E8F-AE98-F98B5FD714DE";
shapes = (
{
closed = 1;
nodes = (
(272,400,o),
(316,433,o),
(316,543,c),
(316,557,l),
(316,668,o),
(272,701,o),
(193,701,c),
(111,701,o),
(71,667,o),
(71,557,c),
(71,543,l),
(71,433,o),
(113,400,o),
(193,400,c)
);
},
{
closed = 1;
nodes = (
(114,422,o),
(92,462,o),
(92,547,c),
(92,555,l),
(92,641,o),
(112,680,o),
(193,680,c),
(273,680,o),
(295,641,o),
(295,555,c),
(295,547,l),
(295,462,o),
(272,422,o),
(193,422,c)
);
}
);
width = 386;
}
);
unicode = 176;
},
{
color = 6;
glyphname = bar;
kernLeft = slash;
kernRight = bar;
lastChange = "2024-03-19 05:01:26 +0000";
layers = (
{
layerId = "B3961A9D-C6DC-4F74-9770-9C992C479D86";
shapes = (
{
closed = 1;
nodes = (
(86,-309,l),
(218,-309,l),
(218,883,l),
(86,883,l)
);
}
);
width = 304;
},
{
layerId = "0DC1F6FB-20EC-4E8F-AE98-F98B5FD714DE";
shapes = (
{
closed = 1;
nodes = (
(86,-309,l),
(122,-309,l),
(122,883,l),
(86,883,l)
);
}
);
width = 208;
}
);
unicode = 124;
},
{
color = 6;
glyphname = brokenbar;
lastChange = "2024-03-19 05:01:25 +0000";
layers = (
{
layerId = "B3961A9D-C6DC-4F74-9770-9C992C479D86";
shapes = (
{
closed = 1;
nodes = (
(206,418,l),
(206,883,l),
(74,883,l),
(74,418,l)
);
},
{
closed = 1;
nodes = (
(206,-309,l),
(206,156,l),
(74,156,l),
(74,-309,l)
);
}
);
width = 281;
},
{
layerId = "0DC1F6FB-20EC-4E8F-AE98-F98B5FD714DE";
shapes = (
{
closed = 1;
nodes = (
(115,418,l),
(115,883,l),
(79,883,l),
(79,418,l)
);
},
{
closed = 1;
nodes = (
(115,-309,l),
(115,156,l),
(79,156,l),
(79,-309,l)
);
}
);
width = 194;
}
);
unicode = 166;
},
{
color = 6;
glyphname = cent;
lastChange = "2024-03-19 05:01:24 +0000";
layers = (
{
layerId = "B3961A9D-C6DC-4F74-9770-9C992C479D86";
shapes = (
{
closed = 1;
nodes = (
(350,-8,o),
(417,5,o),
(447,24,c),
(447,119,l),
(414,102,o),
(362,92,o),
(312,92,cs),
(204,92,o),
(177,144,o),
(177,260,cs),
(177,270,ls),
(177,386,o),
(204,438,o),
(312,438,cs),
(362,438,o),
(414,428,o),
(447,411,c),
(447,506,l),
(417,525,o),
(350,538,o),
(297,538,cs),
(145,538,o),
(54,477,o),
(54,277,cs),
(54,253,ls),
(54,53,o),
(145,-8,o),
(297,-8,cs)
);
},
{
closed = 1;
nodes = (
(347,-104,l),
(347,30,l),
(247,30,l),
(247,-104,l)
);
},
{
closed = 1;
nodes = (
(347,500,l),
(347,634,l),
(247,634,l),
(247,500,l)
);
}
);
width = 500;
},
{
layerId = "0DC1F6FB-20EC-4E8F-AE98-F98B5FD714DE";
shapes = (
{
closed = 1;
nodes = (
(334,-9,o),
(381,5,o),
(417,28,c),
(417,66,l),
(389,48,o),
(343,27,o),
(276,27,cs),
(130,27,o),
(91,100,o),
(91,257,cs),
(91,272,ls),
(91,430,o),
(128,502,o),
(276,502,cs),
(344,502,o),
(382,487,o),
(417,466,c),
(417,505,l),
(384,526,o),
(334,538,o),
(276,538,cs),
(128,538,o),
(55,477,o),
(55,277,cs),
(55,252,ls),
(55,51,o),
(131,-9,o),
(276,-9,cs)
);
},
{
closed = 1;
nodes = (
(291,-105,l),
(291,9,l),
(261,9,l),
(261,-105,l)
);
},
{
closed = 1;
nodes = (
(291,520,l),
(291,634,l),
(261,634,l),
(261,520,l)
);
}
);
width = 459;
}
);
unicode = 162;
},
{
color = 6;
glyphname = currency;
lastChange = "2024-03-19 05:01:25 +0000";
layers = (
{
guides = (
{
pos = (-45,467);
},
{
pos = (-45,98);
}
);
layerId = "B3961A9D-C6DC-4F74-9770-9C992C479D86";
shapes = (
{
closed = 1;
nodes = (
(357,283,ls),
(357,202,o),
(338,172,o),
(262,172,cs),
(187,172,o),
(168,202,o),
(168,283,cs),
(168,286,ls),
(168,367,o),
(187,397,o),
(262,397,cs),
(338,397,o),
(357,367,o),
(357,286,cs)
);
},
{
closed = 1;
nodes = (
(78,278,ls),
(78,138,o),
(151,102,o),
(262,102,cs),
(374,102,o),
(447,137,o),
(447,278,cs),
(447,291,ls),
(447,432,o),
(374,467,o),
(262,467,cs),
(151,467,o),
(78,431,o),
(78,291,cs)
);
},
{
closed = 1;
nodes = (
(334,457,l),
(398,414,l),
(456,519,l),
(388,555,l)
);
},
{
closed = 1;
nodes = (
(70,519,l),
(128,414,l),
(192,457,l),
(138,555,l)
);
},
{
closed = 1;
nodes = (
(456,50,l),
(398,155,l),
(334,112,l),
(388,14,l)
);
},
{
closed = 1;
nodes = (
(192,112,l),
(128,155,l),
(70,50,l),
(138,14,l)
);
}
);
width = 526;
},
{
guides = (
{
pos = (-37,526);
}
);
layerId = "0DC1F6FB-20EC-4E8F-AE98-F98B5FD714DE";
shapes = (
{
closed = 1;
nodes = (
(392,280,ls),
(392,171,o),
(363,130,o),
(253,130,cs),
(142,130,o),
(115,171,o),
(115,280,cs),
(115,285,ls),
(115,394,o),
(142,435,o),
(253,435,cs),
(363,435,o),
(392,394,o),
(392,285,cs)
);
},
{
closed = 1;
nodes = (
(83,276,ls),
(83,132,o),
(139,98,o),
(253,98,cs),
(363,98,o),
(424,131,o),
(424,276,cs),
(424,289,ls),
(424,434,o),
(363,467,o),
(253,467,cs),
(139,467,o),
(83,433,o),
(83,289,cs)
);
},
{
closed = 1;
nodes = (
(355,439,l),
(381,424,l),
(437,510,l),
(412,526,l)
);
},
{
closed = 1;
nodes = (
(68,510,l),
(124,424,l),
(150,439,l),
(93,526,l)
);
},
{
closed = 1;
nodes = (
(437,55,l),
(381,141,l),
(355,126,l),
(412,39,l)
);
},
{
closed = 1;
nodes = (
(150,126,l),
(124,141,l),
(68,55,l),
(93,39,l)
);
}
);
width = 506;
}
);
unicode = 164;
},
{
color = 6;
glyphname = dollar;
lastChange = "2024-03-19 05:01:25 +0000";
layers = (
{
layerId = "B3961A9D-C6DC-4F74-9770-9C992C479D86";
shapes = (
{
closed = 1;
nodes = (
(74,329,o),
(53,407,o),
(53,524,cs),
(53,630,o),
(131,714,o),
(290,711,cs),
(369,710,o),
(433,695,o),
(504,665,c),
(504,532,l),
(442,568,o),
(373,592,o),
(309,592,cs),
(232,592,o),
(189,570,o),
(189,513,cs),
(189,446,o),
(237,429,o),
(345,398,c),
(485,356,o),
(525,303,o),
(525,183,cs),
(525,42,o),
(444,-8,o),
(278,-8,c),
(204,-7,o),
(126,8,o),
(53,33,c),
(53,153,l),
(129,129,o),
(201,113,o),
(275,110,cs),
(362,106,o),
(385,134,o),
(389,180,cs),
(394,236,o),
(351,261,o),
(298,274,cs)
);
},
{
closed = 1;
nodes = (
(242,822,l),
(342,822,l),
(342,668,l),
(242,668,l)
);
},
{
closed = 1;
nodes = (
(242,35,l),
(342,35,l),
(342,-119,l),
(242,-119,l)
);
}
);
width = 574;
},
{
layerId = "0DC1F6FB-20EC-4E8F-AE98-F98B5FD714DE";
shapes = (
{
closed = 1;
nodes = (
(130,375,o),
(45,418,o),
(45,534,cs),
(45,647,o),
(119,713,o),
(264,711,cs),
(337,710,o),
(396,693,o),
(462,657,c),
(462,617,l),
(404,653,o),
(332,675,o),
(264,675,cs),
(179,675,o),
(81,651,o),
(81,534,cs),
(81,433,o),
(177,400,o),
(277,366,c),
(406,324,o),
(481,282,o),
(481,165,cs),
(481,33,o),
(406,-8,o),
(253,-8,c),
(184,-7,o),
(112,5,o),
(45,30,c),
(45,68,l),
(115,44,o),
(183,30,o),
(250,28,cs),
(450,23,o),
(444,121,o),
(445,162,cs),
(448,277,o),
(320,316,o),
(271,331,cs)
);
},
{
closed = 1;
nodes = (
(248,810,l),
(282,810,l),
(282,696,l),
(248,696,l)
);
},
{
closed = 1;
nodes = (
(248,7,l),
(282,7,l),
(282,-107,l),
(248,-107,l)
);
}
);
width = 524;
}
);
unicode = 36;
},
{
color = 6;
glyphname = sterling;
lastChange = "2024-03-19 05:01:25 +0000";
layers = (
{
layerId = "B3961A9D-C6DC-4F74-9770-9C992C479D86";
shapes = (
{
closed = 1;
nodes = (
(57,0,l),
(599,0,l),
(599,118,l),
(185,118,l),
(185,122,l),
(332,261,o),
(255,437,o),
(250,495,cs),
(243,569,o),
(292,592,o),
(369,592,cs),
(433,592,o),
(502,572,o),
(564,536,c),
(564,656,l),
(502,686,o),
(421,708,o),
(342,711,cs),
(183,717,o),
(110,636,o),
(116,524,cs),
(122,410,o),
(213,332,o),
(57,118,c)
);
},
{
closed = 1;
nodes = (
(57,286,l),
(541,286,l),
(541,392,l),
(57,392,l)
);
}
);
width = 645;
},
{
layerId = "0DC1F6FB-20EC-4E8F-AE98-F98B5FD714DE";
shapes = (
{
closed = 1;
nodes = (
(42,0,l),
(575,0,l),
(575,36,l),
(79,36,l),
(79,40,l),
(219,206,o),
(149,442,o),
(144,500,cs),
(137,574,o),
(144,678,o),
(327,675,cs),
(391,674,o),
(475,654,o),
(537,618,c),
(537,659,l),
(475,689,o),
(406,707,o),
(327,711,cs),
(168,719,o),
(100,633,o),
(106,521,cs),
(112,407,o),
(192,247,o),
(42,36,c)
);
},
{
closed = 1;
nodes = (
(42,356,l),
(496,356,l),
(496,392,l),
(42,392,l)
);
}
);
width = 607;
}
);
unicode = 163;
},
{
color = 6;
glyphname = yen;
lastChange = "2024-03-19 05:01:24 +0000";
layers = (
{
layerId = "B3961A9D-C6DC-4F74-9770-9C992C479D86";
shapes = (
{
closed = 1;
nodes = (
(411,0,l),
(411,290,l),
(632,701,l),
(486,701,l),
(341,415,l),
(337,415,l),
(194,701,l),
(46,701,l),
(268,292,l),
(268,0,l)
);
},
{
closed = 1;
nodes = (
(609,137,l),
(609,229,l),
(70,229,l),
(70,137,l)
);
},
{
closed = 1;
nodes = (
(609,317,l),
(609,409,l),
(70,409,l),
(70,317,l)
);
}
);
width = 678;
},
{
layerId = "0DC1F6FB-20EC-4E8F-AE98-F98B5FD714DE";
shapes = (
{
closed = 1;
nodes = (
(288,0,l),
(288,308,l),
(497,701,l),
(457,701,l),
(272,341,l),
(268,341,l),
(85,701,l),
(45,701,l),
(252,308,l),
(252,0,l)
);
},
{
closed = 1;
nodes = (
(489,157,l),
(489,189,l),
(51,189,l),
(51,157,l)
);
},
{
closed = 1;
nodes = (
(489,307,l),
(489,339,l),
(51,339,l),
(51,307,l)
);
}
);
width = 541;
}
);
unicode = 165;
},
{
color = 6;
glyphname = plus;
lastChange = "2024-03-19 05:01:25 +0000";
layers = (
{
layerId = "B3961A9D-C6DC-4F74-9770-9C992C479D86";
shapes = (
{
closed = 1;
nodes = (
(211,156,l),
(333,156,l),
(333,636,l),
(211,636,l)
);
},
{
closed = 1;
nodes = (
(42,453,l),
(42,339,l),
(502,339,l),
(502,453,l)
);
}
);
width = 544;
},
{
layerId = "0DC1F6FB-20EC-4E8F-AE98-F98B5FD714DE";
shapes = (
{
closed = 1;
nodes = (
(224,166,l),
(258,166,l),
(258,626,l),
(224,626,l)
);
},
{
closed = 1;
nodes = (
(31,412,l),
(31,380,l),
(451,380,l),
(451,412,l)
);
}
);
width = 482;
}
);
unicode = 43;
},
{
color = 6;
glyphname = minus;
kernLeft = hyphen;
kernRight = hyphen;
lastChange = "2024-03-19 05:01:25 +0000";
layers = (
{
layerId = "B3961A9D-C6DC-4F74-9770-9C992C479D86";
shapes = (
{
closed = 1;
nodes = (
(86,453,l),
(86,339,l),
(536,339,l),
(536,453,l)
);
}
);
width = 622;
},
{
layerId = "0DC1F6FB-20EC-4E8F-AE98-F98B5FD714DE";
shapes = (
{
closed = 1;
nodes = (
(86,412,l),
(86,380,l),
(466,380,l),
(466,412,l)
);
}
);
width = 552;
}
);
unicode = 8722;
},
{
color = 6;
glyphname = multiply;
lastChange = "2024-03-19 05:01:24 +0000";
layers = (
{
layerId = "B3961A9D-C6DC-4F74-9770-9C992C479D86";
shapes = (
{
closed = 1;
nodes = (
(428,639,l),
(37,237,l),
(123,153,l),
(514,556,l)
);
},
{
closed = 1;
nodes = (
(428,153,l),
(514,237,l),
(123,639,l),
(37,556,l)
);
}
);
width = 551;
},
{
layerId = "0DC1F6FB-20EC-4E8F-AE98-F98B5FD714DE";
shapes = (
{
closed = 1;
nodes = (
(427,610,l),
(36,208,l),
(58,181,l),
(449,584,l)
);
},
{
closed = 1;
nodes = (
(427,181,l),
(449,208,l),
(58,610,l),
(36,584,l)
);
}
);
width = 485;
}
);
unicode = 215;
},
{
color = 6;
glyphname = divide;
lastChange = "2024-03-19 05:01:26 +0000";
layers = (
{
layerId = "B3961A9D-C6DC-4F74-9770-9C992C479D86";
shapes = (
{
closed = 1;
nodes = (
(37,453,l),
(37,339,l),
(527,339,l),
(527,453,l)
);
},
{
closed = 1;
nodes = (
(317,560,o),
(344,567,o),
(344,622,cs),
(344,677,o),
(317,684,o),
(282,684,cs),
(247,684,o),
(220,677,o),
(220,622,cs),
(220,567,o),
(247,560,o),
(282,560,cs)
);
},
{
closed = 1;
nodes = (
(317,108,o),
(344,115,o),
(344,170,cs),
(344,225,o),
(317,232,o),
(282,232,cs),
(247,232,o),
(220,225,o),
(220,170,cs),
(220,115,o),
(247,108,o),
(282,108,cs)
);
}
);
width = 565;
},
{
layerId = "0DC1F6FB-20EC-4E8F-AE98-F98B5FD714DE";
shapes = (
{
closed = 1;
nodes = (
(36,412,l),
(36,380,l),
(406,380,l),
(406,412,l)
);
},
{
closed = 1;
nodes = (
(234,525,o),
(244,528,o),
(244,548,cs),
(244,568,o),
(234,571,o),
(221,571,cs),
(208,571,o),
(198,568,o),
(198,548,cs),
(198,528,o),
(208,525,o),
(221,525,cs)
);
},
{
closed = 1;
nodes = (
(234,221,o),
(244,224,o),
(244,244,cs),
(244,264,o),
(234,267,o),
(221,267,cs),
(208,267,o),
(198,264,o),
(198,244,cs),
(198,224,o),
(208,221,o),
(221,221,cs)
);
}
);
width = 442;
}
);
unicode = 247;
},
{
color = 6;
glyphname = equal;
lastChange = "2024-03-19 05:01:25 +0000";
layers = (
{
layerId = "B3961A9D-C6DC-4F74-9770-9C992C479D86";
shapes = (
{
closed = 1;
nodes = (
(74,333,l),
(74,219,l),
(564,219,l),
(564,333,l)
);
},
{
closed = 1;
nodes = (
(74,573,l),
(74,459,l),
(564,459,l),
(564,573,l)
);
}
);
width = 637;
},
{
layerId = "0DC1F6FB-20EC-4E8F-AE98-F98B5FD714DE";
shapes = (
{
closed = 1;
nodes = (
(60,322,l),
(60,290,l),
(430,290,l),
(430,322,l)
);
},
{
closed = 1;
nodes = (
(60,502,l),
(60,470,l),
(430,470,l),
(430,502,l)
);
}
);
width = 488;
}
);
unicode = 61;
},
{
color = 6;
glyphname = notequal;
lastChange = "2024-03-19 05:01:25 +0000";
layers = (
{
layerId = "B3961A9D-C6DC-4F74-9770-9C992C479D86";
shapes = (
{
closed = 1;
nodes = (
(54,333,l),
(54,219,l),
(544,219,l),
(544,333,l)
);
},
{
closed = 1;
nodes = (
(54,573,l),
(54,459,l),
(544,459,l),
(544,573,l)
);
},
{
closed = 1;
nodes = (
(387,772,l),
(53,-57,l),
(180,-57,l),
(514,772,l)
);
}
);
width = 593;
},
{
layerId = "0DC1F6FB-20EC-4E8F-AE98-F98B5FD714DE";
shapes = (
{
closed = 1;
nodes = (
(51,322,l),
(51,290,l),
(421,290,l),
(421,322,l)
);
},
{
closed = 1;
nodes = (
(51,502,l),
(51,470,l),
(421,470,l),
(421,502,l)
);
},
{
closed = 1;
nodes = (
(366,771,l),
(34,-54,l),
(73,-54,l),
(405,771,l)
);
}
);
width = 458;
}
);
unicode = 8800;
},
{
color = 6;
glyphname = greater;
lastChange = "2024-03-19 05:01:25 +0000";
layers = (
{
layerId = "B3961A9D-C6DC-4F74-9770-9C992C479D86";
shapes = (
{
closed = 1;
nodes = (
(54,109,l),
(608,303,l),
(608,489,l),
(54,683,l),
(54,561,l),
(509,398,l),
(509,394,l),
(54,231,l)
);
}
);
width = 655;
},
{
layerId = "0DC1F6FB-20EC-4E8F-AE98-F98B5FD714DE";
shapes = (
{
closed = 1;
nodes = (
(40,195,l),
(496,369,l),
(496,423,l),
(40,597,l),
(40,561,l),
(465,398,l),
(465,394,l),
(40,231,l)
);
}
);
width = 533;
}
);
unicode = 62;
},
{
color = 6;
glyphname = less;
lastChange = "2024-03-19 05:01:25 +0000";
layers = (
{
layerId = "B3961A9D-C6DC-4F74-9770-9C992C479D86";
shapes = (
{
closed = 1;
nodes = (
(146,394,l),
(146,398,l),
(601,561,l),
(601,683,l),
(47,489,l),
(47,303,l),
(601,109,l),
(601,231,l)
);
}
);
width = 655;
},
{
layerId = "0DC1F6FB-20EC-4E8F-AE98-F98B5FD714DE";
shapes = (
{
closed = 1;
nodes = (
(68,394,l),
(68,398,l),
(493,561,l),
(493,597,l),
(37,423,l),
(37,369,l),
(493,195,l),
(493,231,l)
);
}
);
width = 533;
}
);
unicode = 60;
},
{
color = 6;
glyphname = greaterequal;
lastChange = "2024-03-19 05:01:24 +0000";
layers = (
{
layerId = "B3961A9D-C6DC-4F74-9770-9C992C479D86";
shapes = (
{
closed = 1;
nodes = (
(614,403,l),
(614,589,l),
(60,783,l),
(60,661,l),
(515,498,l),
(515,494,l),
(60,331,l),
(60,209,l)
);
},
{
closed = 1;
nodes = (
(614,0,l),
(614,117,l),
(60,117,l),
(60,0,l)
);
}
);
width = 666;
},
{
layerId = "0DC1F6FB-20EC-4E8F-AE98-F98B5FD714DE";
shapes = (
{
closed = 1;
nodes = (
(500,369,l),
(500,423,l),
(44,597,l),
(44,561,l),
(469,398,l),
(469,394,l),
(44,231,l),
(44,195,l)
);
},
{
closed = 1;
nodes = (
(500,0,l),
(500,34,l),
(44,34,l),
(44,0,l)
);
}
);
width = 538;
}
);
unicode = 8805;
},
{
color = 6;
glyphname = lessequal;
lastChange = "2024-03-19 05:01:25 +0000";
layers = (
{
layerId = "B3961A9D-C6DC-4F74-9770-9C992C479D86";
shapes = (
{
closed = 1;
nodes = (
(606,331,l),
(151,494,l),
(151,498,l),
(606,661,l),
(606,783,l),
(52,589,l),
(52,403,l),
(606,209,l)
);
},
{
closed = 1;
nodes = (
(606,0,l),
(606,117,l),
(52,117,l),
(52,0,l)
);
}
);
width = 666;
},
{
layerId = "0DC1F6FB-20EC-4E8F-AE98-F98B5FD714DE";
shapes = (
{
closed = 1;
nodes = (
(494,231,l),
(69,394,l),
(69,398,l),
(494,561,l),
(494,597,l),
(38,423,l),
(38,369,l),
(494,195,l)
);
},
{
closed = 1;
nodes = (
(494,0,l),
(494,34,l),
(38,34,l),
(38,0,l)
);
}
);
width = 538;
}
);
unicode = 8804;
},
{
color = 6;
glyphname = plusminus;
lastChange = "2024-03-19 05:01:25 +0000";
layers = (
{
layerId = "B3961A9D-C6DC-4F74-9770-9C992C479D86";
shapes = (
{
closed = 1;
nodes = (
(218,216,l),
(340,216,l),
(340,696,l),
(218,696,l)
);
},
{
closed = 1;
nodes = (
(49,513,l),
(49,399,l),
(509,399,l),
(509,513,l)
);
},
{
closed = 1;
nodes = (
(49,114,l),
(49,0,l),
(509,0,l),
(509,114,l)
);
}
);
width = 558;
},
{
layerId = "0DC1F6FB-20EC-4E8F-AE98-F98B5FD714DE";
shapes = (
{
closed = 1;
nodes = (
(228,166,l),
(262,166,l),
(262,626,l),
(228,626,l)
);
},
{
closed = 1;
nodes = (
(35,412,l),
(35,380,l),
(455,380,l),
(455,412,l)
);
},
{
closed = 1;
nodes = (
(35,32,l),
(35,0,l),
(455,0,l),
(455,32,l)
);
}
);
width = 489;
}
);
unicode = 177;
},
{
color = 6;
glyphname = approxequal;
lastChange = "2024-03-19 05:01:24 +0000";
layers = (
{
layerId = "B3961A9D-C6DC-4F74-9770-9C992C479D86";
shapes = (
{
closed = 1;
nodes = (
(172,334,l),
(172,364,o),
(172,402,o),
(220,402,cs),
(272,402,o),
(398,346,o),
(450,346,cs),
(549,346,o),
(599,377,o),
(599,497,cs),
(599,520,l),
(491,520,l),
(491,481,o),
(492,452,o),
(443,452,cs),
(371,452,o),
(305,508,o),
(213,508,cs),
(114,508,o),
(64,468,o),
(64,356,cs),
(64,334,l)
);
},
{
closed = 1;
nodes = (
(172,84,l),
(172,114,o),
(172,152,o),
(220,152,cs),
(272,152,o),
(398,96,o),
(450,96,cs),
(549,96,o),
(599,127,o),
(599,247,cs),
(599,270,l),
(491,270,l),
(491,231,o),
(492,202,o),
(443,202,cs),
(371,202,o),
(305,258,o),
(213,258,cs),
(114,258,o),
(64,218,o),
(64,106,cs),
(64,84,l)
);
}
);
width = 664;
},
{
layerId = "0DC1F6FB-20EC-4E8F-AE98-F98B5FD714DE";
shapes = (
{
closed = 1;
nodes = (
(92,351,l),
(93,395,o),
(118,416,o),
(173,416,cs),
(257,416,o),
(304,362,o),
(402,362,cs),
(479,362,o),
(516,410,o),
(516,453,cs),
(516,461,l),
(484,461,l),
(477,420,o),
(457,394,o),
(400,394,cs),
(316,394,o),
(254,449,o),
(170,449,cs),
(90,449,o),
(59,405,o),
(59,358,cs),
(59,351,l)
);
},
{
closed = 1;
nodes = (
(92,151,l),
(93,195,o),
(118,216,o),
(173,216,cs),
(257,216,o),
(304,162,o),
(402,162,cs),
(479,162,o),
(516,210,o),
(516,253,cs),
(516,261,l),
(484,261,l),
(477,220,o),
(457,194,o),
(400,194,cs),
(316,194,o),
(254,249,o),
(170,249,cs),
(90,249,o),
(59,205,o),
(59,158,cs),
(59,151,l)
);
}
);
width = 574;
}
);
unicode = 8776;
},
{
color = 6;
glyphname = asciitilde;
lastChange = "2024-03-19 05:01:26 +0000";
layers = (
{
layerId = "B3961A9D-C6DC-4F74-9770-9C992C479D86";
shapes = (
{
closed = 1;
nodes = (
(551,256,o),
(601,287,o),
(601,407,c),
(601,430,l),
(493,430,l),
(493,391,o),
(494,362,o),
(445,362,c),
(373,362,o),
(307,418,o),
(215,418,c),
(116,418,o),
(66,378,o),
(66,266,c),
(66,244,l),
(174,244,l),
(174,274,o),
(174,312,o),
(222,312,c),
(274,312,o),
(400,256,o),
(452,256,c)
);
}
);
width = 668;
},
{
layerId = "0DC1F6FB-20EC-4E8F-AE98-F98B5FD714DE";
shapes = (
{
closed = 1;
nodes = (
(485,293,o),
(522,341,o),
(522,384,cs),
(522,392,l),
(490,392,l),
(483,351,o),
(463,325,o),
(406,325,cs),
(322,325,o),
(260,380,o),
(176,380,cs),
(96,380,o),
(65,336,o),
(65,289,cs),
(65,282,l),
(98,282,l),
(99,326,o),
(124,347,o),
(179,347,cs),
(263,347,o),
(310,293,o),
(408,293,cs)
);
}
);
width = 585;
}
);
unicode = 126;
},
{
color = 6;
glyphname = logicalnot;
lastChange = "2024-03-19 05:01:25 +0000";
layers = (
{
layerId = "B3961A9D-C6DC-4F74-9770-9C992C479D86";
shapes = (
{
closed = 1;
nodes = (
(391,118,l),
(517,118,l),
(517,374,l),
(391,374,l)
);
},
{
closed = 1;
nodes = (
(50,434,l),
(50,318,l),
(517,318,l),
(517,434,l)
);
}
);
width = 603;
},
{
layerId = "0DC1F6FB-20EC-4E8F-AE98-F98B5FD714DE";
shapes = (
{
closed = 1;
nodes = (
(399,118,l),
(433,118,l),
(433,354,l),
(399,354,l)
);
},
{
closed = 1;
nodes = (
(36,364,l),
(36,328,l),
(433,328,l),
(433,364,l)
);
}
);
width = 519;
}
);
unicode = 172;
},
{
color = 6;
glyphname = asciicircum;
lastChange = "2024-03-19 05:01:25 +0000";
layers = (
{
layerId = "B3961A9D-C6DC-4F74-9770-9C992C479D86";
shapes = (
{
closed = 1;
nodes = (
(160,387,l),
(283,602,l),
(287,602,l),
(410,387,l),
(539,387,l),
(362,701,l),
(208,701,l),
(30,387,l)
);
}
);
width = 570;
},
{
layerId = "0DC1F6FB-20EC-4E8F-AE98-F98B5FD714DE";
shapes = (
{
closed = 1;
nodes = (
(70,387,l),
(193,666,l),
(197,666,l),
(320,387,l),
(356,387,l),
(218,701,l),
(173,701,l),
(34,387,l)
);
}
);
width = 391;
}
);
unicode = 94;
},
{
color = 6;
glyphname = percent;
lastChange = "2024-03-19 05:01:25 +0000";
layers = (
{
guides = (
{
pos = (-42,358);
},
{
pos = (-42,711);
},
{
pos = (-42,-9);
}
);
layerId = "B3961A9D-C6DC-4F74-9770-9C992C479D86";
shapes = (
{
closed = 1;
nodes = (
(692,731,l),
(589,731,l),
(243,-30,l),
(346,-30,l)
);
},
{
closed = 1;
nodes = (
(284,345,o),
(350,388,o),
(350,490,c),
(350,566,l),
(350,667,o),
(284,711,o),
(195,711,c),
(106,711,o),
(41,667,o),
(41,566,c),
(41,490,l),
(41,388,o),
(106,345,o),
(195,345,c)
);
},
{
closed = 1;
nodes = (
(143,422,o),
(124,450,o),
(124,507,c),
(124,550,l),
(124,608,o),
(143,634,o),
(195,634,c),
(248,634,o),
(267,608,o),
(267,550,c),
(267,507,l),
(267,450,o),
(248,422,o),
(195,422,c)
);
},
{
closed = 1;
nodes = (
(833,-9,o),
(899,34,o),
(899,136,c),
(899,212,l),
(899,313,o),
(833,357,o),
(744,357,c),
(655,357,o),
(590,313,o),
(590,212,c),
(590,136,l),
(590,34,o),
(655,-9,o),
(744,-9,c)
);
},
{
closed = 1;
nodes = (
(692,68,o),
(673,96,o),
(673,153,c),
(673,196,l),
(673,254,o),
(692,280,o),
(744,280,c),
(797,280,o),
(816,254,o),
(816,196,c),
(816,153,l),
(816,96,o),
(797,68,o),
(744,68,c)
);
}
);
width = 940;
},
{
guides = (
{
pos = (-31,-9);
}
);
layerId = "0DC1F6FB-20EC-4E8F-AE98-F98B5FD714DE";
shapes = (
{
closed = 1;
nodes = (
(566,730,l),
(536,730,l),
(229,-30,l),
(259,-30,l)
);
},
{
closed = 1;
nodes = (
(277,358,o),
(310,400,o),
(310,498,c),
(310,571,l),
(310,669,o),
(277,711,o),
(176,711,c),
(75,711,o),
(43,668,o),
(43,571,c),
(43,498,l),
(43,400,o),
(75,358,o),
(176,358,c)
);
},
{
closed = 1;
nodes = (
(93,385,o),
(70,419,o),
(70,495,c),
(70,574,l),
(70,651,o),
(93,684,o),
(176,684,c),
(260,684,o),
(283,651,o),
(283,574,c),
(283,495,l),
(283,419,o),
(260,385,o),
(176,385,c)
);
},
{
closed = 1;
nodes = (
(731,-9,o),
(764,33,o),
(764,131,c),
(764,204,l),
(764,302,o),
(731,344,o),
(630,344,c),
(529,344,o),
(497,301,o),
(497,204,c),
(497,131,l),
(497,33,o),
(529,-9,o),
(630,-9,c)
);
},
{
closed = 1;
nodes = (
(547,18,o),
(524,52,o),
(524,128,c),
(524,207,l),
(524,284,o),
(547,317,o),
(630,317,c),
(714,317,o),
(737,284,o),
(737,207,c),
(737,128,l),
(737,52,o),
(714,18,o),
(630,18,c)
);
}
);
width = 807;
}
);
unicode = 37;
},
{
color = 6;
glyphname = perthousand;
lastChange = "2024-03-19 05:01:24 +0000";
layers = (
{
layerId = "B3961A9D-C6DC-4F74-9770-9C992C479D86";
shapes = (
{
closed = 1;
nodes = (
(692,731,l),
(589,731,l),
(243,-30,l),
(346,-30,l)
);
},
{
closed = 1;
nodes = (
(284,345,o),
(350,388,o),
(350,490,c),
(350,566,l),
(350,667,o),
(284,711,o),
(195,711,c),
(106,711,o),
(41,667,o),
(41,566,c),
(41,490,l),
(41,388,o),
(106,345,o),
(195,345,c)
);
},
{
closed = 1;
nodes = (
(143,422,o),
(124,450,o),
(124,507,c),
(124,550,l),
(124,608,o),
(143,634,o),
(195,634,c),
(248,634,o),
(267,608,o),
(267,550,c),
(267,507,l),
(267,450,o),
(248,422,o),
(195,422,c)
);
},
{
closed = 1;
nodes = (
(833,-9,o),
(899,34,o),
(899,136,c),
(899,212,l),
(899,313,o),
(833,357,o),
(744,357,c),
(655,357,o),
(590,313,o),
(590,212,c),
(590,136,l),
(590,34,o),
(655,-9,o),
(744,-9,c)
);
},
{
closed = 1;
nodes = (
(692,68,o),
(673,96,o),
(673,153,c),
(673,196,l),
(673,254,o),
(692,280,o),
(744,280,c),
(797,280,o),
(816,254,o),
(816,196,c),
(816,153,l),
(816,96,o),
(797,68,o),
(744,68,c)
);
},
{
closed = 1;
nodes = (
(1236,-9,o),
(1302,34,o),
(1302,136,c),
(1302,212,l),
(1302,313,o),
(1236,357,o),
(1147,357,c),
(1058,357,o),
(993,313,o),
(993,212,c),
(993,136,l),
(993,34,o),
(1058,-9,o),
(1147,-9,c)
);
},
{
closed = 1;
nodes = (
(1095,68,o),
(1076,96,o),
(1076,153,c),
(1076,196,l),
(1076,254,o),
(1095,280,o),
(1147,280,c),
(1200,280,o),
(1219,254,o),
(1219,196,c),
(1219,153,l),
(1219,96,o),
(1200,68,o),
(1147,68,c)
);
}
);
width = 1343;
},
{
layerId = "0DC1F6FB-20EC-4E8F-AE98-F98B5FD714DE";
shapes = (
{
closed = 1;
nodes = (
(566,730,l),
(536,730,l),
(229,-30,l),
(259,-30,l)
);
},
{
closed = 1;
nodes = (
(277,358,o),
(310,400,o),
(310,498,c),
(310,571,l),
(310,669,o),
(277,711,o),
(176,711,c),
(75,711,o),
(43,668,o),
(43,571,c),
(43,498,l),
(43,400,o),
(75,358,o),
(176,358,c)
);
},
{
closed = 1;
nodes = (
(93,385,o),
(70,419,o),
(70,495,c),
(70,574,l),
(70,651,o),
(93,684,o),
(176,684,c),
(260,684,o),
(283,651,o),
(283,574,c),
(283,495,l),
(283,419,o),
(260,385,o),
(176,385,c)
);
},
{
closed = 1;
nodes = (
(731,-9,o),
(764,33,o),
(764,131,c),
(764,204,l),
(764,302,o),
(731,344,o),
(630,344,c),
(529,344,o),
(497,301,o),
(497,204,c),
(497,131,l),
(497,33,o),
(529,-9,o),
(630,-9,c)
);
},
{
closed = 1;
nodes = (
(547,18,o),
(524,52,o),
(524,128,c),
(524,207,l),
(524,284,o),
(547,317,o),
(630,317,c),
(714,317,o),
(737,284,o),
(737,207,c),
(737,128,l),
(737,52,o),
(714,18,o),
(630,18,c)
);
},
{
closed = 1;
nodes = (
(1090,-9,o),
(1123,33,o),
(1123,131,c),
(1123,204,l),
(1123,302,o),
(1090,344,o),
(989,344,c),
(888,344,o),
(856,301,o),
(856,204,c),
(856,131,l),
(856,33,o),
(888,-9,o),
(989,-9,c)
);
},
{
closed = 1;
nodes = (
(906,18,o),
(883,52,o),
(883,128,c),
(883,207,l),
(883,284,o),
(906,317,o),
(989,317,c),
(1073,317,o),
(1096,284,o),
(1096,207,c),
(1096,128,l),
(1096,52,o),
(1073,18,o),
(989,18,c)
);
}
);
width = 1166;
}
);
unicode = 8240;
},
{
color = 9;
glyphname = "eShortMatra_candraBindu-deva";
kernRight = Chandrabindu.dv;
lastChange = "2024-02-14 04:51:54 +0000";
layers = (
{
anchors = (
{
name = _top;
pos = (-105,709);
}
);
layerId = "B3961A9D-C6DC-4F74-9770-9C992C479D86";
shapes = (
{
closed = 1;
nodes = (
(-85,694,l),
(-85,707,l),
(-92,851,o),
(-167,892,o),
(-288,913,cs),
(-393,931,o),
(-414,970,o),
(-415,1021,c),
(-550,1021,l),
(-543,870,o),
(-467,821,o),
(-346,802,cs),
(-237,785,o),
(-220,745,o),
(-219,694,c)
);
},
{
closed = 1;
nodes = (
(49,774,ls),
(120,774,o),
(147,823,o),
(150,878,c),
(88,882,l),
(88,855,o),
(74,834,o),
(44,834,cs),
(19,834,ls),
(-9,834,o),
(-25,857,o),
(-27,882,c),
(-87,878,l),
(-85,825,o),
(-59,774,o),
(12,774,cs)
);
},
{
closed = 1;
nodes = (
(50,866,o),
(64,870,o),
(64,901,cs),
(64,929,o),
(50,933,o),
(31,933,cs),
(12,933,o),
(-3,929,o),
(-3,901,cs),
(-3,870,o),
(12,866,o),
(31,866,c)
);
}
);
width = 0;
},
{
anchors = (
{
name = _top;
pos = (-90,699);
}
);
layerId = "0DC1F6FB-20EC-4E8F-AE98-F98B5FD714DE";
shapes = (
{
closed = 1;
nodes = (
(-81,694,l),
(-81,704,ls),
(-81,797,o),
(-143,812,o),
(-244,833,cs),
(-349,855,o),
(-345,870,o),
(-351,921,c),
(-386,921,l),
(-379,827,o),
(-343,815,o),
(-242,796,cs),
(-133,776,o),
(-116,745,o),
(-115,694,c)
);
},
{
closed = 1;
nodes = (
(10,745,ls),
(63,745,o),
(73,778,o),
(76,813,c),
(54,816,l),
(49,766,o),
(25,769,o),
(6,769,cs),
(-10,769,ls),
(-29,769,o),
(-48,766,o),
(-58,816,c),
(-79,813,l),
(-77,779,o),
(-63,745,o),
(-13,745,cs)
);
},
{
closed = 1;
nodes = (
(9,802,o),
(18,804,o),
(18,821,c),
(18,839,o),
(9,840,o),
(-2,840,cs),
(-12,840,o),
(-21,839,o),
(-21,821,cs),
(-21,804,o),
(-12,802,o),
(-2,802,cs)
);
}
);
width = 0;
}
);
},
{
color = 9;
glyphname = "eShortMatra_anusvara-deva";
kernRight = Chandrabindu.dv;
lastChange = "2024-02-14 04:51:54 +0000";
layers = (
{
anchors = (
{
name = _top;
pos = (-105,697);
}
);
layerId = "B3961A9D-C6DC-4F74-9770-9C992C479D86";
shapes = (
{
closed = 1;
nodes = (
(-85,694,l),
(-85,707,l),
(-92,851,o),
(-167,892,o),
(-288,913,cs),
(-393,931,o),
(-414,970,o),
(-415,1021,c),
(-550,1021,l),
(-543,870,o),
(-467,821,o),
(-346,802,cs),
(-237,785,o),
(-220,745,o),
(-219,694,c)
);
},
{
closed = 1;
nodes = (
(30,762,o),
(54,768,o),
(54,817,cs),
(54,864,o),
(30,871,o),
(-1,871,cs),
(-31,871,o),
(-55,864,o),
(-55,817,cs),
(-55,768,o),
(-31,762,o),
(-1,762,cs)
);
}
);
width = 0;
},
{
anchors = (
{
name = _top;
pos = (-90,699);
}
);
layerId = "0DC1F6FB-20EC-4E8F-AE98-F98B5FD714DE";
shapes = (
{
closed = 1;
nodes = (
(-81,694,l),
(-81,704,ls),
(-81,797,o),
(-143,812,o),
(-244,833,cs),
(-349,855,o),
(-345,870,o),
(-351,921,c),
(-386,921,l),
(-379,827,o),
(-343,815,o),
(-242,796,cs),
(-133,776,o),
(-116,745,o),
(-115,694,c)
);
},
{
closed = 1;
nodes = (
(-25,753,o),
(-15,756,o),
(-15,776,cs),
(-15,796,o),
(-25,799,o),
(-38,799,cs),
(-51,799,o),
(-61,796,o),
(-61,776,cs),
(-61,756,o),
(-51,753,o),
(-38,753,cs)
);
}
);
width = 0;
}
);
},
{
color = 9;
glyphname = "eShortMatra_reph-deva";
kernRight = Chandrabindu.dv;
lastChange = "2024-02-14 04:51:54 +0000";
layers = (
{
anchors = (
{
name = _top;
pos = (-105,698);
}
);
layerId = "B3961A9D-C6DC-4F74-9770-9C992C479D86";
shapes = (
{
closed = 1;
nodes = (
(-103,694,l),
(-103,707,l),
(-110,851,o),
(-167,892,o),
(-288,913,cs),
(-393,931,o),
(-414,970,o),
(-415,1021,c),
(-550,1021,l),
(-543,870,o),
(-467,821,o),
(-346,802,cs),
(-237,785,o),
(-220,745,o),
(-219,694,c)
);
},
{
closed = 1;
nodes = (
(-87,694,l),
(-87,740,o),
(-89,817,o),
(-65,850,cs),
(-50,871,o),
(-25,876,o),
(-2,876,cs),
(26,876,o),
(54,871,o),
(80,864,c),
(80,975,l),
(55,990,o),
(25,993,o),
(-5,993,cs),
(-107,993,o),
(-123,918,o),
(-123,830,c),
(-128,830,o),
(-133,829,o),
(-138,829,c),
(-138,794,o),
(-138,759,o),
(-138,724,cs),
(-138,694,l)
);
}
);
width = 0;
},
{
anchors = (
{
name = _top;
pos = (-91,697);
}
);
layerId = "0DC1F6FB-20EC-4E8F-AE98-F98B5FD714DE";
shapes = (
{
closed = 1;
nodes = (
(-89,694,l),
(-89,704,ls),
(-89,797,o),
(-144,813,o),
(-245,833,cs),
(-350,854,o),
(-346,870,o),
(-352,921,c),
(-387,921,l),
(-380,827,o),
(-344,816,o),
(-243,797,cs),
(-134,777,o),
(-117,745,o),
(-116,694,c)
);
},
{
closed = 1;
nodes = (
(-83,694,l),
(-89,755,o),
(-94,789,o),
(-84,836,cs),
(-77,869,o),
(-53,888,o),
(-20,888,cs),
(6,888,o),
(12,885,o),
(38,878,c),
(38,908,l),
(18,916,o),
(-5,919,o),
(-27,919,cs),
(-97,919,o),
(-119,854,o),
(-119,792,c),
(-126,789,o),
(-119,792,o),
(-126,789,c),
(-107,737,o),
(-127,792,o),
(-107,737,c),
(-97,694,l)
);
}
);
width = 0;
}
);
},
{
color = 9;
glyphname = "eShortMatra_reph_candraBindu-deva";
kernRight = Chandrabindu.dv;
lastChange = "2024-02-14 04:51:54 +0000";
layers = (
{
anchors = (
{
name = _top;
pos = (-93,694);
}
);
layerId = "B3961A9D-C6DC-4F74-9770-9C992C479D86";
shapes = (
{
closed = 1;
nodes = (
(52,724,ls),
(107,724,o),
(128,762,o),
(130,805,c),
(82,808,l),
(82,787,o),
(71,771,o),
(48,771,cs),
(29,771,ls),
(7,771,o),
(-5,788,o),
(-7,808,c),
(-53,805,l),
(-51,764,o),
(-31,724,o),
(24,724,cs)
);
},
{
closed = 1;
nodes = (
(53,795,o),
(64,798,o),
(64,822,cs),
(64,844,o),
(53,847,o),
(38,847,cs),
(24,847,o),
(12,844,o),
(12,822,cs),
(12,798,o),
(24,795,o),
(38,795,cs)
);
},
{
closed = 1;
nodes = (
(-99,694,l),
(-99,707,l),
(-106,851,o),
(-167,892,o),
(-288,913,cs),
(-393,931,o),
(-414,970,o),
(-415,1021,c),
(-550,1021,l),
(-543,870,o),
(-467,821,o),
(-346,802,cs),
(-237,785,o),
(-220,745,o),
(-219,694,c)
);
},
{
closed = 1;
nodes = (
(-83,694,l),
(-83,740,o),
(-89,817,o),
(-65,850,cs),
(-50,871,o),
(-25,876,o),
(-2,876,cs),
(26,876,o),
(54,871,o),
(80,864,c),
(80,975,l),
(55,990,o),
(25,993,o),
(-5,993,cs),
(-107,993,o),
(-123,918,o),
(-123,830,c),
(-128,830,o),
(-133,829,o),
(-138,829,c),
(-138,724,l),
(-138,694,l)
);
}
);
width = 0;
},
{
anchors = (
{
name = _top;
pos = (-96,698);
}
);
layerId = "0DC1F6FB-20EC-4E8F-AE98-F98B5FD714DE";
shapes = (
{
closed = 1;
nodes = (
(17,748,ls),
(65,748,o),
(74,777,o),
(77,809,c),
(57,812,l),
(52,765,o),
(31,769,o),
(14,769,cs),
(-1,769,ls),
(-18,769,o),
(-35,765,o),
(-44,812,c),
(-63,809,l),
(-61,778,o),
(-49,748,o),
(-4,748,cs)
);
},
{
closed = 1;
nodes = (
(16,799,o),
(24,801,o),
(24,816,cs),
(24,832,o),
(16,833,o),
(6,833,cs),
(-3,833,o),
(-11,832,o),
(-11,816,cs),
(-11,801,o),
(-3,799,o),
(6,799,cs)
);
},
{
closed = 1;
nodes = (
(-87,694,l),
(-87,704,ls),
(-87,797,o),
(-142,813,o),
(-243,833,cs),
(-348,854,o),
(-344,870,o),
(-350,921,c),
(-385,921,l),
(-378,827,o),
(-342,816,o),
(-241,797,cs),
(-132,777,o),
(-115,745,o),
(-114,694,c)
);
},
{
closed = 1;
nodes = (
(-84,694,l),
(-92,755,o),
(-95,789,o),
(-82,836,cs),
(-73,869,o),
(-51,888,o),
(-18,888,cs),
(8,888,o),
(14,885,o),
(40,878,c),
(40,908,l),
(20,916,o),
(-3,919,o),
(-25,919,cs),
(-95,919,o),
(-117,854,o),
(-117,792,c),
(-124,789,o),
(-117,792,o),
(-124,789,c),
(-105,737,l),
(-95,694,l)
);
}
);
width = 0;
}
);
},
{
color = 9;
glyphname = "eShortMatra_reph_anusvara-deva";
kernRight = Chandrabindu.dv;
lastChange = "2024-02-14 04:51:54 +0000";
layers = (
{
anchors = (
{
name = _top;
pos = (-106,698);
}
);
layerId = "B3961A9D-C6DC-4F74-9770-9C992C479D86";
shapes = (
{
closed = 1;
nodes = (
(-100,694,l),
(-100,707,l),
(-107,851,o),
(-168,892,o),
(-289,913,cs),
(-394,931,o),
(-415,970,o),
(-416,1021,c),
(-551,1021,l),
(-544,870,o),
(-468,821,o),
(-347,802,cs),
(-238,785,o),
(-221,745,o),
(-220,694,c)
);
},
{
closed = 1;
nodes = (
(-84,694,l),
(-84,740,o),
(-90,817,o),
(-66,850,cs),
(-51,871,o),
(-26,876,o),
(-3,876,cs),
(25,876,o),
(53,871,o),
(79,864,c),
(79,975,l),
(54,990,o),
(24,993,o),
(-6,993,cs),
(-108,993,o),
(-124,918,o),
(-124,830,c),
(-129,830,o),
(-134,829,o),
(-139,829,c),
(-139,794,o),
(-139,759,o),
(-139,724,cs),
(-139,694,l)
);
},
{
closed = 1;
nodes = (
(36,731,o),
(61,737,o),
(61,787,cs),
(61,836,o),
(36,843,o),
(4,843,cs),
(-27,843,o),
(-52,836,o),
(-52,787,cs),
(-52,737,o),
(-27,731,o),
(4,731,cs)
);
}
);
width = 0;
},
{
anchors = (
{
name = _top;
pos = (-89,697);
}
);
layerId = "0DC1F6FB-20EC-4E8F-AE98-F98B5FD714DE";
shapes = (
{
closed = 1;
nodes = (
(-87,694,l),
(-87,704,ls),
(-87,797,o),
(-142,813,o),
(-243,833,cs),
(-348,854,o),
(-344,870,o),
(-350,921,c),
(-385,921,l),
(-378,827,o),
(-342,816,o),
(-241,797,cs),
(-132,777,o),
(-115,745,o),
(-114,694,c)
);
},
{
closed = 1;
nodes = (
(-84,694,l),
(-92,755,o),
(-95,789,o),
(-82,836,cs),
(-73,869,o),
(-51,888,o),
(-18,888,cs),
(8,888,o),
(14,885,o),
(40,878,c),
(40,908,l),
(20,916,o),
(-3,919,o),
(-25,919,cs),
(-95,919,o),
(-117,854,o),
(-117,792,c),
(-124,789,o),
(-117,792,o),
(-124,789,c),
(-109,748,o),
(-125,792,o),
(-105,737,c),
(-95,694,l)
);
},
{
closed = 1;
nodes = (
(-3,769,o),
(7,772,o),
(7,792,cs),
(7,812,o),
(-3,815,o),
(-16,815,cs),
(-29,815,o),
(-39,812,o),
(-39,792,cs),
(-39,772,o),
(-29,769,o),
(-16,769,cs)
);
}
);
width = 0;
}
);
},
{
color = 9;
glyphname = "eMatra_candraBindu-deva";
kernRight = Chandrabindu.dv;
lastChange = "2024-02-14 04:51:54 +0000";
layers = (
{
anchors = (
{
name = _top;
pos = (-96,701);
}
);
layerId = "B3961A9D-C6DC-4F74-9770-9C992C479D86";
shapes = (
{
closed = 1;
nodes = (
(29,760,ls),
(88,760,o),
(111,801,o),
(113,847,c),
(61,851,l),
(61,828,o),
(49,811,o),
(24,811,cs),
(3,811,ls),
(-21,811,o),
(-33,829,o),
(-35,851,c),
(-85,847,l),
(-83,803,o),
(-61,760,o),
(-1,760,cs)
);
},
{
closed = 1;
nodes = (
(29,837,o),
(42,840,o),
(42,866,cs),
(42,890,o),
(29,893,o),
(14,893,cs),
(-1,893,o),
(-15,890,o),
(-15,866,cs),
(-15,840,o),
(-1,837,o),
(14,837,cs)
);
},
{
closed = 1;
nodes = (
(-77,699,l),
(-135,884,l),
(-171,996,o),
(-229,1025,o),
(-407,965,c),
(-372,854,l),
(-284,882,o),
(-264,872,o),
(-252,834,cs),
(-210,703,l),
(-210,699,l)
);
}
);
width = 0;
},
{
anchors = (
{
name = _top;
pos = (-92,698);
}
);
layerId = "0DC1F6FB-20EC-4E8F-AE98-F98B5FD714DE";
shapes = (
{
closed = 1;
nodes = (
(30,744,ls),
(87,744,o),
(98,778,o),
(101,817,c),
(77,820,l),
(71,764,o),
(47,768,o),
(26,768,cs),
(9,768,ls),
(-11,768,o),
(-32,764,o),
(-42,820,c),
(-65,817,l),
(-63,780,o),
(-49,744,o),
(5,744,cs)
);
},
{
closed = 1;
nodes = (
(29,804,o),
(38,807,o),
(38,825,cs),
(38,843,o),
(29,845,o),
(17,845,cs),
(6,845,o),
(-3,843,o),
(-3,825,cs),
(-3,807,o),
(6,804,o),
(17,804,cs)
);
},
{
closed = 1;
nodes = (
(-81,698,l),
(-116,844,ls),
(-136,929,o),
(-192,923,o),
(-261,906,c),
(-251,872,l),
(-178,890,o),
(-162,884,o),
(-147,822,cs),
(-117,701,l),
(-117,698,l)
);
}
);
width = 0;
}
);
},
{
color = 9;
glyphname = "eMatra_anusvara-deva";
kernRight = Chandrabindu.dv;
lastChange = "2024-02-14 04:51:54 +0000";
layers = (
{
anchors = (
{
name = _top;
pos = (-99,701);
}
);
layerId = "B3961A9D-C6DC-4F74-9770-9C992C479D86";
shapes = (
{
closed = 1;
nodes = (
(-80,699,l),
(-138,884,l),
(-174,996,o),
(-232,1025,o),
(-410,965,c),
(-375,854,l),
(-287,882,o),
(-267,872,o),
(-255,834,cs),
(-213,703,l),
(-213,699,l)
);
},
{
pos = (154,91);
ref = "anusvara-deva";
scale = (0.9089,0.9089);
}
);
width = 0;
},
{
anchors = (
{
name = _top;
pos = (-94,698);
}
);
layerId = "0DC1F6FB-20EC-4E8F-AE98-F98B5FD714DE";
shapes = (
{
closed = 1;
nodes = (
(-83,698,l),
(-118,844,ls),
(-138,929,o),
(-194,923,o),
(-263,906,c),
(-253,872,l),
(-180,890,o),
(-164,884,o),
(-149,822,cs),
(-119,701,l),
(-119,698,l)
);
},
{
pos = (67,140);
ref = "anusvara-deva";
scale = (0.7942,0.7942);
}
);
width = 0;
}
);
},
{
color = 9;
glyphname = "eMatra_reph-deva";
kernRight = Chandrabindu.dv;
lastChange = "2024-02-14 04:51:54 +0000";
layers = (
{
anchors = (
{
name = _top;
pos = (-100,701);
}
);
layerId = "B3961A9D-C6DC-4F74-9770-9C992C479D86";
shapes = (
{
closed = 1;
nodes = (
(-80,700,l),
(-89,700,o),
(-141,814,o),
(-115,855,cs),
(-108,867,o),
(-89,877,o),
(-66,877,cs),
(-38,877,o),
(-15,872,o),
(11,865,c),
(11,976,l),
(-14,991,o),
(-44,994,o),
(-74,994,c),
(-160,994,o),
(-177,903,o),
(-177,878,c),
(-182,878,o),
(-212,877,o),
(-217,877,c),
(-196,844,o),
(-160,734,o),
(-141,700,c)
);
},
{
closed = 1;
nodes = (
(-121,700,l),
(-180,878,l),
(-216,990,o),
(-233,1026,o),
(-411,966,c),
(-376,855,l),
(-288,883,o),
(-268,873,o),
(-256,835,cs),
(-214,704,l),
(-214,700,l)
);
}
);
width = 0;
},
{
anchors = (
{
name = _top;
pos = (-91,698);
}
);
layerId = "0DC1F6FB-20EC-4E8F-AE98-F98B5FD714DE";
shapes = (
{
closed = 1;
nodes = (
(-80,698,l),
(-95,760,o),
(-104,796,o),
(-96,840,c),
(-90,874,o),
(-75,887,o),
(-42,887,cs),
(-16,887,o),
(0,884,o),
(26,877,c),
(26,905,l),
(6,913,o),
(-27,918,o),
(-49,917,cs),
(-94,915,o),
(-118,896,o),
(-119,844,c),
(-124,844,o),
(-121,844,o),
(-126,844,c),
(-115,756,o),
(-115,754,o),
(-108,698,c)
);
},
{
closed = 1;
nodes = (
(-94,698,l),
(-121,843,ls),
(-137,927,o),
(-191,923,o),
(-260,906,c),
(-250,872,l),
(-177,890,o),
(-161,884,o),
(-146,822,cs),
(-116,701,l),
(-116,698,l)
);
}
);
width = 0;
}
);
},
{
color = 9;
glyphname = "eMatra_reph_candraBindu-deva";
kernRight = Chandrabindu.dv;
lastChange = "2024-02-14 04:51:54 +0000";
layers = (
{
anchors = (
{
name = _top;
pos = (-101,701);
}
);
layerId = "B3961A9D-C6DC-4F74-9770-9C992C479D86";
shapes = (
{
closed = 1;
nodes = (
(13,726,ls),
(68,726,o),
(89,764,o),
(91,807,c),
(43,810,l),
(43,789,o),
(32,773,o),
(9,773,cs),
(-10,773,ls),
(-32,773,o),
(-44,790,o),
(-46,810,c),
(-92,807,l),
(-90,766,o),
(-70,726,o),
(-15,726,cs)
);
},
{
closed = 1;
nodes = (
(14,797,o),
(25,800,o),
(25,824,cs),
(25,846,o),
(14,849,o),
(-1,849,cs),
(-15,849,o),
(-27,846,o),
(-27,824,cs),
(-27,800,o),
(-15,797,o),
(-1,797,c)
);
},
{
closed = 1;
nodes = (
(-81,700,l),
(-81,700,o),
(-142,814,o),
(-116,855,cs),
(-109,867,o),
(-90,879,o),
(-67,879,cs),
(-39,879,o),
(-16,875,o),
(10,868,c),
(10,976,l),
(-24,991,o),
(-42,994,o),
(-75,994,cs),
(-161,994,o),
(-178,903,o),
(-178,878,c),
(-183,878,o),
(-213,877,o),
(-218,877,c),
(-197,844,o),
(-161,734,o),
(-142,700,c)
);
},
{
closed = 1;
nodes = (
(-122,700,l),
(-181,878,l),
(-217,990,o),
(-234,1026,o),
(-412,966,c),
(-377,855,l),
(-289,883,o),
(-269,873,o),
(-257,835,cs),
(-215,704,l),
(-215,700,l)
);
}
);
width = 0;
},
{
anchors = (
{
name = _top;
pos = (-89,698);
}
);
layerId = "0DC1F6FB-20EC-4E8F-AE98-F98B5FD714DE";
shapes = (
{
closed = 1;
nodes = (
(8,760,ls),
(56,760,o),
(65,789,o),
(68,821,c),
(48,824,l),
(43,777,o),
(22,781,o),
(5,781,cs),
(-10,781,ls),
(-27,781,o),
(-44,777,o),
(-53,824,c),
(-72,821,l),
(-70,790,o),
(-58,760,o),
(-13,760,cs)
);
},
{
closed = 1;
nodes = (
(7,811,o),
(15,813,o),
(15,828,cs),
(15,844,o),
(7,845,o),
(-3,845,cs),
(-12,845,o),
(-20,844,o),
(-20,828,cs),
(-20,813,o),
(-12,811,o),
(-3,811,cs)
);
},
{
closed = 1;
nodes = (
(-78,698,l),
(-93,760,o),
(-102,796,o),
(-94,840,c),
(-88,874,o),
(-73,887,o),
(-40,887,cs),
(-14,887,o),
(2,884,o),
(28,877,c),
(28,905,l),
(8,913,o),
(-25,918,o),
(-47,917,cs),
(-92,915,o),
(-116,896,o),
(-117,844,c),
(-122,844,o),
(-119,844,o),
(-124,844,c),
(-113,756,o),
(-113,754,o),
(-106,698,c)
);
},
{
closed = 1;
nodes = (
(-92,698,l),
(-119,843,ls),
(-135,927,o),
(-189,923,o),
(-258,906,c),
(-248,872,l),
(-175,890,o),
(-159,884,o),
(-144,822,cs),
(-114,701,l),
(-114,698,l)
);
}
);
width = 0;
}
);
},
{
color = 9;
glyphname = "eMatra_reph_anusvara-deva";
kernRight = Chandrabindu.dv;
lastChange = "2024-02-14 04:51:54 +0000";
layers = (
{
anchors = (
{
name = _top;
pos = (-101,701);
}
);
layerId = "B3961A9D-C6DC-4F74-9770-9C992C479D86";
shapes = (
{
closed = 1;
nodes = (
(-7,740,o),
(14,745,o),
(14,788,cs),
(14,829,o),
(-7,835,o),
(-34,835,cs),
(-60,835,o),
(-81,829,o),
(-81,788,cs),
(-81,745,o),
(-60,740,o),
(-34,740,cs)
);
},
{
closed = 1;
nodes = (
(-81,700,l),
(-81,700,o),
(-142,814,o),
(-116,855,cs),
(-109,867,o),
(-90,877,o),
(-67,877,cs),
(-39,877,o),
(-16,872,o),
(10,865,c),
(10,976,l),
(-15,991,o),
(-45,994,o),
(-75,994,c),
(-161,994,o),
(-178,903,o),
(-178,878,c),
(-183,878,o),
(-213,877,o),
(-218,877,c),
(-197,844,o),
(-161,734,o),
(-142,700,c)
);
},
{
closed = 1;
nodes = (
(-122,700,l),
(-181,878,l),
(-217,990,o),
(-234,1026,o),
(-412,966,c),
(-377,855,l),
(-289,883,o),
(-269,873,o),
(-257,835,cs),
(-215,704,l),
(-215,700,l)
);
}
);
width = 0;
},
{
anchors = (
{
name = _top;
pos = (-90,699);
}
);
layerId = "0DC1F6FB-20EC-4E8F-AE98-F98B5FD714DE";
shapes = (
{
closed = 1;
nodes = (
(-18,784,o),
(-8,787,o),
(-8,807,cs),
(-8,827,o),
(-18,830,o),
(-31,830,cs),
(-44,830,o),
(-54,827,o),
(-54,807,cs),
(-54,787,o),
(-44,784,o),
(-31,784,cs)
);
},
{
closed = 1;
nodes = (
(-79,699,l),
(-94,761,o),
(-103,797,o),
(-95,841,c),
(-89,875,o),
(-74,888,o),
(-41,888,cs),
(-15,888,o),
(1,885,o),
(27,878,c),
(27,906,l),
(7,914,o),
(-26,919,o),
(-48,918,cs),
(-93,916,o),
(-117,897,o),
(-118,845,c),
(-123,845,o),
(-120,845,o),
(-125,845,c),
(-114,757,o),
(-114,755,o),
(-107,699,c)
);
},
{
closed = 1;
nodes = (
(-93,699,l),
(-120,844,ls),
(-136,928,o),
(-190,924,o),
(-259,907,c),
(-249,873,l),
(-176,891,o),
(-160,885,o),
(-145,823,cs),
(-115,702,l),
(-115,699,l)
);
}
);
width = 0;
}
);
},
